<?xml version="1.0" encoding="utf-8" ?><svg xmlns="http://www.w3.org/2000/svg" xmlns:xlink="http://www.w3.org/1999/xlink" width="342" height="512" viewBox="0 0 342 512"><path fill="#040404" transform="scale(0.333984 0.333333)" d="M415.338 260.124C432.88 260.006 450.422 259.988 467.963 260.07L467.998 285.001L622.014 285.036C622.376 293.147 622.278 300.892 622.196 308.997L673.037 309.047C673.144 317.491 673.15 325.936 673.056 334.38L723.989 334.405L723.981 359.11L750.081 359.109L750.096 384.712L775.027 384.781L775.017 410.136L799.922 410.187L800.016 562.665L775.135 562.675C775.321 605.455 774.8 648.983 775.409 691.663C766.951 691.621 757.942 691.742 749.535 691.517C749.57 699.861 749.811 709.23 749.502 717.489C741.95 717.49 731.317 717.817 724.014 717.375L724.076 767.996L697.992 767.973L698.018 818.486L724.294 818.392C724.352 826.434 724.653 836.521 724.183 844.399L749.367 844.498L749.419 894.398C758.112 894.565 766.806 894.657 775.5 894.674C775.286 903.411 775.167 912.15 775.141 920.89L826.012 921.005C826.033 929.166 826.198 937.749 826.051 945.871L876.963 945.833L877.018 971.982C894.458 971.991 912.62 971.73 929.997 972.047L929.946 996.668L954.955 996.685L955.011 1022.04L980.028 1022.18C980.03 1030.36 979.892 1038.95 980.056 1047.09C988.43 1047.23 996.804 1047.32 1005.18 1047.36L1005.17 1150.12C997.649 1150.15 987.29 1150.5 979.999 1150.11L979.936 1531.04L928.067 1530.96L928.025 1175.2L954.064 1175.28L954.032 1124.09L979.902 1124.06L980.015 1047.86L928.108 1047.89L928.122 1022.79L902.427 1022.66L902.392 997.291C887.553 997.294 866.444 997.947 852.102 997.024L852.094 971.392L801.11 971.284L801.079 945.83L775.931 945.847L775.967 997.209C769.337 997.204 756.184 997.604 750.076 997.066L750.066 1047.9L724.76 1047.96C724.791 1064.83 724.513 1082.69 724.89 1099.47L698.071 1099.5L698.215 1124.2C681.602 1124.21 663.941 1124.54 647.414 1124.16L647.469 1099.62C638.954 1099.63 630.44 1099.56 621.926 1099.42L621.898 1073.07C628.526 1072.28 640.96 1072.66 648.064 1072.7L648.073 1099.03C655.983 1099.44 666.312 1099.14 674.403 1099.14L674.322 1072.72C682.111 1072.59 690.248 1072.77 698.066 1072.83C698.112 1055.93 698.057 1039.03 697.901 1022.14L724.897 1022.08C724.954 1005.39 724.912 988.697 724.77 972.005L749.825 972.014C749.196 955.751 749.56 937.41 749.532 920.993L723.991 920.969L723.981 899.028L724.002 870.094L697.989 870.114L698.01 895.287L673.974 895.202L674.039 945.828L647.984 945.905C648.123 954.556 648.066 963.369 648.097 972.035L621.973 972.063L621.992 1022.88C613.788 1022.67 605.262 1022.87 597.031 1022.95L597.041 1047.1C604.918 1047.48 613.966 1047.25 621.938 1047.23C621.979 1055.84 621.966 1064.45 621.898 1073.07C606.18 1072.71 586.492 1072.3 570.954 1073.11L570.957 1099.4L545.012 1099.48L544.965 1124.28L519.085 1124.28L519.146 1227L441.95 1227.11L441.962 1277.25L415.382 1277.23L415.447 1175.09L441.038 1175.14L441.021 1124.07L466.802 1123.96C466.799 1115.86 466.84 1107.75 466.924 1099.65L366.879 1099.79L366.98 1124.22C349.895 1124.22 331.193 1124.61 314.248 1124.16L314.38 971.774L289.466 971.964C290.397 979.779 290.169 989.249 290.068 997.231C273.542 997.519 254.549 997.707 238.025 997.358C238.04 1005.78 238.132 1014.32 238.04 1022.73C229.808 1022.68 220.365 1022.84 212.25 1022.31L212.356 1047.93C195.072 1047.9 176.76 1047.57 159.557 1048.03L159.626 1072.88C151.739 1072.87 143.755 1072.8 135.878 1072.89L135.974 1099.64L98.9991 1099.5L99.0377 1150.1C90.3144 1150.29 81.5882 1150.28 72.8652 1150.08L72.9019 1277.35L48.0184 1277.33L48.0018 1531L21.038 1530.97L20.9887 1252.39L46.6373 1252.44C46.3251 1218.13 47.0497 1183.14 46.467 1149L72.0501 1149.03C71.9683 1132.39 71.973 1115.74 72.0643 1099.1C76.0891 1099.13 94.7924 1099.5 97.4013 1098.73C99.2475 1095.68 98.8002 1078.96 97.812 1075.08L98.9864 1072.21C103.788 1072.9 118.39 1072.66 123.928 1072.7L123.987 1047.18L159.057 1047.19C159.042 1041.88 159.394 1031.57 158.46 1026.81L159.372 1022.72C163.364 1021.19 204.473 1022.1 211.544 1022.14L211.558 996.76C220.267 996.735 229.228 996.594 237.913 996.714L237.909 972.015L288.27 971.989L288.222 945.823L314.217 945.843L314.217 920.984L339.475 920.997L339.539 894.697L365.407 894.705C365.401 870.311 365.928 843.229 365.118 819.058L339.286 819.017C339.338 810.544 339.53 801.661 339.197 793.231C331.127 793.165 322.153 793.286 314.158 792.951L314.2 742.455L288.115 742.373L288.099 691.538L263.523 691.41L263.393 588.417L238.064 588.265L237.995 538.071C229.758 538.063 219.889 538.3 211.785 537.89C211.696 529.036 211.659 520.182 211.674 511.327C220.43 511.251 229.186 511.259 237.942 511.35C237.949 477.802 237.617 443.691 237.971 410.195L263.39 410.255L263.27 384.813L288.098 384.809L288.048 358.833L313.931 359.117L313.668 334.398L339.434 334.438L339.34 309.033L366.523 309.022L366.145 285.044L415.29 285.047C415.282 277.022 415.078 268.074 415.338 260.124ZM570.646 512.214L518.857 512.218C518.502 521.063 518.744 529.206 518.982 538.029C495.94 538.059 464.232 539.122 441.94 538.078L441.964 563.333L339.992 563.417L339.995 538.019L314.738 538.124L315.015 741.449C322.678 741.433 332.557 741.151 340.025 741.712C340.009 758.302 339.635 776.328 340.1 792.802C348.738 792.645 357.379 792.63 366.018 792.758L366.059 818.891C373.069 818.075 383.703 818.405 391.04 818.433L390.975 844.234C399.341 844.322 407.706 844.367 416.072 844.369L416.048 870.396L462.488 870.482L544.035 870.403L543.988 844.299C552.52 844.317 562.38 844.095 570.805 844.445L570.756 818.272L621.886 818.269L621.961 792.642C630.333 792.616 639.837 792.802 648.116 792.456C648.082 784.372 647.948 776.093 648.026 768.028L674.6 768.046C674.549 752.275 673.932 731.833 674.678 716.437C691.056 716.517 707.612 716.471 723.974 716.749L724.014 691.688C707.39 691.43 690.765 691.336 674.139 691.406L674.23 664.689L698.004 664.839L698.064 538.085C689.847 538.056 681.164 538.172 672.99 537.967L672.998 512.216L622.262 512.133C622.294 503.517 622.431 494.703 622.35 486.106C605.552 486.103 587.161 486.495 570.505 486.071L570.646 512.214ZM621.941 819.076L622.009 845.252L570.948 845.243C571.198 853.519 571.273 861.799 571.173 870.078C562.427 870.132 553.681 870.141 544.935 870.106L545.16 895.631L459.457 895.678C445.289 895.67 429.072 896.044 415.157 895.559C415.289 887.544 415.462 878.237 415.102 870.257C407.099 870.186 399.096 870.198 391.093 870.294C391.358 912.444 391.356 954.595 391.086 996.745L416.24 996.761L416.195 1047.21L441.815 1047.33L441.563 1072.64L467.265 1072.66C467.242 1081.38 467.313 1090.26 467.185 1098.96C484.301 1099.4 501.568 1098.88 518.496 1099.33L518.447 1072.75C526.96 1072.68 535.474 1072.68 543.988 1072.78L543.985 1047.29L570.168 1047.25L570.089 1022.15C579.04 1022.14 588.134 1022.05 597.071 1022.16L596.995 972.02L621.92 971.937L621.887 945.733L647.951 945.747C647.803 929.376 647.42 910.945 647.805 894.65L674.009 894.691C673.943 861.576 673.344 825.97 674.151 793.084L648.416 793.113C648.42 801.25 648.684 811.072 648.315 819.074L621.941 819.076ZM339.96 511.317L339.916 461.229L366.052 461.258L366.035 486.79L390.062 486.788L390.056 436.192L416.006 436.235L415.993 461.262L441.922 461.378L441.856 436.232C450.488 436.263 459.431 436.169 468.034 436.362L468.033 511.097C476.434 511.313 484.838 511.408 493.241 511.381C493.231 495.57 493.69 476.908 492.999 461.324L518.782 461.268C518.947 468.816 519.199 479.361 518.678 486.831C535.55 486.874 553.212 487.164 570.017 486.675L570.043 460.125L570.109 410.814L543.95 410.922L543.965 436.479C535.471 436.435 526.749 436.282 518.276 436.373L518.292 384.809C535.708 384.83 553.448 384.667 570.834 384.885C570.77 392.726 570.425 402.605 570.8 410.284L596.044 410.187L596.083 436.285C604.764 436.438 613.447 436.5 622.13 436.472L622.013 410.147L648.033 410.202L648.079 436.31C656.596 436.333 665.257 436.444 673.758 436.373C673.639 452.906 673.618 469.441 673.695 485.974L697.867 486.023C697.897 494.31 698.07 503.008 697.939 511.258C715.307 511.442 732.766 511.154 750.06 511.368L750.092 536.826L774.273 536.988L774.261 461.137C766.214 461.133 757.404 461.31 749.421 461.074L749.484 410.881L724.995 410.853L724.871 384.867L697.937 384.858L697.984 360.77C681.703 360.722 664.245 361 648.066 360.566C648.047 352.192 647.901 343.496 648.035 335.151C579.916 335.155 509.883 336.045 441.938 335.126L441.971 310.204L416.623 310.105C416.344 326.226 416.319 344.62 416.917 360.691L390.139 360.671L390.157 335.145C373.697 335.129 356.761 335.317 340.34 335.014C340.424 343.568 340.451 352.123 340.418 360.677C332.008 360.695 322.85 360.891 314.502 360.636C314.471 368.762 314.492 376.888 314.564 385.014L289.726 385.023L290.051 410.889L264.002 410.87L264.043 536.956L288.037 536.998L288.056 461.261L314.577 461.332L314.668 511.147C323.098 511.302 331.529 511.359 339.96 511.317ZM441.954 512.844L415.014 512.748L415.032 486.8C407.561 486.764 398.098 486.995 390.795 486.63L390.906 512.641L366.057 512.93L366.063 536.876L418.79 536.928L441.916 536.998L441.954 512.844ZM723.976 641.13L724.037 690.79C732.112 690.779 741.156 690.96 749.15 690.634C749.613 674.343 749.375 657.493 749.334 641.152L723.976 641.13ZM467.227 1199.94C474.869 1199.98 484.747 1200.3 492.206 1199.85C492.225 1183.4 492.441 1166.54 492.23 1150.12C484.27 1150.13 475.001 1150.38 467.158 1150.13L467.227 1199.94ZM339.986 1099.07C348.863 1099.07 357.996 1099.18 366.848 1099.04C366.659 1090.25 366.61 1081.46 366.704 1072.67L388.899 1072.55C397.643 1072.59 406.672 1072.51 415.388 1072.71C415.408 1064.75 415.62 1055.87 415.343 1047.99L390.099 1047.93L390.091 997.048C382.519 997.109 372.798 997.445 365.408 996.961L365.481 945.829C357.435 945.802 347.867 946.031 339.954 945.718C339.956 996.564 339.44 1048.3 339.986 1099.07Z"/><path fill="#040404" transform="scale(0.333984 0.333333)" d="M468.09 587.145L494.004 587.159C494.31 604.958 494.099 623.314 494.113 641.156L468.435 641.232C468.803 648.589 468.631 657.698 468.696 665.192L441.92 665.222L441.949 690.637C459.093 690.867 476.57 690.69 493.74 690.683C493.88 699.596 493.829 708.648 493.861 717.574L443.101 717.565C435.069 717.565 424.247 717.887 416.59 717.232C416.78 725.281 416.768 733.334 416.553 741.382C447.938 740.559 479.851 741.655 511.295 741.23C530.713 740.968 550.724 741.018 570.14 741.455L569.958 716.355C573.925 715.826 591.104 716.192 596.034 716.194L596.088 742.579L570.652 742.451L570.837 767.994L415.328 767.945C415.476 759.545 415.388 750.912 415.402 742.49L390.083 742.595L390.086 716.171L415.406 716.25C415.666 699.207 415.505 681.815 415.518 664.745C424.316 664.663 433.115 664.724 441.911 664.928L441.884 614.727C450.308 615.037 459.518 614.903 468.004 614.941L468.09 587.145Z"/><path fill="#040404" transform="scale(0.333984 0.333333)" d="M543.981 536.891L647.379 536.91C647.304 545.537 647.419 554.165 647.726 562.787C613.166 562.635 578.606 562.68 544.047 562.922L543.981 536.891Z"/><path fill="#040404" transform="scale(0.333984 0.333333)" d="M390.085 587.084L416.001 587.154L416.085 641.151L390.094 641.117L390.085 587.084Z"/><path fill="#040404" transform="scale(0.333984 0.333333)" d="M570.178 587.168L595.888 587.136C596.612 603.87 596.102 624.112 596.123 641.11C587.946 641.378 578.391 641.117 570.108 641.101L570.178 587.168Z"/><path fill="#040404" transform="scale(0.333984 0.333333)" d="M468.072 384.858L494.025 384.864C494.409 401.582 494.082 419.492 494.077 436.302C485.403 436.396 476.728 436.367 468.055 436.216L468.072 384.858Z"/><path fill="#040404" transform="scale(0.333984 0.333333)" d="M122.32 1252.34L159.865 1252.45C161.044 1344.36 159.937 1438.87 159.928 1530.99L122.338 1530.94L122.32 1252.34Z"/><path fill="#040404" transform="scale(0.333984 0.333333)" d="M825.175 1252.38L852.019 1252.39L852.068 1530.98L825.159 1530.94L825.175 1252.38Z"/></svg>