<?xml version="1.0" encoding="utf-8" ?><svg xmlns="http://www.w3.org/2000/svg" xmlns:xlink="http://www.w3.org/1999/xlink" width="342" height="512" viewBox="0 0 342 512"><path transform="matrix(0.333984 0 0 0.333333 1.52588e-05 0)" d="M572.477 154.404L624.906 154.472L625.466 164.229L639.645 164.157C639.743 167.159 639.43 169.436 641.172 171.731C643.771 173.252 646.422 173.16 649.492 173.423C649.479 178.309 649.381 183.439 649.493 188.302L659.372 188.34C659.208 200.554 659.149 212.769 659.194 224.984L649.296 225.114C649.285 231.934 649.175 239.003 649.288 245.799L640.572 246.007C640.541 249.448 640.844 256.092 639.571 258.965C636.464 260.482 631.259 261.611 632.892 266.292C635.359 268.098 637.882 268.019 640.915 268.271C641.102 271.383 641.116 279.839 642.301 282.145C645.855 283.115 647.641 282.428 649.888 284.528C651.98 289.14 651.324 288.82 656.685 289.994C658 291.587 657.711 292.966 657.725 295.169C661.715 298.941 667.104 291.77 668.136 301.973C668.342 304.012 676.247 302.476 677.25 304.457C677.712 311.512 677.306 311.305 687.932 311.197L688.059 323.413L699.595 323.86L699.966 346.299L709.663 346.545C709.674 362.712 709.886 379.295 709.68 395.424L700.981 396.032C700.883 401.666 700.683 407.585 700.782 413.196C697.758 413.17 695.023 412.8 692.421 414.137C691.062 416.117 691.239 419.784 692.593 421.729C696.597 422.729 697.369 422.045 700.459 424.7C701.571 426.959 701.605 427.502 702.114 430.014C705.368 433.098 707.607 432.282 712.584 432.259L712.633 457.53C725.098 457.633 737.561 457.876 750.02 458.259L750.276 469.71L765.066 470.346L765.26 481.614C768.235 481.705 771.648 481.725 774.576 481.918L774.69 498.765L783.1 498.917C783.077 505.794 782.953 512.973 783.109 519.821L791.523 519.884L791.499 565.542L800.195 565.628C800.201 578.581 799.941 592.549 800.274 605.417L809.41 605.51C809.248 619.814 808.761 636.512 809.495 650.74L818.472 650.883C818.399 667.906 817.724 699.727 818.989 718.081C819.349 718.446 819.708 718.81 820.068 719.175L824.742 719.532C827.884 723.323 826.571 738.5 826.438 744.048L837.015 744.756L837.069 773.828L828.138 774.674L828.078 892.489C825.203 892.659 822.021 892.783 819.182 893.045L819.08 916.438L809.561 916.522L809.454 931.475L800.378 932.103L800.099 942.41L791.352 942.71C791.376 949.49 791.343 956.27 791.251 963.049L781.745 963.012C781.616 989.085 780.773 1016.5 781.789 1042.33L791.443 1042.42C791.485 1055.88 791.011 1074.32 791.888 1087.38L802.919 1087.4C803.141 1090.28 803.468 1093.61 803.55 1096.46L813.794 1096.51L814.256 1108.14L827.613 1108.46L828.267 1117.3L839.254 1117.44L839.507 1126.52L850.467 1126.5L850.892 1135.34C853.845 1135.49 856.559 1135.57 859.491 1136.03C861.247 1139.11 859.9 1142.3 861.475 1144.41C863.62 1147.28 870.734 1147.12 873.182 1149.67C875.922 1152.52 874.383 1155.15 877.608 1157.2C881.517 1157.39 882.241 1156.77 884.951 1158.67C887.536 1163.86 886.139 1164.19 891.716 1166.04L892.291 1166.23C892.342 1169.31 891.994 1172.75 893.471 1175.26L894.324 1175.4L894.892 1175.5C901.191 1176.56 903.249 1178.69 903.733 1184.97C906.406 1186.21 909.731 1185.83 912.804 1185.8C912.844 1189.25 912.795 1193.23 913.064 1196.61C915.302 1197.86 917.528 1199.12 919.741 1200.41C919.773 1205.42 919.887 1210.58 919.647 1215.58L929.074 1215.75C929.077 1221.77 928.931 1228.29 929.387 1234.26L937.606 1234.5L937.629 1255.24L945.9 1255.71L946.008 1282.22C948.903 1282.24 951.281 1281.89 953.608 1283.41C954.861 1285.93 955.353 1290.69 957.917 1290.98C966.54 1291.94 964.69 1291.17 965.508 1301.58L975.115 1301.92L975.164 1340.04C972.073 1340.1 968.994 1339.75 966.554 1341.36C965.084 1343.73 965.52 1346.15 965.59 1349.06L956.524 1350.13C956.531 1352.41 956.881 1358.09 955.817 1359.68C953.354 1359.89 951.736 1360.01 949.282 1360.56C947.138 1364.26 950 1364.84 947.818 1367.98C944.299 1368.78 941.824 1367.92 939.843 1369.41C939.875 1372.32 940.438 1375.1 938.911 1377.03C935.617 1377.49 933.436 1376.8 931.756 1378.4C931.807 1380.76 931.881 1382.16 931.534 1384.56C928.445 1386.93 926.986 1384.37 923.617 1386.67C923.426 1389.57 923.886 1390.65 922.283 1392.51C920.658 1392.57 919.034 1392.63 917.41 1392.71C915.662 1395.17 917.809 1399.98 915.985 1400.64C909.527 1402.98 908.66 1400.16 906.159 1407.52C904.08 1409.09 901.357 1408.62 898.549 1408.58L898.578 1419.1C923.286 1419 949.101 1418.75 973.776 1419.29L973.697 1430.19L692.837 1430.18C633.713 1430.15 572.123 1429.21 513.215 1431.05L513.092 1422.52C472.136 1422.97 431.177 1423.05 390.22 1422.74L390.148 1432.53C430.597 1432.33 472.643 1431.91 513.021 1432.45L512.992 1444.44L390.519 1444.42C390.289 1440.53 390.106 1437.17 390.154 1433.27L380.967 1433.15C380.9 1426.25 381.016 1418.22 380.67 1411.41L389.367 1411.18C389.348 1405.29 389.132 1397.84 389.429 1392.07C396.071 1391.79 401.515 1390.94 407.705 1393.41C409.623 1395.64 409.41 1394.77 409.769 1397.33C403.903 1404.62 398.873 1392.04 399.745 1410.75L471.727 1410.59C471.832 1406.04 471.99 1401.67 471.719 1397.11C468.565 1396.89 465.136 1396.58 462.004 1396.47C461.893 1393.28 461.866 1389.14 461.582 1386.05L430.311 1386.07C430.045 1381.07 429.679 1375.96 423.377 1375.51C418.166 1378.73 419.109 1382.14 419.279 1387.69C398.376 1384.32 380.602 1384.96 359.506 1385.03L297.928 1385.31L297.793 1374.86L287.648 1374.71C287.689 1368.09 288.088 1360.21 287.871 1353.78L298.77 1353.69C299.363 1342.35 299.767 1303.06 298.6 1292.74L280.709 1292.45L280.584 1281.84L270.49 1281.71L270.511 1268.28L280.465 1268.25L280.534 1257.96C286.831 1257.88 293.375 1257.71 299.651 1257.77C299.784 1253.89 299.961 1249.99 299.881 1246.11C312.996 1245.86 326.112 1245.74 339.229 1245.77L339.822 1230.1C353.721 1230.06 368.741 1229.71 382.549 1230.02L382.601 1246.11C392.825 1246.06 403.864 1245.8 414.016 1246.22L414.079 1257.49L436.631 1257.61L436.66 1268.09L447.208 1267.78L447.121 1293.01L414.092 1293.13L414.081 1364.34L298.568 1364.35L298.551 1374.43C311.397 1374.43 415.035 1375.9 418.756 1373.42C419.519 1370.57 419.469 1369.44 419.523 1366.57L461.387 1366.56C461.735 1362.69 462.015 1359.98 461.854 1356.11L472.254 1356.13L472.381 1345.47L482.84 1345.37L482.905 1334.93L472.91 1334.72L472.916 1306.12L483.942 1305.78C484.008 1280.36 483.312 1249.84 484.398 1224.78L495.265 1224.71C495.955 1218.9 495.563 1212.92 495.53 1207.07C495.405 1184.58 494.572 1161.86 495.486 1139.38L505.037 1139.31L505.038 1077.38C507.808 1077.39 511.294 1077.31 513.995 1077.44L514.255 1059.02L523.865 1058.92C524.035 1050.74 524.113 1042.56 524.099 1034.38L533.379 1034.32C533.245 1031.09 532.769 1028.19 534.047 1025.32C539.92 1023.95 543.994 1024.71 543.74 1015.65C546.246 1014 549.519 1014.47 552.734 1014.51C552.531 1010.25 551.327 1000.37 553.593 997.376C556.337 997.272 557.379 997.268 560.087 996.549C562.163 994.158 562.382 992.874 561.541 989.634C554.339 988.81 537.985 990.763 532.352 988.615L532.003 987.812C528.461 979.761 521.628 981.516 513.93 981.907L513.841 955.936L528.705 955.445C528.801 952.529 528.498 950.324 530.186 948.09C532.763 946.651 535.567 947.15 538.653 947.264C538.714 941.281 538.845 935.142 538.777 929.176C541.36 929.113 545.335 929.141 547.79 928.903L547.924 911.376L556.779 911.16L556.757 889.502L565.339 889.369C565.223 877.927 564.783 861.768 565.519 850.531C568.471 850.363 572.049 850.261 574.902 849.811C575.296 822.82 575.777 786.888 574.664 760.285L564.243 760.327L564.112 750.973L553.937 750.784L553.675 741.716L531.631 741.68C531.546 744.573 531.824 747.491 530.403 749.861C528.117 750.584 523.495 750.393 523.248 752.656C521.851 765.494 519.25 756.964 512.403 761.054C509.645 773.647 506.783 765.477 501.482 769.612C501.066 772.51 501.021 774.035 500.989 776.886L443.382 776.902L443.327 766.644L420.866 766.61L420.747 776.827L397.572 776.99L397.51 785.779C389.878 785.786 381.982 785.898 374.375 785.751L374.07 794.411C366.595 794.316 357.198 793.757 350.18 796.188L349.318 797.111C351.021 800.654 358.226 801.128 360.206 804.004C357.203 805.967 353.101 805.712 349.572 805.663C349.386 810.612 349.033 816.311 349.212 821.2L338.172 821.503C338.127 828.655 338.04 835.806 337.912 842.956L324.797 842.976L324.715 854.116C321.996 854.181 319.135 853.853 317.073 855.34C315.981 858.033 315.651 859.881 313.179 861C306.451 864.044 296.758 858.41 291.785 864.035C291.098 867.254 291.331 869.075 289.066 870.562C283.033 871.08 275.21 870.158 270.136 871.233C268.304 873.815 271.559 876.838 263.39 878.147C259.052 878.842 252.214 878.416 247.667 878.298L247.449 887.088L210.737 887.128L210.658 897.747L152.279 897.816L152.262 886.584L123.125 886.431L122.989 874.519L113.264 874.494C113.265 870.114 113.416 864.654 113.103 860.372L102.442 860.187C102.756 852.742 102.788 847.203 102.489 839.763L93.7812 839.488L93.9047 818.601C96.55 818.611 102.268 818.495 104.62 818.841C104.061 825.415 104.284 831.72 104.393 838.31L113.258 838.47C113.226 834.603 113.507 830.483 113.701 826.597L124.339 826.546C124.581 823.744 124.573 820.229 124.636 817.368L140.253 817.137L140.294 807.034C147.704 807.021 155.284 806.532 162.701 806.146C162.849 803.179 162.541 800.421 164.349 798.317C166.721 797.437 166.906 797.53 169.496 797.726C172.414 800.481 169.514 800.792 171.815 804.739C173.943 805.945 178.878 805.556 181.581 805.54C181.746 801.627 181.731 797.433 181.791 793.494L211.545 793.451C211.78 790.02 211.57 785.916 211.482 782.415L254.258 782.423L254.392 772.599L268.428 772.558L268.577 763.425L330.3 763.482C329.802 769.986 329.464 776.502 329.287 783.024L316.743 783.268C316.87 780.628 317.138 779.738 315.927 777.448C311.623 773.766 303.515 775.234 297.559 775.519C297.565 776.288 297.583 777.056 297.613 777.825C297.994 786.703 310.158 783.626 316.743 783.268L316.371 793.693L297.228 794.084L297.309 783.658C287.565 783.599 277.821 783.603 268.077 783.67L268.018 794.212L212.117 794.243L212.169 805.502L182.221 805.586L182.098 816.641L152.189 816.717C152.211 820.044 152.137 823.99 152.311 827.257C164.867 827.205 178.891 827.415 191.31 826.88L191.323 815.898L233.101 815.842L233.094 804.833C240.042 804.762 262.65 804.189 268.582 805.365L268.587 816.656L233.128 816.681L233.234 826.456L193.487 826.528C193.389 830.451 193.158 835.02 193.229 838.889C166.574 839.228 139.917 839.343 113.26 839.234C113.183 842.36 112.735 845.084 114.185 847.723C116.479 849.619 119.137 849.428 122.202 849.46C122.278 853.681 122.25 858.473 122.593 862.632L130.023 864.767L130.557 874.482L152.584 874.526L152.783 885.706L201.78 885.696L201.852 875.582L244.735 875.361L244.86 865.578L268.336 865.543C268.434 862.63 268.471 859.415 268.658 856.536C273.526 856.715 284.303 857.896 287.894 855.182C288.947 851.005 288.189 851.613 290.91 848.927C296.04 848.031 303.159 848.342 308.511 848.384C308.672 845.793 308.446 842.443 309.994 840.68C324.858 840.949 310.303 829.734 324.04 829.59C329.872 829.528 322.648 801.641 327.068 796.284C329.142 795.834 331.509 796.064 332.63 794.465C334.279 792.113 331.763 784.006 334.678 783.244C341.273 781.521 339.952 774.335 339.826 768.713C335.472 762.897 333.722 761.718 333.603 754.47L252.056 754.49C251.469 759.305 251.454 762.587 251.441 767.378C238.167 767.535 224.626 767.552 211.379 767.871L210.885 777.436C201.281 777.448 191.677 777.406 182.074 777.309L181.648 788.403L153.365 788.606C153.381 792.024 153.294 796.048 153.436 799.407L126.763 799.469L126.712 809.359L114.801 809.311C114.939 806.226 114.853 802.557 114.859 799.42L126.031 799.14L126.055 788.994L153.051 788.438L153.065 776.318L181.649 776.298L181.801 766.745L205.347 766.55C206.115 761.62 206.184 759.953 205.981 754.961C219.799 754.257 236.465 754.586 250.499 754.514C250.765 750.768 250.778 746.416 250.882 742.615L333.777 743.259L333.907 753.743C344.702 753.907 344.374 759.323 355.019 759.611L354.865 746.882L380.29 746.606L380.395 737.86L403.278 737.388L403.516 728.737C409.18 728.688 418.523 729.809 422.143 726.335C422.435 724.283 422.422 724.013 423.284 722.164C427.587 719.454 438.64 720.51 444.053 720.646L444.187 711.8C447.274 711.841 451.156 712.312 453.574 710.794C455.142 708.658 454.906 706.309 455.052 703.543L474.113 703.496C474.568 700.788 474.658 697.996 474.823 695.248L495.71 695.137L495.868 686.261C501.91 686.381 508.403 687.355 513.392 684.224C517.143 676.635 522.592 678.551 530.256 678.741C530.425 676.213 530.522 674.697 531.008 672.182C534.673 668.317 540.147 673.954 543.982 665.611C547.644 662.739 556.189 663.555 561.102 663.586C561.204 660.81 560.951 658.253 562.376 656.002C564.632 654.534 567.311 654.78 570.127 654.66L570.226 592.41L584.255 592.379C584.106 581.001 582.549 553.398 587.651 544.755C591.193 541.684 598.423 542.45 603.275 542.467L603.287 509.314C602.215 509.323 601.143 509.312 600.072 509.28C590.806 508.964 599.084 501.237 584.566 500.705L583.455 492.258L573.417 491.148C573.413 486.867 574.279 483.941 570.566 481.423C568.003 481.315 567.04 481.476 564.828 480.243C563.155 477.939 563.386 475.547 563.313 472.708C540.02 473.709 539.823 461.492 524.888 460.578C525.091 452.944 524.937 444.855 524.912 437.184C528.738 436.776 530.164 436.788 534.018 437.02C534.089 432.798 534.689 423.731 533.201 419.798C532.806 418.756 531.488 418.749 530.084 418.368C528.321 415.919 530.282 412.89 528.535 409.621C526.373 409.356 525.821 409.407 523.91 408.465C522.959 405.455 523.304 396.697 523.236 393.012C513.522 390.275 517.629 389.804 514.407 382.603C512.281 381.02 509.188 381.471 506.318 381.476L506.28 363.471L505.831 363.475C496.946 363.492 500.32 362.588 496.208 356.925C493.857 353.687 480.114 354.646 476.557 354.729L476.461 364.513L435.292 364.465C435.33 361.649 435.715 358.282 434.572 355.869C432.41 354.224 429.204 354.691 426.255 354.692C422.351 343.868 423.562 349.732 415.792 345.049C414.387 342.623 414.912 339.449 415.016 336.47L405.643 336.058C406.248 323.468 405.852 308.314 405.746 295.655C410.158 295.592 412.338 295.727 416.729 296.261C416.782 287.297 417.016 277.698 416.47 268.803L426.045 268.996L425.987 256.58L435.574 256.531C435.607 253.488 435.271 249.451 436.68 247.005C438.958 245.496 442.271 245.983 445.214 246.025L445.445 236.273C452.874 236.107 460.66 236.23 468.119 236.238L467.929 246.749L445.654 246.715L445.556 257.195L435.672 257.266L435.918 269.389L426.87 269.819C426.848 278.702 427.018 288.338 426.761 297.158L416.35 297.2C416.082 307.952 416.098 318.709 416.399 329.46L426.113 329.362L426.131 342.73L436.048 342.664L436.127 353.305L475.7 353.266C475.723 349.787 475.7 346.204 475.783 342.736L495.134 342.572C495.833 336.675 495.716 331.479 495.489 325.563L486.878 325.398L486.877 314.475L495.98 314.923C496.083 318.272 496.108 322.217 496.45 325.499L508.334 325.52C509.306 325.549 513.017 325.589 513.744 325.736C516.407 326.803 518.334 327.837 521.22 327.607C525.285 325.345 524.552 323.009 524.929 318.661L524.974 318.087L535.638 318.616L535.993 309.982L546.686 309.62C547.514 306.819 547.757 304.951 550.078 303.123C557.693 300.067 560.403 306.256 559.927 293.173L571.463 293.263C571.459 290.606 571.1 288.223 572.483 286.107C574.673 285.61 578.678 285.066 580.054 283.606C580.867 280.698 580.385 280.546 582.46 278.919C586.778 278.42 589.153 279.694 592.152 278.251C592.58 273.671 590.975 275.221 592.83 271.61C595.594 269.827 598.898 270.386 602.363 270.476L602.35 260.271L612.563 260.307C612.508 257.777 612.386 254.952 612.399 252.448C618.785 252.221 625.174 252.082 631.564 252.031C631.633 248.652 631.092 245.021 633.955 242.892C640.691 237.882 639.452 231.491 639.297 223.983L648.842 224.084C648.763 214.576 649.043 200.417 648.334 191.436L639.002 191.333L639.182 174.027L624.519 174.053L624.33 164.996L573.102 165.032C573.136 167.911 573.608 170.559 571.949 172.659C569.264 173.981 565.548 173.475 562.383 173.36L562.067 183.443L552.335 183.554L552.141 193.388L542.144 193.407L541.98 202.684L531.934 202.645L531.911 192.896L542.316 192.806L542.341 183.203L552.414 183.11C552.647 179.749 552.914 176.602 552.836 173.227L562.133 173.205L562.257 163.517L572.404 163.448L572.477 154.404ZM602.03 271.46L602.16 280.46C599.202 280.241 596.308 279.689 593.659 280.767C592.729 282.357 592.721 283.297 592.443 285.096C588.204 289.564 585.497 285.435 581.727 288.385C578.97 293.539 579.914 292.994 573.937 294.806L572.093 295.356C571.086 298.56 571.136 300.18 570.973 303.52C567.858 303.414 564.069 302.908 561.426 304.342C558.104 308.52 562.495 310.183 555.648 311.331C550.198 312.245 549.83 310.118 546.973 313.44C546.513 315.509 546.524 315.511 546.632 317.635C544.612 319.437 538.587 319.456 535.653 319.682L535.582 328.51L524.525 328.52C524.395 331.538 524.651 333.314 522.962 335.761C520.433 337.418 517.082 336.846 513.841 336.847L507.697 336.929C506.911 344.075 507.057 352.328 507.239 359.574C510.307 359.818 512.346 359.608 514.607 361.557C516.033 364.218 515.704 368.07 515.736 371.268L525.037 371.327L525.138 381.733L535.073 381.677C535.353 378.576 535.7 375.51 535.661 372.398C538.633 372.312 541.91 372.306 544.84 371.977L550.165 366.666C555.495 365.575 557.527 365.517 563.027 365.43L563.399 357.068L575.548 356.924C575.714 353.752 575.931 350.541 575.925 347.369L593.74 347.067L593.987 337.531L603.888 337.506C604.038 335.126 603.993 331.015 605.095 329.134C608.788 328.351 610.323 329.109 612.964 327.364C613.811 324.116 612.571 322.118 614.407 319.559C618.222 317.016 620.282 319.588 622.505 316.938L622.733 310.74C624.363 309.247 629.286 309.626 631.916 309.639C631.898 306.768 631.627 301.528 632.43 299.034C636.752 295.435 641.921 301.067 640.527 288.979C638.357 287.416 634.931 287.515 632.03 287.286C631.933 282.165 631.911 276.756 631.714 271.662L621.163 271.523C621.254 267.021 622.1 261.449 616.312 260.782C611.924 263.338 612.792 266.852 612.833 271.49L602.03 271.46ZM652.366 1083.12C652.704 1091.12 654.188 1093.94 646.453 1097.94C643.85 1102.13 646.472 1111.61 644.648 1116.35C644.426 1116.93 638.132 1117.47 637.216 1117.53C637.169 1121.54 638.044 1134.34 636.192 1137.14C635.797 1137.73 633.902 1138.59 633.116 1138.94C631.432 1143.3 633.484 1143.35 631.324 1146.92C627.269 1148.1 626.79 1146.77 624.448 1148.76C622.947 1159.3 623.496 1173.16 623.583 1184.09C623.766 1201.54 623.861 1218.99 623.868 1236.44L614.31 1236.65C614.065 1259.92 614.026 1283.19 614.193 1306.46L604.508 1306.51C604.418 1324.4 604.632 1342.69 604.385 1360.53L593.866 1360.63C593.881 1365.99 593.943 1371.74 593.582 1377.06L581.099 1377.09C580.967 1383.87 580.823 1390.45 580.987 1397.24L590.303 1397.54C590.363 1404.45 590.261 1412.18 590.561 1419.02L769.158 1418.75L785.381 1418.56L785.402 1400.22L793.813 1400.02C793.84 1393.69 793.942 1387.16 793.833 1380.85C796.776 1380.69 798.88 1380.92 801.168 1379.21C802.539 1376.87 802.199 1373.89 802.226 1371.04L812.337 1370.28L812.353 1360.49L823.515 1360.43L823.68 1351.52L840.646 1351.47C840.686 1348.68 840.404 1346.35 841.727 1343.99C843.962 1342.14 846.481 1342.45 849.52 1342.41L849.38 1332.81L838.837 1332.64C838.905 1329.52 839.436 1326.16 837.857 1323.7C835.229 1321.95 832.975 1321.88 831.295 1319.39C830.549 1316.42 830.735 1314.27 830.769 1311.23C827.847 1311.08 825.272 1311.36 823.112 1309.64C821.869 1307.11 822.2 1304.32 822.205 1301.41L813.13 1301.21L812.727 1289.93C809.12 1289.71 807.357 1290.2 804.627 1288.48C802.818 1284.07 802.176 1280.73 798.75 1277.75L795.219 1274.67L795.421 1263.69L785.413 1263.5L785.216 1247.51C782.26 1247.41 779.916 1247.69 777.56 1246.09C775.933 1243.73 776.542 1239.9 776.492 1236.7L766.926 1236.25L766.989 1218.73L757.125 1218.61C757.142 1215.52 757.57 1212.84 755.942 1210.39C752.215 1208.23 750.465 1209.34 748.326 1206.81C747.602 1203.97 747.77 1202.23 747.794 1199.33L737.398 1199.31L737.129 1190.71L726.984 1190.6L726.863 1179.5L717.417 1179.21C717.352 1177.03 717.418 1170.2 716.544 1168.73C709.577 1167.34 707.973 1167.79 706.521 1160.08C704.275 1157.68 701.878 1157.86 698.595 1157.75L697.791 1157.72L697.775 1137.78L686.84 1137.6C687.075 1127.41 687.14 1117.22 687.034 1107.03L678.249 1106.53C678.873 1097.5 678.8 1082.58 678.439 1073.35L661.458 1073.29C661.299 1076.16 661.53 1079.88 659.956 1082C657.445 1083.39 655.29 1083.1 652.366 1083.12ZM694.089 607.558L684.47 607.49C685.052 596.983 685.091 586.013 684.976 575.476C684.888 567.371 683.034 570.483 679.995 567.337C679.929 565.29 680.145 563.819 678.998 562.184C675.795 561.128 670.523 561.573 666.966 561.672C666.827 555.946 665.743 543.31 668.474 538.085C669.243 536.614 671.086 536.591 672.885 536.151C675.978 532.712 674.9 527.699 674.693 522.74C677.367 522.776 678.943 522.924 681.567 522.187C684.267 520.11 684.189 517.483 685.974 514.406C688.341 512.729 690.12 513.043 693.082 512.988L693.055 501.413C700.192 500.373 705.814 497.954 713.217 498.112C713.255 500.518 713.544 505.203 712.854 507.297C712.622 507.35 704.986 508.886 705.218 508.703C702.237 511.061 703.451 512.891 699.958 515.146C697.75 515.177 695.092 514.73 693.862 515.92C693.682 518.44 693.716 522.36 692.575 524.399C688.596 526.55 687.785 525.078 686.275 527.643C686.198 530.656 685.796 529.886 687.132 532.153C688.91 533.043 691.654 533.972 691.92 535.796C693.152 544.243 692.571 557.247 692.539 565.549L701.377 565.916C701.354 571.861 700.392 601.694 702.726 604.854C705.61 605.298 706.838 604.988 708.824 606.619C710.078 612.149 708.063 616.203 711.981 618.821C715.283 618.964 714.983 618.418 717.285 620.252C718.447 623.037 718.083 625.846 718.022 628.935C734.51 628.653 751 628.541 767.489 628.599C767.419 632.07 767.247 636.019 767.41 639.439C770.125 639.553 772.553 639.312 774.722 640.753C776.013 643.492 775.579 645.119 774.675 648.206C770.985 648.928 772.018 649.22 769.087 648.202C767.219 645.735 767.468 642.621 767.41 639.439C754.655 640.209 737.804 639.678 724.723 639.644L724.752 648.567L744.272 648.504L744.804 656.799L759.097 656.628L759.178 666.065L768.948 666.097L768.968 690.001L759.123 689.978C759.092 683.185 759.318 673.269 758.598 666.766L742.669 666.721C742.711 663.96 742.871 660.413 742.782 657.724L725.12 657.781C722.161 657.795 719.087 657.504 716.538 658.927L715.819 660.116C715.918 661.881 715.867 663.15 715.794 664.92C714.387 666.721 714.156 666.683 711.877 667.417C705.215 666.962 705.779 662.646 705.761 657.813C696.988 657.506 684.495 657.621 675.875 658.336L675.539 666.722L664.384 666.731C664.003 676.357 663.656 687.833 664.686 697.354L674.7 697.41C675.362 710.795 675.003 727.098 675.052 740.701C678.308 740.851 680.46 740.399 683.094 742.079C684.87 744.431 684.76 747.112 685.073 750.165L715.269 750.266L715.815 740.289L733.607 740.332L733.769 730.646L757.89 730.49C758.198 727.142 758.301 723.291 758.468 719.891L778.129 719.776C778.223 717.025 778.036 715.206 779.239 712.746C781.374 711.14 784.9 711.515 787.811 711.447C788.019 708.713 787.914 705.184 789.329 703.054C795.225 702.631 797.66 701.723 799.536 695.943C801.397 694.459 804.596 694.857 807.218 694.828L807.197 657.764L797.957 657.67L798.014 606.836L788.95 606.666C788.99 593.65 788.92 580.634 788.74 567.62L780.589 567.011C781.381 555.342 780.951 539.012 780.695 527.197L771.88 526.511L771.837 500.229L761.867 499.705C761.957 496.159 761.694 492.853 761.465 489.32L750.35 489.34C750.238 486.077 750.618 483.826 748.616 481.52C745.976 480.039 740.968 480.501 737.684 480.53C737.054 495.743 726.55 498.017 713.217 498.112C713.058 495.372 713.034 494.826 713.603 492.154C716.137 489.358 719.727 490.42 720.876 487.518C723.082 481.946 723.538 466.727 713.26 471.894C711.776 472.64 711.758 476.509 711.533 478.152C709.274 479.901 706.536 479.422 703.147 479.625C702.716 482.811 702.485 486.467 702.207 489.709L692.386 489.746L692.024 499.48C682.67 499.287 684.387 498.951 681.152 507.25C680.605 508.654 675.903 510.897 674.369 511.688C674.381 514.517 674.724 517.725 673.563 520.164C669.405 520.259 667.715 520.442 665.409 524.469C665.414 526.398 665.538 526.905 664.717 528.694C661.999 530.233 659.38 530.23 656.229 530.584C655.009 538.887 654.842 547.401 654.812 555.772L595.72 555.72C595.509 572.082 595.63 588.729 595.592 605.115L582.101 604.756C581.809 628.422 581.828 652.09 582.16 675.756L602.411 675.729L602.505 664.039C606.051 664.323 610.014 664.425 613.602 664.598L613.705 655.535C617.032 655.641 621.223 656.232 623.892 654.575C625.694 652.465 625.563 650.34 625.87 647.48C639.024 647.752 652.181 647.879 665.339 647.862L665.271 636.699L655.99 636.398L656.296 564.682L666.835 564.612C667.08 584.975 666.499 606.003 667.207 626.289C672.372 626.218 677.665 626.278 682.841 626.28C683.18 629.195 683.107 631.444 684.815 633.735C687.333 635.089 691.002 634.572 694.054 634.487C694.425 626.227 694.114 615.964 694.089 607.558ZM642.858 542.274L642.861 520.522L652.639 520.447L652.776 509.979L662.757 510.061C662.653 506.889 662.114 503.78 663.658 501.208C670.039 497.305 670.439 501.647 673.007 492.644C675.919 492.154 678.53 492.274 680.36 490.571C680.866 488.339 681.193 485.947 682.419 484.084C686.219 483.503 686.955 484.423 688.56 482.358C689.555 477.715 685.429 477.435 687.564 474.388C692.107 472.95 697.049 473.389 701.808 473.613C702.979 462.504 702.804 454.544 702.467 443.36L692.258 443.308L692.086 455.85C690.42 455.868 685.563 455.655 684.684 456.968C679.071 465.359 675.606 464.444 666.275 464.622C666.306 467.36 666.733 470.024 665.276 472.141C661.171 473.024 661.592 472.364 659.146 474.997C658.106 478.914 658.992 479.752 656.787 482.337C653.055 483.287 652.765 482.37 650.803 484.565L650.004 490.134C646.817 491.03 640.49 490.621 636.944 490.55L636.796 500.759L624.672 500.893C624.72 503.657 625.214 506.557 623.662 508.569C620.988 509.814 617.923 509.363 614.857 509.267C614.746 520.264 614.783 531.262 614.969 542.258L627.341 542.223L642.858 542.274ZM633.844 665.552C626.74 666.15 621.484 666.022 614.343 665.861C614.179 680.881 613.838 697.427 614.284 712.391L603.991 712.408L603.844 686.542C594.263 686.524 584.488 686.397 574.925 686.501L575.091 696.527C565.028 696.556 539.613 695.997 531.668 697.856C530.566 699.553 530.535 700.56 530.129 702.588C527.106 705.481 514.984 702.578 509.686 703.827C506.079 707.525 511.641 711.272 501.615 711.22C495.38 711.188 488.87 711.176 482.623 711.27L482.438 721.474C479.248 721.589 476.616 722.094 473.995 720.518C472.86 718.413 473.115 717.513 473.168 715.013C470.03 711.546 461.931 712.206 462.299 719.046C464.982 722.357 467.336 721.65 471.463 721.65C471.631 728.072 471.674 734.497 471.591 740.921C468.677 741.021 466.356 740.76 463.967 742.27C462.263 744.499 462.681 748.323 462.474 751.466L445.587 751.478L445.563 762.444C460.11 762.578 474.769 762.803 489.307 762.757L501.325 762.751C501.25 760.1 500.796 755.142 501.801 752.955C506.542 751.691 507.043 752.841 510.573 750.185C513.159 742.881 513.811 743.725 521.635 743.915L521.816 733.473L531.106 733.437L531.214 722.184C558.756 721.954 586.67 721.536 614.2 721.64C614.733 717.773 614.288 716.373 616.318 713.631C619.044 712.432 623.193 712.998 626.337 713.161C626.251 729.206 626.328 745.251 626.567 761.294C643.85 761.342 657.391 761.97 674.452 759.437C674.453 755.84 674.525 751.975 674.413 748.406L663.028 748.2C663.09 735.678 663.692 716.624 662.762 704.652L653.386 704.318C653.368 691.127 653.974 671.024 653.117 658.392C647.644 658.363 640.315 658.135 635.035 658.498C634.703 660.492 634.282 663.688 633.844 665.552ZM354.59 1242.3L352.474 1242.98L352.233 1244.13C355.36 1246.74 363.554 1246.31 367.481 1245.93C367.83 1245.9 368.178 1245.86 368.525 1245.81L370.929 1245.5L371.434 1244.71C368.663 1241.37 358.493 1242.1 354.59 1242.3ZM610.077 446.236C610.184 449.495 610.689 452.529 608.758 455.02C606.9 455.615 606.558 455.68 604.592 455.883L604.094 455.931C601.914 458.61 602.916 457.966 602.291 461.709C601.178 468.376 597.84 463.336 593.573 466.453C593.408 468.371 593.211 470.286 592.983 472.197C590.856 473.483 585.702 472.997 582.761 473.001C582.708 475.803 582.47 477.627 583.346 480.3C586.002 482.369 587.377 481.939 591.205 482.525C591.796 485.401 592.079 488.417 594.072 490.511C596.605 491.914 597.014 491.897 599.93 491.872C603.188 490.241 603.092 489.107 605.229 485.4C607.538 483.712 611.807 483.896 614.881 483.727C616.193 482.384 615.917 480.169 615.865 478.134C615.68 470.984 620.294 474.39 624.076 473.021C625.486 470.527 625.147 467.898 625.082 465.034C627.865 465.018 630.011 465.219 632.617 464.273C634.937 462.138 634.778 460.242 636.152 456.946C638.441 455.326 640.693 455.848 643.646 455.993C643.498 449.995 643.298 444.033 643.432 438.033L652.587 438.061L652.619 456.167L643.646 455.993C643.971 459.424 644.727 462.422 642.153 465.025C635.507 464.421 633.402 466.587 634.459 473.22L633.482 474.207C630.32 474.905 628.937 474.784 625.782 474.713C625.699 479.149 625.431 484.503 625.978 488.827C628.71 489.456 631.962 489.467 634.287 487.88C634.343 485.08 634.259 484.187 635.298 481.528C637.286 479.997 640.03 480.347 642.99 480.122C644.905 478.024 644.514 476.448 644.984 473.139C647.666 471.387 652.488 473.27 654.754 472.093C655.16 471.883 654.49 464.432 656.233 464.156C659.126 463.698 660.502 463.675 663.256 463.511C664.98 463.379 664.328 457.788 665.144 457.062C665.925 456.368 671.292 456.233 671.874 455.552C672.946 454.296 672.573 448.126 674.355 447.765C677.145 447.2 679.249 448.249 681.617 446.009C684.091 436.031 678.633 440.722 672.919 437.537C670.38 433.92 671.591 435.336 670.684 430.69C668.19 429.07 665.615 429.213 662.561 428.971L663.02 419.977L651.799 420.075L651.936 409.202L662.429 408.789C662.889 404.712 663.688 386.065 661.694 383.179L653.846 382.309C651.878 377.035 649.418 371.682 642.372 375.01C641.473 381.174 641.952 399.073 641.975 406.11C636.627 406.262 625.556 407.606 621.983 403.479C622.009 401.166 622.155 400.8 621.128 398.829C618.736 397.172 616.71 397.375 613.746 397.198C613.726 392.629 613.572 387.926 613.481 383.346C610.67 383.374 607.933 383.754 605.587 382.446C603.658 373.578 602.223 374.753 595.132 372.377C593.754 370.178 593.958 367.813 593.828 365.128L580.284 365.081C580.062 368.022 580.013 371.393 579.9 374.376L573.651 374.281C568.249 374.218 559.633 373.577 555.504 377.608C553.184 387.689 573.839 382.694 579.948 384.549L580.351 385.903L580.35 393.092L552.456 393.109L552.147 402.576L543.119 402.469L543.175 393.973C544.348 391.978 546.967 393.374 550.937 392.135C553.115 388.686 552.402 386.203 549.172 384.009C546.735 383.814 546.656 383.863 544.36 384.839C542.605 387.587 543.128 388.981 542.926 392.631L534.903 392.719L534.908 407.126L544.223 407.126L544.47 443.081C541.852 443.07 539.984 442.861 537.514 443.719C535.627 445.781 536.321 445.737 535.868 448.412C534.712 455.235 548.176 449.078 553.027 453.396C554.863 462.146 558.735 455.932 564.136 458.998C566.201 465.615 566.97 462.686 572.525 465.192C574.188 467.599 574.158 468.384 574.239 471.208L574.258 472.029C576.244 473.363 580.145 472.925 582.797 472.914C582.856 469.073 582.986 466.118 582.448 462.315C580.792 460.577 577.232 459.852 574.75 459.084C579.972 456.945 587.734 457.428 593.429 457.519L593.426 446.236L610.077 446.236ZM309.975 1258.44L309.876 1353.18L358.328 1353.15L402.773 1353.09C403.016 1322.65 403.501 1288.36 402.769 1258L356.896 1258.12L309.975 1258.44ZM797.087 804.48L776.93 804.576C776.59 820.348 777.225 836.83 776.628 852.436L767.261 852.671C767.054 869.731 766.983 886.792 767.046 903.853L758.374 904.317C757.967 913.437 757.967 922.034 757.991 931.14C754.691 931.019 750.673 930.305 748.157 931.73C742.872 941.78 754.382 939.824 756.081 941.128C756.193 942.893 756.356 943.29 755.425 944.815C752.16 945.367 750.201 944.213 748.484 946.812C746.389 949.981 747.068 956.459 747.193 960.41C744.536 960.544 742.19 960.313 740.128 961.795L739.978 963.022C743.442 965.884 747.452 962.647 747.281 966.367C747.151 969.186 747.64 970.402 746.025 972.817C744.081 973.514 743.025 973.23 740.908 973.052C737.495 975.298 737.563 977.091 737.227 980.88C734.933 982.754 733.65 982.538 730.447 982.863C728.412 985.957 728.44 990.219 730.983 992.951C736.683 993.427 740.097 985.277 747.487 983.149C748.528 980.602 748.354 977.009 748.44 974.142L757.847 973.926L757.965 962.872L769.711 962.685L770.256 950.913L780.372 950.703C780.879 944.251 780.847 938.176 780.872 931.714C783.557 931.829 786.681 932.036 789.328 932.045C790.918 925.987 790.694 923.164 797.352 921.868C799.984 918.05 799.189 909.425 799.134 904.51L808.678 904.332C808.858 898.434 808.915 892.533 808.847 886.632L817.669 886.408C817.82 874.608 819.058 789.936 815.883 785.653C814.57 785.168 812.96 784.522 811.647 784.154C807.096 788.299 807.878 788.783 807.94 794.96L797.511 794.981L797.087 804.48ZM421.677 750.755L444.19 750.714L444.193 738.122C434.665 738.108 425.013 738.009 415.497 738.12L415.033 747.433C408.307 747.484 400.413 747.725 393.803 747.319L393.796 758.268L364.591 758.418L364.305 771.01L351.004 770.986C350.866 774.673 350.62 778.767 350.611 782.419C356.559 782.709 366.782 783.784 372.081 781.539C373.119 779.691 372.92 780.631 372.927 778.68C372.978 774.905 372.399 775.089 374.178 772.336C380.185 768.92 389.387 771.023 396.939 770.95L396.957 760.535L421.468 760.331L421.677 750.755ZM895.384 1380.49C895.688 1377 895.211 1375.9 896.987 1373.34C900.416 1372.13 901.991 1372.39 903.832 1370.06L904.495 1363.81C907.697 1363.79 910.974 1364.2 913.552 1362.6C915.158 1360.43 915.302 1357.51 915.763 1354.73C918.63 1354.6 921.187 1354.87 923.368 1353.24C926.892 1346.74 921.63 1344.01 933.114 1344.34L933.151 1333.51L944.444 1333.44C944.743 1329.74 945.037 1326.65 944.919 1322.94L954.723 1322.39C954.869 1315.19 954.939 1309.34 954.51 1302.16L945.353 1302.06C945.118 1298.68 944.939 1294.63 944.42 1291.34L928.706 1291.18C928.667 1294.26 928.949 1297.46 927.724 1300.18C924.65 1300.47 922.604 1300.16 920.565 1301.92L919.486 1309.14C915.652 1310.62 915.344 1308.2 912.925 1310.5C912.581 1313.59 913.053 1314.99 911.226 1316.62C908.53 1317.04 908.054 1316.64 906.351 1318.29C904.308 1324.74 905.008 1338.87 905.097 1346.32C902.276 1346.29 899.162 1345.83 897.056 1347.35C895.835 1349.75 896 1352.37 895.871 1355.13C883.537 1360.1 890.755 1363 885.331 1366.85C882.718 1367.3 881.18 1367.27 878.581 1367.28C878.444 1372.41 877.611 1385.84 879.345 1390.12C881.832 1391.09 882.062 1391.32 884.625 1391.05C890.678 1385.75 881.116 1380.82 895.384 1380.49ZM480.937 1398.75L480.882 1410.46C491.608 1410.54 502.382 1410.63 513.08 1409.71C513.241 1412.8 513.339 1416.5 513.643 1419.52C532.667 1419.5 559.612 1420.28 578.035 1419.36L578.516 1417.69L578.338 1408.52C560.604 1408.54 529.849 1407.62 513.041 1409.3L512.882 1396.35L568.696 1396.36C568.707 1389.04 567.02 1379.58 573.984 1375.69C575.418 1373.23 574.825 1370.12 574.664 1367.1C570.096 1367.12 561.816 1367.94 559.013 1364.02C553.849 1356.79 547.178 1358.57 538.902 1358.96C538.632 1361.72 538.786 1363.91 537.041 1365.91C533.34 1366.31 533.298 1364.93 529.441 1366.77C526.757 1370.6 529.949 1370.78 526.722 1373.32C523.496 1373.38 520.638 1372.79 518.526 1374.38C517.975 1378.09 518.838 1379.81 516.94 1381.65C513.966 1382.08 511.043 1381.89 509.391 1383.69C509.308 1386.69 509.826 1387.54 508.235 1389.54C504.57 1389.96 501.891 1389.8 498.218 1389.68C497.953 1392.51 497.739 1395.76 497.279 1398.53C491.833 1398.67 486.385 1398.74 480.937 1398.75ZM690.334 1024.39C690.318 1029.47 689.933 1034.82 691.745 1039.49C694.865 1042.32 698.549 1038.59 701.203 1036.17C704.793 1032.89 704.363 1033.56 708.853 1033.28C709.056 1023.75 708.961 1013.87 708.999 1004.3L718.534 1004.05C719.18 995.018 718.886 983.46 718.896 974.236L727.96 974.076L728.123 951.769L736.882 951.648C737.288 942.48 737.108 931.893 737.173 922.617L746.355 922.542C747.23 913.677 746.99 905.349 746.955 896.456L756.203 896.332L756.289 847.542L766.147 847.445C767.392 827.012 766.506 796.315 766.523 775.002L757.727 774.728L757.724 740.283L746.324 740.165C745.434 743.026 745.476 744.633 742.959 746.478C739.054 746.673 736.806 746.879 733.529 749.272C732.831 750.957 732.804 751.129 732.57 752.97L732.515 753.427C728.971 756.362 720.587 755.313 715.725 755.173L715.576 763.626C708.565 763.84 693.676 763.971 687.118 765.545C689.906 767.5 692.096 767.931 693.553 770.415L692.467 771.752C683.835 775.254 687.215 768.977 679.181 768.907C676.985 770.333 677.606 770.136 676.371 773.052C673.129 775.223 624.38 773.42 615.419 773.426C615.027 763.984 615.38 751.274 615.397 741.62L596.3 741.649C595.77 755.927 596.133 772.237 596.13 786.666L587.302 786.816C586.761 810.59 587.051 835.576 587.016 859.435L577.494 859.507C576.773 872.624 577.076 886.138 577.178 899.296L567.703 899.376C567.879 906.528 567.831 913.882 567.866 921.053L558.495 921.41L558.379 939.034L549.202 938.914L549.118 955.921L540.157 956.185L539.445 966.76C535.878 966.702 530.497 966.31 527.426 967.627C526.271 969.76 526.692 969.497 526.786 972.328C530.068 975.847 534.504 971.11 538.844 972.434C540.673 975.064 541.132 976.075 544.361 976.301C554.33 976.998 564.739 976.588 574.73 976.53C574.733 979.216 574.555 982.87 576.187 984.911C581.178 985.997 604.544 985.487 611.165 985.465L611.496 993.682L639.194 993.632C639.265 996.559 639.121 998.728 640.08 1001.5C644.413 1001.52 646.733 1001.65 650.619 1003.87C654.035 1005.82 656.821 1005.59 660.361 1006.87L661.009 1007.11C665.148 1007.85 667.073 1007.52 669.741 1010.2L670.647 1013.67C672.961 1015.78 676.373 1014.26 679.389 1015.39C680.885 1018.05 680.442 1021.03 680.397 1024.22L690.334 1024.39ZM632.462 1052.84L632.566 1042.71C635.674 1042.64 639.036 1042.62 642.116 1042.45C642.015 1039.77 641.477 1035.33 643.361 1033.35C650.858 1033.72 651.495 1032.6 651.527 1025.24C654.201 1021.7 655.773 1025.17 659.116 1022.88C659.619 1019.88 659.757 1021.06 658.772 1018.34C652.788 1012.78 637.487 1017.9 631.198 1013.5C631.027 1013.38 630.637 1010.32 630.612 1009.6C630.587 1008.68 630.576 1007.76 630.579 1006.84C621.718 1007.01 612.856 1007.08 603.993 1007.04C603.85 1004.32 603.748 1001.39 603.543 998.685C596.794 998.957 578.477 997.583 574.478 999.582C573.374 1002.34 573.454 1005.67 573.326 1008.68C570.25 1008.77 567.266 1008.42 564.896 1010.1C560.956 1016.71 561.351 1016.37 553.843 1016.66L553.065 1032.63C550.242 1032.58 547.122 1032.08 545 1033.59L544.885 1034.47C544.105 1040.23 543.109 1042.83 537.178 1043.9C534.584 1047.55 535.462 1058.47 535.54 1063.33L526.299 1063.47C526.224 1070.79 526.018 1078.53 526.148 1085.8L516.767 1085.76C516.804 1105.83 517.271 1127.6 516.676 1147.54C513.529 1147.7 510.051 1147.81 506.943 1148.08C506.977 1172.16 508.088 1208.31 506.553 1231.51L495.73 1231.64C495.628 1256.77 495.66 1281.91 495.827 1307.04L484.186 1307.16C484.109 1315.84 483.852 1325.1 484.456 1333.71C492.017 1333.62 532.869 1332.78 537.588 1334.94L539.438 1338.75C546.06 1340.68 561.55 1338.11 569.458 1338.02L569.525 1350.59C573.175 1350.52 577.03 1350.37 580.661 1350.43L581.272 1358.88L592.658 1358.84C592.947 1341.14 592.97 1323.43 592.727 1305.73L602.922 1305.28C603.131 1283.32 603.472 1257.83 602.515 1235.95L612.141 1235.76L612.113 1135.6L624.905 1135.51L624.999 1124.43C622.061 1124.41 618.974 1124.71 616.417 1123.5C614.827 1121.47 614.312 1121.15 614.113 1118.72C616.185 1115.39 620.629 1115.56 624.378 1115.02C625.405 1113.03 625.124 1108.78 625.152 1106.31C627.913 1106.02 631.174 1105.58 633.909 1105.56L633.98 1081.57L642.538 1081.33C642.877 1078.51 643.218 1074.83 643.705 1072.09C647.321 1071.82 648.874 1072.31 651.521 1070.5C652.394 1067.84 652.212 1065.28 652.244 1062.45L660.645 1061.95L660.87 1052.32L670.609 1052.53C671.001 1056.39 670.895 1060.84 675.699 1060.76C681.758 1057.23 682.405 1052.47 688.264 1052.78C689.956 1054.28 690 1054.33 690.74 1056.43C689.682 1061.24 683.933 1058.99 680.647 1062.4C680.217 1064.8 680.195 1063.84 680.983 1066.16C684.772 1069.17 688.884 1065.11 689.35 1073.08C689.887 1082.26 688.798 1091.1 689.4 1100.33L698.32 1100.36C698.213 1104.37 698.051 1108.42 698.079 1112.43C698.115 1117.57 697.973 1118.71 702.246 1121.58C704.358 1126.86 699.905 1132.25 704.124 1137C706.076 1137.37 707.062 1137.54 708.934 1138.17C710.423 1140.6 710.775 1141.78 710.09 1144.61C709.843 1145.61 709.565 1146.59 709.258 1147.57C710.95 1149.72 713.749 1149.06 716.44 1148.93L716.938 1159.52L726.051 1159.72L726.078 1169.32L736.02 1169.44C736.039 1175.38 735.873 1183.01 736.255 1188.79L747.213 1189.05C747.167 1191.98 746.676 1195.41 748.146 1197.7C750.688 1198.96 753.426 1198.6 756.36 1198.57C762.357 1214.76 769.39 1197.16 769.274 1215.75L779.451 1215.77L779.737 1225.5L789.225 1225.66C789.3 1231.02 789.218 1238.31 789.634 1243.5L798.073 1244.39L798.022 1257.52L807.157 1257.57L807.22 1268.88L815.558 1269.68L815.354 1286.23L824.402 1286.26C824.234 1291.37 824.053 1295.48 824.459 1300.61C827.445 1300.49 830.989 1299.94 833.452 1301.26L833.587 1302.19L833.868 1304C834.702 1309.61 839.738 1310 843.941 1310.56C845.837 1313.07 845.434 1315.3 845.733 1318.36L882.855 1318.35C883.016 1314.43 882.424 1313.35 884.218 1310.47C893.396 1307.53 891.994 1310.88 895.963 1301.37C899.116 1301.29 903.066 1301.07 906.144 1301.21L906.527 1291.46L915.259 1291.4C915.377 1283.46 915.4 1275.51 915.329 1267.57L904.838 1267.57L904.755 1256.47L915.242 1256.41L915.329 1267.57L924.951 1267.54L925.051 1277.93L935.019 1278.02L935.19 1257.6L924.83 1257.39C924.963 1250.7 924.743 1244.42 924.516 1237.73L916.56 1237.45C916.493 1231.88 918.119 1223.21 915.366 1218.78C914.02 1216.62 911.063 1216.47 908.512 1215.87L908.364 1205.22L900.042 1204.65C900.112 1199.8 901.346 1194.58 897.168 1191.6C895.283 1191.65 894.687 1191.8 892.94 1191.02C891.594 1188.73 891.447 1183.83 891.172 1180.97C889.581 1180.18 884.252 1180.48 882.129 1180.51L882.085 1169.86L871.244 1169.52L870.968 1160.29L861.493 1160.01C861.245 1157.04 860.691 1153.86 860.246 1150.9C847.28 1151.67 842.498 1153.61 841.605 1138.65L831.288 1138.65L831.177 1128.7L820.624 1128.62L820.414 1119.73L807.991 1119.66L807.856 1110.73C806.504 1110.78 800.255 1111.01 799.6 1110.67C788.243 1104.85 793.487 1102.89 780.358 1103.42L780.216 1055.26L770.629 1054.97C771.724 1038.56 770.684 1021.3 771.075 1004.79C771.172 1000.69 771.865 974.545 769.627 972.977L768.242 973.434C767.818 976.773 768.152 978.85 766.079 981.643C763.634 983.516 761.337 983.314 758.172 983.555C757.468 1008.33 757.682 1035.02 757.823 1059.83L747.181 1059.7C747.635 1046.22 747.885 1017.29 746.405 1004.34L736.865 1004.31L736.603 1014.38C732.714 1014.53 730.363 1014.57 727.026 1016.55C724.36 1021.57 732.477 1022.03 733.28 1029.31C731.752 1031.44 732.617 1030.8 730.034 1031.57C725.648 1029.99 727.901 1025.07 723.687 1022.16L722.207 1022.56C717.427 1028.12 718.517 1035.44 718.577 1042.7C723.433 1043.37 726.955 1043.22 727.278 1048.97C726.648 1050.22 725.638 1051.9 724.123 1052.06C716.955 1052.83 721.274 1047.9 716.337 1044.27C713.229 1044 714.398 1043.72 711.845 1045.16C710.476 1047.24 710.437 1047.53 710.539 1050.02C711.735 1051.93 714.81 1052.67 717.528 1054.65C718.874 1060.7 704.839 1060.55 701.767 1063.22C701.766 1063.22 699.905 1066.18 699.757 1066.42C697.154 1067.88 692.533 1068.03 690.713 1065.34C692.84 1059.05 696.741 1063.84 700.452 1057.85C700.805 1055.06 701.005 1056.14 699.81 1053.73C697.593 1052.03 694.937 1053.1 691.183 1052.33C689.432 1049.89 690.903 1048.73 689.717 1045.05L680.434 1044.16C680.484 1047.03 680.843 1048.78 679.351 1051.18C676.947 1053.1 673.775 1052.65 670.609 1052.53C670.859 1048.44 670.473 1047.19 672.642 1044.25C675.346 1043.14 677.467 1043.76 680.434 1044.16C680.513 1041.67 681.063 1037.35 679.802 1035.52C665.843 1033.18 672.582 1027.3 663.476 1028.49C659.956 1031.24 661.778 1032.26 659.949 1033.78C658.248 1035.19 654.383 1033.01 651.811 1035.22C651.452 1038.25 651.798 1041.52 650.521 1043.63C647.963 1044.38 647.269 1044.21 644.54 1044.11C642.678 1045.62 642.221 1049.24 641.986 1051.53L641.926 1052.17C639.656 1053.71 636.909 1053.78 634.102 1054.18C633.793 1056.92 633.352 1060.03 633.281 1062.75C629.754 1062.79 624.792 1063.61 622.594 1061.98C620.641 1051.69 624.584 1052.5 632.462 1052.84ZM812.406 1371.88C812.348 1374.99 812.673 1378.3 810.909 1380.77C807.043 1383.43 806.846 1383.04 806.063 1386.91C806.769 1389.18 808.124 1389.93 809.997 1391.47C811.41 1399.25 811.622 1398.17 820.31 1398.25C829.228 1398.34 838.24 1398.05 847.165 1397.9L867.929 1397.59C870.1 1378.18 863.058 1387.55 861.862 1372.93C860.098 1370.73 856.31 1371.02 853.742 1371.09C851.668 1368.81 852.045 1366.55 852.105 1363.28C844.496 1363.27 834.909 1363.51 827.49 1362.88L827.357 1372.28L812.406 1371.88ZM280.545 1268.85L280.553 1281.25C283.528 1281.23 296.746 1281.27 298.836 1280.81C298.928 1276.68 298.956 1273.04 298.808 1268.9L280.545 1268.85ZM414.473 1269.05C414.331 1273.01 414.113 1277.16 414.22 1281.11L435.821 1281.02L435.838 1269.02L414.473 1269.05ZM965.599 1339.56C965.623 1336.48 965.743 1332.8 965.563 1329.78C962.29 1329.36 958.973 1328.86 955.683 1328.77C955.867 1332.25 955.986 1336.07 956.262 1339.52L965.599 1339.56ZM615.246 364.542C615.031 360.813 615.573 360.831 613.804 357.986C611.269 356.803 609.452 357.001 606.647 356.928C606.701 359.595 606.372 361.831 607.918 363.826C610.388 364.971 612.477 364.627 615.246 364.542ZM640.419 340.29C640.529 343.117 640.223 344.966 641.972 347.053C644.536 348.281 646.173 348.027 649.024 348.031C649.032 345.397 649.389 343.217 647.974 341.14C645.79 339.751 643.163 340.212 640.419 340.29ZM631.844 364.565C631.784 361.728 632.128 359.666 630.389 357.602C627.77 356.424 626.201 356.734 623.323 356.828C623.446 359.548 623.198 361.418 624.731 363.574C626.9 364.985 629.138 364.601 631.844 364.565ZM615.085 348.547C615.293 351.507 615.049 353.625 616.955 355.729C619.392 356.827 621.098 356.319 623.803 356.001C623.653 352.222 624.206 352.243 622.496 349.373C619.918 348.123 617.979 348.461 615.085 348.547ZM812.57 767.304L825.41 767.167C826.337 757.674 828.991 749.876 818.754 745.17C811.06 755.635 805.855 744.798 805.525 758.382L788.457 758.334L788.146 767.575L777.31 767.992C776.282 773.235 776.23 778.111 776.1 783.395C775.862 793.071 776.305 792.933 785.558 792.767L787.273 792.016C788.007 789.54 787.903 789.041 787.879 786.403C791.453 781.243 797.075 788.404 798.901 777.852C801.595 776.082 808.974 776.753 812.394 776.829L812.57 767.304ZM492.558 1366.44C492.752 1363.05 492.994 1359.77 492.89 1356.36L481.29 1356.34C480.7 1360.6 480.645 1362.13 480.774 1366.44L492.558 1366.44ZM887.334 1418.37L887.445 1409.46L796.569 1409.59C796.355 1412.5 796.077 1415.47 796.128 1418.38L887.334 1418.37ZM683.591 368.182C681.049 368.132 679.792 367.896 677.458 368.919C675.689 370.906 675.959 372.867 675.787 375.65C673.359 375.583 671.817 375.209 669.977 376.636C668.733 378.919 669.231 381.371 669.39 384.09C671.854 383.863 673.385 384.04 675.136 382.403C676.247 380.1 675.89 378.255 675.787 375.65C678.44 375.755 680.326 376.179 682.484 374.812C683.892 372.665 683.575 370.828 683.591 368.182ZM683.414 407.462C683.356 404.836 683.659 403.153 682.087 401.16C679.532 400.031 678.155 400.311 675.364 400.397C675.297 402.921 674.887 404.902 676.24 406.884C678.315 408.226 680.79 407.647 683.414 407.462ZM926.309 1357.25C926.189 1359.87 926.4 1363.99 925.061 1365.95C923.507 1366.3 919.782 1366.52 919.393 1367.16C918.013 1369.44 919.348 1371.13 917.512 1373.11L912.104 1373.36C910.057 1376.73 912.713 1378.19 910.78 1380.66L906.501 1381.04C903.971 1384.49 907.67 1389.05 903.329 1389.61C899.683 1390.09 899.482 1388.69 896.254 1390.36C895.311 1393.58 895.846 1396.89 893.948 1397.43C891.088 1398.24 890.096 1397 888.318 1399.11C887.997 1402.22 887.475 1405.88 889.383 1408.32C892.257 1408.97 894.463 1408.65 897.397 1408.47C897.313 1405.62 896.891 1400.94 897.828 1398.46C900.736 1398.13 903.669 1398.28 905.586 1396.57C906.013 1393.77 905.727 1392.27 907.344 1390.47C910.45 1389.99 913.993 1390.26 915.638 1388.59C915.946 1385.76 915.554 1381.93 917.018 1380.6C920.151 1380.32 921.343 1380.83 923.145 1379.04C923.234 1376.82 923.167 1375.67 923.789 1373.56C928.039 1372.01 927.9 1374.42 930.847 1372.12C931.167 1369.29 930.688 1368.8 932.415 1367.29C935.393 1367.22 936.289 1367.72 938.342 1366.19C938.607 1363.11 937.952 1359.54 939.123 1357.64C942.465 1357.41 944.804 1357.74 946.99 1355.74C947.541 1352.34 947.125 1351.15 949.326 1349.41C951.44 1349.39 953.24 1349.35 955.348 1349.18C956.297 1347.06 955.943 1341.49 955.917 1338.85L945.898 1338.72L945.537 1348.51L934.795 1348.59L934.634 1357.16L926.309 1357.25ZM698.486 375.596C698.602 372.835 698.92 371.385 697.758 368.89C695.733 367.231 694.486 367.52 691.806 367.473C691.77 364.903 691.994 363.838 690.676 361.702C688.558 360.267 686.278 360.629 683.592 360.633C683.481 358.238 683.522 358.12 682.24 356.179C679.863 354.831 677.55 355.288 674.712 355.415C675.062 357.716 675.093 357.811 676.21 359.83C678.303 361.284 680.864 360.757 683.592 360.633C683.479 363.147 683.135 364.409 684.491 366.478C686.505 367.937 689.243 367.631 691.806 367.473C691.4 370.039 690.878 371.409 692.008 373.689C693.966 375.435 695.791 375.292 698.486 375.596ZM651.293 348.138C648.805 348.818 649.779 348.149 648.245 350.177C648.884 355.198 650.981 355.764 655.624 356.304C657.484 354.494 656.902 355.184 657.538 352.259C656.847 350.122 656.75 350.087 654.912 348.667L651.293 348.138ZM649.124 331.746C649.048 334.668 648.825 336.677 650.543 338.86C654.757 338.91 655.918 338.993 657.941 342.523C657.735 344.529 657.369 345.582 658.457 347.235C660.952 348.522 662.715 348.217 665.483 348.115C665.158 351.402 664.96 352.463 666.817 354.868C669.374 355.955 671.631 355.349 674.477 355.008C674.512 352.5 674.852 351.024 673.36 349.103C670.873 347.661 668.46 348.063 665.483 348.115C665.671 345.125 665.971 343.007 664.547 340.578C660.665 340.446 659.576 340.397 657.27 337.452C657.245 335.259 657.491 334.111 656.349 332.366C653.651 331.055 652.142 331.49 649.124 331.746ZM757.81 1060.51C758.392 1063.62 758.555 1062.46 757.536 1065.13C754.498 1068.05 751.093 1068.11 748.218 1064.93L747.092 1061.37C751.015 1060.92 753.43 1061.37 757.81 1060.51ZM813.974 739.615C814.005 734.458 815.061 725.109 812.045 721.636C810.113 721.487 808.739 721.474 806.799 721.492C803.996 718.591 807.392 716.518 804.523 712.506C801.937 711.687 801.661 711.44 799.139 712.047C796.895 714.997 798.111 716.285 796.38 720.558C793.268 722.65 792.184 720.842 789.145 722.13C785.864 723.52 786.821 726.945 784.867 729.764C782.103 731.125 779.034 730.553 775.821 730.372C775.631 733.032 775.856 735.371 774.18 737.23C771.823 738.263 770.438 738.02 767.867 737.977C767.666 745.046 766.463 756.798 770.494 762.475C776.613 765.899 776.619 760.943 777.911 757.369C780.055 756.264 784.023 756.824 787.016 756.725C788.114 755.111 787.914 749.979 787.965 747.769L804.545 747.676C804.786 745.094 804.824 741.589 804.925 738.924L813.974 739.615ZM623.321 373.507C623.536 376.087 623.343 377.807 624.983 379.694C627.286 380.924 629.189 380.541 631.866 380.443C631.697 376.844 632.283 376.481 630.432 373.948C627.74 373.188 626.095 373.418 623.321 373.507ZM649.505 315.67C649.409 312.92 649.685 311.254 648.037 309.136C645.782 307.889 643.845 308.202 641.203 308.214C641.255 310.794 640.945 312.677 642.415 314.666C644.532 316.033 646.862 315.678 649.505 315.67ZM658.279 307.913C658.335 310.607 658.026 312.692 659.556 314.77C661.786 316.015 663.719 315.67 666.346 315.624C666.257 312.861 666.576 310.922 664.903 308.876C662.249 307.726 661.147 307.924 658.279 307.913ZM493.086 1366.48L492.998 1375.52L480.836 1376L480.455 1366.92L461.922 1366.85L462.116 1376.86L478.543 1378.22L478.827 1386.7L495.915 1386.72L495.998 1376.48L508.584 1376.39L508.562 1366.52C511.315 1366.68 512.455 1366.85 515.221 1366.22C515.804 1365.52 516.343 1364.92 516.715 1364.09C519.45 1357.96 523.223 1361.76 527.042 1358.64C527.17 1356.07 527.267 1355.62 525.779 1353.58C521.487 1350.62 514.995 1351.91 509.659 1352.31C506.976 1350.39 509.494 1348.3 507.383 1345.88C502.759 1344.62 499.862 1344.5 497.872 1349.26C499.016 1355.57 503.223 1354.67 508.527 1354.56L508.562 1366.52L493.086 1366.48ZM631.804 331.551C631.812 328.91 632.157 327.086 630.719 324.979C628.55 323.608 626.702 323.974 624.051 324.021C623.946 326.699 623.527 328.428 624.994 330.557C627.257 331.93 629.089 331.584 631.804 331.551ZM641.36 324.012C641.328 326.866 640.908 328.786 642.593 330.927C644.687 332.059 647.153 331.722 649.501 331.245C649.304 328.523 649.555 326.602 647.78 324.711C645.413 323.734 643.918 323.971 641.36 324.012ZM572.569 741.284C568.808 741.727 569.538 741.134 566.734 743.175L566.062 744.763C568.945 751.274 574.113 750.401 580.079 750.047C582.95 749.822 582.013 750.311 583.826 748.492C584.429 744.173 581.38 741.536 577.244 741.335C575.687 741.274 574.127 741.257 572.569 741.284ZM631.804 348.081C631.785 345.266 632.162 343.151 630.473 341.084C628.143 340.002 626.008 340.32 623.383 340.377C623.488 343.129 623.193 345.24 624.861 347.262C627.263 348.483 629.07 348.149 631.804 348.081ZM857.367 1352.75L857.087 1353.54C858.171 1353.51 859.126 1353.49 860.214 1353.41C860.441 1355.79 860.479 1357.21 860.432 1359.61C864.574 1360 868.339 1360.08 872.48 1360.17C872.846 1355.39 872.779 1349.56 872.85 1344.7L886.399 1344.82C886.506 1342.43 886.641 1341.04 887.023 1338.69C888.843 1335.9 890.986 1335.36 894.108 1333.99C897.166 1328.42 893.753 1323.25 887.182 1325.7C884.767 1328.79 886.386 1329.94 884.853 1333.71C881.779 1334.71 876.762 1334.36 873.336 1334.32L873.054 1343.23C870.073 1343.11 867.365 1342.66 864.763 1343.9C862.563 1346.88 863.768 1346.79 862.651 1350.97C860.157 1352.89 861.124 1352.28 857.367 1352.75ZM655.775 323.34C657.08 322.539 657.849 321.093 657.784 319.563C657.718 318.033 656.829 316.659 655.46 315.972C654.091 315.285 652.457 315.393 651.191 316.255C649.296 317.545 648.777 320.111 650.022 322.035C651.267 323.96 653.821 324.539 655.775 323.34ZM635.169 315.978C632.802 316.989 633.709 316.214 632.335 318.367C632.914 321.399 632.476 320.266 635.094 322.921C637.137 323.521 637.69 323.576 639.826 323.783C641.129 321.99 640.976 321.573 641.077 319.238C639.28 316.143 638.885 316.174 635.169 315.978ZM640.702 339.398C640.533 335.762 641.062 335.683 639.374 332.893C636.789 331.807 635.004 332.108 632.191 332.184C632.471 335.943 631.912 335.899 633.732 338.671C636.331 339.857 637.837 339.526 640.702 339.398ZM623.485 339.782C623.343 336.303 623.858 335.684 622.233 332.98C619.89 331.832 617.853 332.11 615.192 332.106C615.229 334.854 614.891 336.696 616.495 338.801C619.007 340.093 620.641 339.805 623.485 339.782ZM689.623 337.889C691.051 336.457 691.142 334.169 689.833 332.628C688.523 331.086 686.251 330.805 684.605 331.982C683.412 332.835 682.801 334.287 683.024 335.736C683.248 337.186 684.267 338.386 685.662 338.841C687.056 339.296 688.588 338.928 689.623 337.889ZM683.533 392.332C683.525 389.655 683.892 387.442 682.37 385.413C679.948 384.217 678.384 384.462 675.672 384.455C675.827 388.222 675.265 388.77 676.972 391.595C679.411 392.619 680.891 392.375 683.533 392.332ZM674.404 339.58C674.196 342.859 674.026 344.106 675.527 346.63C677.94 347.842 679.866 347.403 682.627 347.235C682.591 344.617 682.921 342.491 681.423 340.506C679.19 339.135 677.118 339.517 674.404 339.58C674.625 336.512 675.107 334.332 673.245 332.096C669.327 332.114 667.795 332.525 665.424 329.164C665.358 327.2 665.542 325.935 664.466 324.318C661.976 323.035 660.257 323.508 657.416 323.757C657.12 327.078 656.624 328.63 658.889 331.098C661.515 330.935 662.335 330.633 664.53 331.824C667.069 334.58 665.921 335.518 667.056 338.788C669.52 340.145 671.525 339.722 674.404 339.58ZM640.592 356.282C640.546 358.904 640.307 360.232 641.342 362.649C644.122 364.595 644.264 364.036 648.092 364.466C648.144 361.825 648.569 359.379 647.169 357.323C645.065 355.925 643.209 356.27 640.592 356.282C640.602 353.472 640.934 351.813 639.395 349.53C637.181 348.099 635.082 348.472 632.343 348.512C632.334 351.129 631.961 353.15 633.405 355.183C635.526 356.617 637.901 356.268 640.592 356.282Z"/><path fill="#393839" transform="matrix(0.333984 0 0 0.333333 1.52588e-05 0)" d="M508.334 325.52C509.306 325.549 513.017 325.589 513.744 325.736C513.771 329.319 513.708 333.304 513.841 336.847L507.697 336.929L508.334 325.52Z"/><path transform="matrix(0.333984 0 0 0.333333 1.52588e-05 0)" d="M704.459 831.892C706.557 831.779 710.585 831.508 712.416 832.305C714.759 833.324 715.271 838.066 714.065 840.231C711.856 841.846 709.322 840.776 705.519 841.759C704.062 843.629 704.44 847.02 704.398 849.638L693.777 849.723C693.816 852.285 693.622 855.235 693.519 857.829C685.63 857.661 681.112 855.757 678.546 864.032C674.566 867.198 667.856 866.008 662.589 865.755C662.443 869.482 662.75 871.169 660.513 873.8C654.54 873.555 650.044 874.183 649.977 880.967C646.746 883.696 638.369 882.72 633.762 882.622L633.216 890.423L618.969 890.508L618.791 899.387L607.463 899.543C604.791 899.592 603.198 899.774 600.616 898.913C599.346 897.387 599.117 895.451 599.308 893.575C600.21 884.744 611.008 892.966 616.764 888.225C616.729 885.773 616.636 885.54 617.556 883.336C621.545 880.056 627.576 881.079 632.828 881.272L633.151 872.486C637.49 872.546 645.301 873.419 648.248 870.561C649.478 861.761 654.334 866.568 660.336 864.412C662.224 863.734 662.292 857.927 663.13 857.61C668.54 855.566 673.569 859.312 678.373 855.164C678.698 852.996 678.797 852.512 679.524 850.454C682.93 847.494 688.392 848.575 693.018 848.854L693.118 840.359L703.614 840.257C704.062 837.644 704.233 834.566 704.459 831.892Z"/><path transform="matrix(0.333984 0 0 0.333333 1.52588e-05 0)" d="M658.171 775.378C664.954 776.24 665.196 775.026 667.776 781.545C664.91 781.7 662.598 782.109 659.981 781.068C658.246 779.267 658.423 777.926 658.171 775.378Z"/><path transform="matrix(0.333984 0 0 0.333333 1.52588e-05 0)" d="M675.406 775.395C678.24 775.269 680.876 774.897 683.519 775.774C684.8 777.991 684.362 777.393 683.899 780.596C681.321 781.087 680.304 781.508 677.775 780.738C675.593 778.447 676.201 778.851 675.406 775.395Z"/><path transform="matrix(0.333984 0 0 0.333333 1.52588e-05 0)" d="M642.172 776.255C645.016 776.037 646.05 775.814 648.879 776.453C650.722 778.785 650.141 777.888 650.489 781.557C647.692 781.667 646.484 781.871 643.746 781.126C642.086 779.048 642.599 779.335 642.172 776.255Z"/><path transform="matrix(0.333984 0 0 0.333333 1.52588e-05 0)" d="M650.384 782.992C653.182 782.853 654.333 782.638 657.076 783.376C658.684 785.443 658.269 785.803 658.605 788.659C656.047 788.683 654.86 788.754 652.318 788.2C650.454 786.188 650.912 785.985 650.384 782.992Z"/><path transform="matrix(0.333984 0 0 0.333333 1.52588e-05 0)" d="M667.225 783.121C669.729 783.078 670.709 783.117 673.182 783.484C675.558 785.545 674.884 785.052 675.951 788.403C673.112 788.602 672.024 788.832 669.218 788.146C667.362 786.17 667.808 786.031 667.225 783.121Z"/><path transform="matrix(0.333984 0 0 0.333333 1.52588e-05 0)" d="M636.925 783.145C638.503 782.313 640.456 782.865 641.366 784.399C642.276 785.933 641.822 787.91 640.335 788.895C639.305 789.577 637.983 789.637 636.896 789.049C635.809 788.462 635.134 787.324 635.14 786.089C635.146 784.853 635.832 783.722 636.925 783.145Z"/><path transform="matrix(0.333984 0 0 0.333333 1.52588e-05 0)" d="M626.613 774.964C628.901 775.209 629.813 775.362 632.03 775.972C634.017 778.466 633.458 778.24 633.99 781.784C632.608 781.583 631.041 781.21 629.654 780.916C627.156 778.528 627.762 778.635 626.613 774.964Z"/><path transform="matrix(0.333984 0 0 0.333333 1.52588e-05 0)" d="M611.479 1073.36C611.718 1068.79 611.339 1063.39 617.012 1062.21C622.26 1063.71 621.689 1069.65 621.461 1073.85L611.315 1073.87L611.293 1084.48L601.34 1084.45C600.789 1091.91 600.746 1099.73 601.045 1107.23C601.368 1115.33 604.801 1113.18 608.596 1117.99C609.167 1120.26 608.944 1120.45 607.97 1122.73C605.799 1124.06 602.94 1123.7 600.242 1123.71C600.304 1120.45 600.659 1118 598.529 1115.66C595.836 1114.31 593.57 1114.66 590.506 1114.71L590.509 1115.17C590.499 1122.72 591.842 1124.9 600.242 1123.71C600.009 1131.64 599.918 1139.56 599.971 1147.49C596.898 1147.56 592.703 1147.53 589.736 1147.77C589.91 1139.79 589.888 1131.8 589.671 1123.82L579.886 1123.56L579.902 1110.78C575.271 1110.78 571.331 1111.09 568.905 1106.63C571.799 1100.37 584.664 1101.37 590.256 1101.68C590.089 1095.92 590.263 1090.89 590.481 1085.15C593.805 1085.13 597.585 1084.64 600.93 1084.28C601.314 1081.08 601.309 1077.12 601.39 1073.83L611.479 1073.36Z"/><path transform="matrix(0.333984 0 0 0.333333 1.52588e-05 0)" d="M589.736 1147.77C588.809 1170.64 589.822 1201.01 589.956 1224.31L579.081 1224.43L579.133 1148.24C583.223 1148.28 585.702 1148.33 589.736 1147.77Z"/><path transform="matrix(0.333984 0 0 0.333333 1.52588e-05 0)" d="M569.484 1236.24L579.556 1236.32C580.529 1254.65 579.902 1278.04 579.832 1296.78L569.382 1296.7C570.167 1278.47 569.3 1255.06 569.484 1236.24Z"/><path transform="matrix(0.333984 0 0 0.333333 1.52588e-05 0)" d="M558.957 1306.31L569.085 1306.46L569.113 1326.03L558.735 1326.09C558.99 1319.71 558.911 1312.74 558.957 1306.31Z"/><path transform="matrix(0.333984 0 0 0.333333 1.52588e-05 0)" d="M662.393 1034.32C666.657 1034.39 668.259 1034.05 670.384 1038.03C670.153 1040.34 670.303 1041.22 668.952 1042.96C667.24 1043.01 666.215 1042.84 664.545 1042.62C662.176 1040.4 662.657 1038.03 662.393 1034.32Z"/><path transform="matrix(0.333984 0 0 0.333333 1.52588e-05 0)" d="M632.608 1023.77C635.354 1023.63 637.142 1023.32 639.752 1024.19C641.323 1026.73 640.758 1027.25 640.743 1030.64C638.076 1030.49 636.909 1030.53 634.33 1029.6C632.459 1027.16 633 1027.25 632.608 1023.77Z"/><path transform="matrix(0.333984 0 0 0.333333 1.52588e-05 0)" d="M641.092 1016.81C644.033 1016.65 646.118 1016.26 648.833 1017.33C650.464 1019.59 649.955 1019.48 649.996 1022.61C647.181 1022.88 646.136 1023.15 643.346 1022.48C641.148 1020.09 641.77 1020.45 641.092 1016.81Z"/><path transform="matrix(0.333984 0 0 0.333333 1.52588e-05 0)" d="M623.001 1016.06C625.562 1016.07 626.485 1016.15 629.003 1016.61C631.537 1018.87 630.932 1018.78 632.168 1022.36C629.372 1022.44 627.306 1022.74 624.709 1021.75C622.931 1019.31 623.398 1019.24 623.001 1016.06Z"/><path transform="matrix(0.333984 0 0 0.333333 1.52588e-05 0)" d="M598.259 1008.54C601.402 1008.59 602.354 1008.6 603.507 1011.63C602.868 1013.95 602.542 1014.01 600.534 1015.58C597.645 1015.43 596.69 1015.25 595.421 1012.59C596.246 1009.83 595.769 1010.84 598.259 1008.54Z"/><path transform="matrix(0.333984 0 0 0.333333 1.52588e-05 0)" d="M613.702 1008.64C616.305 1008.94 617.76 1009.08 620.33 1009.78C622.083 1011.82 621.521 1011.34 621.792 1014.64C619.188 1014.77 617.214 1015.11 614.788 1014.24C613.167 1011.83 613.69 1011.87 613.702 1008.64Z"/><path transform="matrix(0.333984 0 0 0.333333 1.52588e-05 0)" d="M585.181 1002C587.99 1001.93 589.437 1001.63 591.963 1002.84C593.435 1005.26 593.107 1004.13 592.771 1007.45C589.993 1007.52 588.315 1007.8 585.739 1006.76C584.378 1004.34 584.741 1005.28 585.181 1002Z"/><path transform="matrix(0.333984 0 0 0.333333 1.52588e-05 0)" d="M578.98 1008.74C580.761 1008.51 582.418 1009.7 582.769 1011.46C583.12 1013.22 582.046 1014.95 580.312 1015.42C579.082 1015.75 577.771 1015.37 576.91 1014.43C576.049 1013.49 575.782 1012.15 576.217 1010.96C576.652 1009.76 577.718 1008.91 578.98 1008.74Z"/><path transform="matrix(0.333984 0 0 0.333333 1.52588e-05 0)" d="M604.626 1016.22C606.385 1016.29 608.035 1016.47 609.786 1016.65C611.856 1018.7 611.286 1018.51 611.809 1021.75C609.504 1021.67 608.426 1021.58 606.158 1021.18C604.471 1019.25 604.939 1019.1 604.626 1016.22Z"/><path transform="matrix(0.333984 0 0 0.333333 1.52588e-05 0)" d="M759.748 1107.9C761.297 1107.8 763.618 1108 764.437 1106.9C766.002 1104.78 767.683 1097.34 770.19 1096.1C772.747 1099.07 772.32 1103.63 772.325 1107.5L780.101 1109.29L780.16 1119.49L789.832 1119.64C789.75 1122.59 789.242 1125.65 790.712 1128C796.91 1132.22 799.361 1126.44 798.974 1138.51C795.539 1138.51 794.717 1139.05 792.022 1137.55L791.733 1136.81C790.779 1134.4 790.557 1133.56 788.234 1132.25C785.854 1131.94 784.567 1131.79 782.269 1131.16C781.08 1129.5 781.081 1128.34 780.711 1126.27C777.814 1124.3 766.701 1125.66 762.105 1125.53L761.342 1117.49C756.871 1117.3 749.042 1117.64 747.312 1112.33C748.836 1106.91 754.904 1107.76 759.326 1107.89L759.748 1107.9Z"/><path transform="matrix(0.333984 0 0 0.333333 1.52588e-05 0)" d="M858.496 1198.5C861.546 1198.38 864.24 1198.4 867.29 1198.45C868.7 1199.66 867.893 1202.74 868.694 1206.1C871.018 1207.98 872.976 1207.51 876.305 1207.48C878.107 1209.49 876.685 1211.47 877.343 1215.03C878.196 1219.65 882.479 1215.66 886.115 1217.88C886.244 1220.87 885.878 1225.28 888.158 1227.17C890.729 1226.99 891.155 1226.9 893.646 1227.37C895.874 1229.82 895.23 1229.2 895.934 1232.82L877.065 1232.96L877.037 1217.34L867.92 1217.17C868.046 1213.24 868.895 1210.87 865.964 1208.18C863.256 1207.59 862.471 1207.48 860.048 1206.18C858.404 1204.05 858.655 1201.35 858.496 1198.5Z"/><path transform="matrix(0.333984 0 0 0.333333 1.52588e-05 0)" d="M809.511 1148.32C812.384 1148.2 814.599 1147.78 817.092 1149.06C818.615 1151.39 817.951 1154.87 817.789 1157.89L828.083 1157.83L828.19 1168.12L838.219 1168.52L838.209 1177.35C835.298 1178.08 832.384 1178.61 829.657 1177.27C827.989 1173.72 829.803 1172.58 826.854 1169.19C824.256 1167.46 821.243 1167.93 817.947 1167.95C817.867 1165.96 817.775 1163.96 817.671 1161.97C816.582 1159.62 813.159 1158.33 810.485 1156.39C808.891 1153.76 809.374 1151.48 809.511 1148.32Z"/><path transform="matrix(0.333984 0 0 0.333333 1.52588e-05 0)" d="M757.776 1067.74L767.192 1067.8L767.203 1096L757.368 1095.65C757.815 1086.89 757.687 1076.58 757.776 1067.74Z"/><path transform="matrix(0.333984 0 0 0.333333 1.52588e-05 0)" d="M885.363 1236.51C899.187 1236.34 888.696 1243.03 904.025 1243.59C904.082 1248.01 904.133 1251.87 903.855 1256.31C900.921 1256.46 898.891 1256.76 896.05 1255.97C893.886 1253.48 894.721 1249.77 894.904 1246.08C891.9 1246.08 888.342 1246.54 886.065 1244.96C884.633 1242.62 885.22 1239.46 885.363 1236.51Z"/><path transform="matrix(0.333984 0 0 0.333333 1.52588e-05 0)" d="M848.434 1188.22L858.183 1188.41L858.419 1198.46L848.408 1198.47L848.434 1188.22Z"/><path transform="matrix(0.333984 0 0 0.333333 1.52588e-05 0)" d="M798.974 1138.51L808.739 1138.41L808.841 1148.39L798.915 1148.28L798.974 1138.51Z"/><path transform="matrix(0.333984 0 0 0.333333 1.52588e-05 0)" d="M838.216 1178.3L848.411 1178.35L848.434 1188.22L838.468 1187.95C838.374 1185.05 838.131 1181.11 838.216 1178.3Z"/><path transform="matrix(0.333984 0 0 0.333333 1.52588e-05 0)" d="M703.824 1070.21C707.415 1070.29 708.814 1069.92 710.026 1073.48C709.376 1076.01 708.857 1076.17 706.759 1077.98C703.842 1077.4 702.775 1077.04 701.382 1074.44C701.992 1071.57 701.528 1072.65 703.824 1070.21Z"/><path transform="matrix(0.333984 0 0 0.333333 1.52588e-05 0)" d="M713.165 1061.67C714.388 1061.06 715.854 1061.19 716.95 1062.01C718.045 1062.83 718.582 1064.2 718.335 1065.54C718.088 1066.89 717.099 1067.98 715.784 1068.36C713.994 1068.87 712.107 1067.94 711.429 1066.21C710.75 1064.47 711.502 1062.51 713.165 1061.67Z"/><path transform="matrix(0.333984 0 0 0.333333 1.52588e-05 0)" d="M688.877 1062.49L690.093 1064.35C689.043 1066.28 689.19 1065.69 686.292 1066.57L684.953 1064.87L685.4 1063.69L688.877 1062.49Z"/><path transform="matrix(0.333984 0 0 0.333333 1.52588e-05 0)" d="M716.85 666.854C719.276 666.742 721.535 666.751 723.956 666.758C725.383 668.543 725.105 671.243 725.342 673.949C726.486 675.598 730.129 675.083 733.366 675.671C736.144 679.006 731.999 680.91 737.533 685.315C739.939 685.591 740.313 685.538 742.447 686.563C743.912 688.832 743.567 691.347 743.593 694.174L753.226 694.625C753.247 698.139 753.403 701.177 752.711 704.632L743.377 704.354C743.536 701.237 743.347 697.666 743.252 694.508C741.157 694.506 735.357 694.812 733.891 693.825C733.733 691.666 733.618 689.504 733.545 687.341C731.604 685.069 729.974 686.869 725.775 684.632C723.794 681.976 725.226 680.218 724.559 677.978C723.379 674.015 719.248 676.075 716.76 674.622C715.875 671.794 716.43 669.811 716.85 666.854Z"/><path transform="matrix(0.333984 0 0 0.333333 1.52588e-05 0)" d="M776.64 649.033L788.159 648.826L787.904 657.766L776.81 657.862L776.64 649.033Z"/><path transform="matrix(0.333984 0 0 0.333333 1.52588e-05 0)" d="M553.27 408.556C561.83 408.423 570.543 408.466 579.118 408.424C579.195 411.49 579.623 414.2 578.263 416.831C576.236 418.603 574.501 418.419 571.745 418.673C571.586 423.967 571.129 428.815 563.901 427.144C561.769 424.502 563.22 422.185 562.554 419.577C561.44 415.215 556.581 418.261 554.041 416.534C552.645 413.815 553.099 411.669 553.27 408.556Z"/><path transform="matrix(0.333984 0 0 0.333333 1.52588e-05 0)" d="M580.76 393.75C583.756 393.565 585.911 393.312 588.906 393.87C591.578 395.966 590.804 395.394 592.039 399.035C588.887 399.199 585.822 399.68 582.943 398.615C580.858 396.513 581.534 397.328 580.76 393.75Z"/><path transform="matrix(0.333984 0 0 0.333333 1.52588e-05 0)" d="M615.29 606.887C618.575 606.745 619.916 606.663 622.336 608.556C623.75 620.322 629.058 614.092 632.846 618.891C633.571 621.724 632.906 623.018 632.104 625.853C629.586 626.184 627.076 626.576 624.577 627.028C621.79 629.679 625.055 630.763 621.899 635.614L616.797 635.39C614.364 633.872 613.307 630.352 611.631 627.313C609.5 625.667 607.053 625.955 604.217 625.835C604.206 622.241 603.015 619.383 605.452 616.493C615.752 617.061 611.218 611.107 615.29 606.887Z"/><path transform="matrix(0.333984 0 0 0.333333 1.52588e-05 0)" d="M622.931 562.427C633.623 562.12 629.391 563.129 635.282 569.755C636.022 570.587 639.296 569.418 641.352 571.123C641.533 574.27 641.994 577.005 639.758 579.296C636.823 579.722 636.13 579.728 633.593 581.2C631.725 583.521 632.074 586.185 631.961 589.334L623.704 588.805L621.77 579.966C616.741 579.923 615.148 580.568 611.922 577.317L612.061 575.495C614.035 572.242 617.766 569.896 621.306 568.658C623.073 566.2 622.607 565.707 622.931 562.427Z"/><path transform="matrix(0.333984 0 0 0.333333 1.52588e-05 0)" d="M788.395 768.487C790.966 768.489 791.97 768.476 794.479 768.97C796.564 771.296 796.003 771.219 796.661 774.725C794.041 774.685 793.242 774.711 790.727 774.047C788.889 772.542 788.896 770.913 788.395 768.487Z"/><defs><linearGradient id="gradient_0" gradientUnits="userSpaceOnUse" x1="494.51642" y1="1379.2281" x2="492.72461" y2="1378.5219"><stop offset="0" stop-color="white" stop-opacity="0"/><stop offset="1" stop-color="#E9E8EA" stop-opacity="0.027450981"/></linearGradient></defs><path fill="url(#gradient_0)" transform="matrix(0.333984 0 0 0.333333 1.52588e-05 0)" d="M493.73 1375.86L494.848 1376.89C495.336 1379.25 494.289 1380.76 493.259 1383.06C491.624 1379.42 491.945 1379.19 493.73 1375.86Z"/><path fill="#787777" transform="matrix(0.333984 0 0 0.333333 1.52588e-05 0)" d="M706.484 649.636C710.835 649.277 721.05 647.275 724.171 651.677C724.889 652.689 725.031 656.344 725.12 657.781C722.161 657.795 719.087 657.504 716.538 658.927L715.819 660.116C715.918 661.881 715.867 663.15 715.794 664.92C714.387 666.721 714.156 666.683 711.877 667.417C705.215 666.962 705.779 662.646 705.761 657.813C705.972 655.301 706.157 652.072 706.484 649.636Z"/><path transform="matrix(0.333984 0 0 0.333333 1.52588e-05 0)" d="M705.761 657.813C710.028 657.664 712.834 656.811 715.819 660.116C715.918 661.881 715.867 663.15 715.794 664.92C714.387 666.721 714.156 666.683 711.877 667.417C705.215 666.962 705.779 662.646 705.761 657.813Z"/><path transform="matrix(0.333984 0 0 0.333333 1.52588e-05 0)" d="M643.432 438.033L652.587 438.061L652.619 456.167L643.646 455.993C643.498 449.995 643.298 444.033 643.432 438.033Z"/><path transform="matrix(0.333984 0 0 0.333333 1.52588e-05 0)" d="M904.755 1256.47L915.242 1256.41L915.329 1267.57L904.838 1267.57L904.755 1256.47Z"/><path transform="matrix(0.333984 0 0 0.333333 1.52588e-05 0)" d="M670.609 1052.53C670.859 1048.44 670.473 1047.19 672.642 1044.25C675.346 1043.14 677.467 1043.76 680.434 1044.16C680.484 1047.03 680.843 1048.78 679.351 1051.18C676.947 1053.1 673.775 1052.65 670.609 1052.53Z"/><path transform="matrix(0.333984 0 0 0.333333 1.52588e-05 0)" d="M767.41 639.439C770.125 639.553 772.553 639.312 774.722 640.753C776.013 643.492 775.579 645.119 774.675 648.206C770.985 648.928 772.018 649.22 769.087 648.202C767.219 645.735 767.468 642.621 767.41 639.439Z"/><path transform="matrix(0.333984 0 0 0.333333 1.52588e-05 0)" d="M747.092 1061.37C751.015 1060.92 753.43 1061.37 757.81 1060.51C758.392 1063.62 758.555 1062.46 757.536 1065.13C754.498 1068.05 751.093 1068.11 748.218 1064.93L747.092 1061.37Z"/><path fill="#FEFEFE" fill-opacity="0.023529412" transform="matrix(0.333984 0 0 0.333333 1.52588e-05 0)" d="M640.592 356.282C643.209 356.27 645.065 355.925 647.169 357.323C648.569 359.379 648.144 361.825 648.092 364.466C644.264 364.036 644.122 364.595 641.342 362.649C640.307 360.232 640.546 358.904 640.592 356.282Z"/><path fill="#787777" transform="matrix(0.333984 0 0 0.333333 1.52588e-05 0)" d="M767.867 737.977C767.93 735.337 767.799 734.794 768.788 732.426C770.77 730.454 772.895 730.653 775.821 730.372C775.631 733.032 775.856 735.371 774.18 737.23C771.823 738.263 770.438 738.02 767.867 737.977Z"/><path fill="#393839" transform="matrix(0.333984 0 0 0.333333 1.52588e-05 0)" d="M661.009 1007.11C665.148 1007.85 667.073 1007.52 669.741 1010.2L670.647 1013.67C666.867 1013.01 665.064 1014.02 661.918 1012.94C660.516 1010.78 661.007 1010.02 661.009 1007.11Z"/><path fill="#393839" transform="matrix(0.333984 0 0 0.333333 1.52588e-05 0)" d="M860.432 1359.61C857.431 1358.34 854.723 1357.11 854.245 1353.5L855.21 1352.6L857.367 1352.75L857.087 1353.54C858.171 1353.51 859.126 1353.49 860.214 1353.41C860.441 1355.79 860.479 1357.21 860.432 1359.61Z"/><path fill="#393839" fill-opacity="0.96862745" transform="matrix(0.333984 0 0 0.333333 1.52588e-05 0)" d="M747.181 1059.7L757.823 1059.83L757.81 1060.51C753.43 1061.37 751.015 1060.92 747.092 1061.37L747.181 1059.7Z"/><path transform="matrix(0.333984 0 0 0.333333 1.52588e-05 0)" d="M86.4886 443.25L99.6219 443.285L99.735 453.452L110.312 453.577C110.379 456.259 110.845 461.084 109.722 463.248C106.858 463.647 106.193 463.832 103.971 465.69C103.284 467.656 102.614 472.146 100.959 472.466C94.4456 473.725 94.2556 475.444 95.6197 483.045C98.4354 483.482 100.499 483.499 102.71 485.211C104.026 489.571 102.5 488.541 105.081 491.378C107.924 492.131 111.836 492.223 113.22 493.753C113.459 497.061 112.979 498.803 114.718 501.032C118.225 501.786 119.684 500.304 122.709 502.159C125.539 506.046 123.257 504.61 124.751 508.375C127.151 509.528 128.647 509.328 131.311 509.379L131.386 520.316L140.965 520.322L141.013 529.55L150.691 529.541L150.808 560.219L140.779 560.38L141.025 588.749L150.835 588.705C150.923 579.21 150.914 569.714 150.808 560.219C153.578 560.105 156.96 559.871 159.676 559.887L159.845 605.91C159.878 614.52 160.226 625.69 159.555 633.961C157.246 634.836 154.502 634.587 151.959 634.58L151.749 645.665L112.473 645.727C112.534 642.029 112.651 638.221 112.506 634.534L137.087 634.488C137.124 631.41 136.818 627.861 136.621 624.748L112.47 624.763L112.508 615.708L120.761 615.366C121.044 606.8 120.854 598.091 120.756 589.509C115.066 589.441 109.477 589.912 103.802 590.301L103.516 599.204C100.26 599.257 97.5721 599.77 95.2204 597.942C94.3464 594.991 94.426 592.68 94.3112 589.62C91.2412 589.203 89.356 589.247 86.2736 589.266L86.2512 560.95L76.6012 560.902L76.6465 589.018L85.8773 589.087L85.5261 599.472C83.3636 599.667 78.479 599.509 76.1087 599.502L76.3197 589.513L65.8315 589.467C66.1201 579.894 65.6756 569.966 65.3891 560.366L75.6366 560.246C75.7865 550.224 75.8482 540.202 75.8217 530.179L85.4089 530.144C85.2254 535.71 83.3596 548.576 89.373 550.602C95.9763 549.199 94.9244 541.498 95.0385 536.017C95.1357 531.346 94.9317 526.505 94.8509 521.818C96.9214 521.592 99.8992 521.666 102.051 521.653L101.985 540.566L110.714 540.819C111.054 534.503 110.895 527.896 110.856 521.552L102.268 521.369L102.603 511.497C105.513 511.477 107.578 511.101 109.882 512.708C111.381 515.086 111.031 518.139 111.077 521.109L121.692 521.17C121.409 524.068 120.862 526.045 122.242 528.505C124.718 530.344 128.088 530.045 131.368 530.21C130.998 540.006 131.196 550.429 131.224 560.277L140.865 560.248C140.984 550.697 141.186 539.732 140.392 530.321L131.368 530.21C131.96 526.576 132.104 525.011 130.318 522.182C127.713 520.674 124.837 521.12 121.692 521.17C122.091 517.494 122.048 516.223 121.809 512.539C119.918 510.676 118.098 512.187 114.153 510.937C111.66 508.312 112.266 498.956 103.38 502.761C102.119 505.103 102.558 508.653 102.603 511.497L76.4358 511.456L75.9669 524.127L65.398 524.19C65.2583 536.132 64.9403 548.461 65.3891 560.366L55.3534 560.251C55.0237 548.357 55.5144 534.376 54.9192 523.016L65.9333 522.841L66.0528 501.313L76.4976 501.151C76.7773 485.234 76.8141 469.314 76.6081 453.397L86.1066 453.306C85.9939 450.006 86.2886 446.556 86.4886 443.25ZM110.16 579.29L110.23 560.362L95.405 560.344C95.3427 566.572 95.1608 573.07 95.461 579.273C99.6877 579.24 106.106 578.992 110.16 579.29ZM152.209 627.031C148.973 624.157 146.923 626.578 144.162 624.039C144.252 617.181 153.063 615.093 151.123 610.066C147.464 607.885 140.98 608.416 136.724 608.525C136.306 613.687 134.925 619.369 137.828 623.177C141.325 624.026 140.869 623.362 142.937 625.671C143.431 628.713 143.578 631.684 145.261 634.155C150.981 637.4 152.115 631.167 152.209 627.031ZM94.0073 494.241C94.0252 491.266 94.445 488.727 92.8432 486.397C90.6715 485.08 88.8612 485.354 86.261 485.317C86.2004 488.079 85.7908 490.711 87.0772 493.015C89.4573 494.477 90.9976 494.295 94.0073 494.241ZM86.3141 454.38C86.2423 457.283 85.841 459.314 87.3707 461.674C89.7839 463.179 92.2983 462.92 95.2413 463.028C95.2369 460.129 95.5706 457.984 94.0896 455.588C91.7886 453.951 89.2892 454.369 86.3141 454.38ZM121.423 579.661C121.36 582.498 120.923 585.263 122.276 587.595C124.625 589.201 126.979 588.836 129.946 588.857L129.924 600.078L140.078 599.97C140.228 596.288 140.435 592.491 140.523 588.819C137.271 588.889 134.095 589.401 131.474 587.793C129.931 585.714 130.168 584.424 130.069 581.797C127.659 578.863 125.012 579.539 121.423 579.661ZM120.745 560.304C120.625 564.16 120.144 565.967 122.122 568.926C124.692 570.233 126.97 569.848 129.923 569.766C129.979 566.671 130.447 564.11 128.783 561.683C126.346 560.031 123.814 560.368 120.745 560.304C121.009 554.998 120.813 547.847 120.814 542.402L110.993 542.402C110.601 546.68 110.861 555.628 110.878 560.234L120.745 560.304Z"/><path transform="matrix(0.333984 0 0 0.333333 1.52588e-05 0)" d="M73.5039 1318.61C76.4413 1318.48 80.1618 1317.86 82.4071 1319.32C83.7888 1321.64 83.407 1325.09 83.4206 1327.97C86.5236 1328.08 89.9194 1328.26 92.9944 1328.28L93.0072 1338.5C90.1385 1338.54 87.4503 1338.19 85.2046 1339.72C82.9747 1343.45 82.8467 1346.2 80.0223 1348.22C78.1869 1348.38 76.5462 1348.5 74.7051 1348.57L74.5403 1369.29L66.4137 1369.52C66.6259 1376.18 68.3973 1384.86 65.0763 1389.48C62.8947 1391.11 60.3127 1390.66 57.4106 1390.63C57.1679 1398.63 56.631 1411.08 57.6294 1419.02C77.9886 1418.8 98.3252 1419.17 118.658 1418.85C118.462 1393.32 119.521 1367.41 119.163 1341.82C119.1 1337.36 119.266 1332.66 119.566 1328.21L188.804 1328.35L188.828 1336.69C188.702 1366.67 189.32 1399.84 188.456 1429.64L58.2092 1429.99L57.8072 1419.58L47.3568 1419.39C47.7352 1409.74 47.8333 1400.09 47.6509 1390.43L56.286 1390.34C56.2346 1385.03 55.3866 1375.22 58.2638 1371.07C60.0919 1370.49 60.569 1370.54 62.4268 1370.49C66.0499 1366.64 64.7141 1353.91 64.6065 1347.76C67.5892 1347.82 70.731 1348.25 73.2528 1346.94C77.6958 1340.1 72.288 1339.94 82.421 1337C82.5273 1333.5 83.1766 1331.66 81.7152 1328.92C79.3758 1327.83 76.8668 1328.17 74.2021 1328.22C73.9869 1325.19 73.8289 1321.58 73.5039 1318.61ZM128.778 1418.92L177.863 1418.9C177.967 1398.92 178.291 1377.42 177.79 1357.52L128.805 1357.49C128.066 1375.58 128.382 1400.6 128.778 1418.92ZM178.089 1346.32C178.048 1343.58 178.363 1341.55 176.825 1339.41C171.608 1337.89 136.612 1338.76 128.848 1338.84C128.897 1341.24 128.582 1343.84 129.929 1345.62C136.35 1347.21 169.289 1346.14 178.089 1346.32Z"/><path transform="matrix(0.333984 0 0 0.333333 1.52588e-05 0)" d="M198.063 1328.26L259.57 1328.24C259.51 1331.01 259.086 1334.11 260.301 1336.43C262.287 1338.09 265.641 1337.76 268.476 1337.87C267.99 1368.31 269.124 1399.43 268.233 1429.85C244.843 1429.99 221.453 1429.96 198.064 1429.75L198.063 1328.26ZM208.536 1357.51C207.764 1373.13 207.491 1403.31 208.4 1418.9C224.79 1418.92 241.309 1419.08 257.681 1418.92C258.356 1404.93 258.449 1371.5 257.314 1357.46L208.536 1357.51ZM252.723 1345.78C255.5 1345.61 255.58 1346.09 257.286 1344.68C257.519 1341.98 257.747 1343.05 256.368 1340.65C249.675 1336.7 223.395 1338.37 213.9 1338.32C210.238 1338.76 208.735 1338.02 208.405 1342.31C211.5 1347.93 222.861 1346.38 228.692 1346.36C236.623 1346.34 244.795 1346.1 252.723 1345.78Z"/><path transform="matrix(0.333984 0 0 0.333333 1.52588e-05 0)" d="M146.316 255.035L157.689 254.911L157.723 264.77L168.22 264.735L168.149 282.12L149.072 282.177L148.64 292.15C143.677 292.285 142.289 291.5 139.612 295.86C139.247 302.357 143.464 302.035 148.376 302.638L148.639 313.517L169.607 313.565L169.59 325.434C162.891 324.949 156.022 324.994 149.296 324.931C148 335.968 149.069 353.525 148.59 365.753L158.258 366.007C158.258 372.47 158.113 378.931 157.821 385.387L148.358 385.45C148.118 379.155 148.347 372.585 148.457 366.269L138.746 366.051C138.918 355.032 138.939 344.011 138.808 332.991L127.308 332.858L126.955 323.813C126.88 321.545 127.209 322.204 126.066 320.523C121.461 319.227 112.936 320.008 107.82 320.222C107.584 332.245 107.549 344.27 107.715 356.294L117.254 356.281C117.067 365.906 117.047 375.532 117.196 385.157C120.683 385.233 123.551 384.608 125.491 387.79C125.583 392.072 124.58 394.509 120.377 395.576C114.482 393.419 117.112 388.934 115.829 386.163C113.201 384.944 110.149 385.257 107.219 385.296C108.326 376.93 107.664 365.582 107.313 356.992L97.0127 356.992C96.7682 344.739 96.7526 332.483 96.966 320.229L107.403 320.199L107.528 310.559L116.479 310.309C116.838 304.084 116.798 298.79 116.716 292.559L126.677 292.537C126.951 286.451 126.814 279.357 126.832 273.191L136.236 272.908C136.417 270.154 136.365 268.425 137.501 265.859C140.421 263.431 140.846 264.667 145.203 263.09C146.968 260.126 146.303 259.053 146.316 255.035ZM156.975 272.988C156.998 270.158 157.396 268.143 155.722 266.027C153.286 264.771 151.061 265.042 148.261 265.016C148.226 267.65 147.81 270.291 149.191 272.337C151.306 273.542 154.368 273.073 156.975 272.988Z"/><path transform="matrix(0.333984 0 0 0.333333 1.52588e-05 0)" d="M186.074 1217.32L195.714 1217.32L195.78 1227.48L206.325 1227.53C206.165 1238.22 206.036 1247.94 206.499 1258.64C220.668 1258.6 235.715 1258.5 249.871 1259.11L249.877 1295.54L238.401 1295.75C238.736 1286.51 238.819 1278.89 238.478 1269.64C224.186 1269.42 213.061 1269.2 198.794 1270.89C198.31 1274.09 198.343 1276.47 196.249 1278.81C194.099 1279.86 193.972 1279.78 191.511 1279.44C186.129 1284.74 195.946 1297.13 185.07 1297.57C181.036 1297.65 172.302 1298.37 170.627 1293.52C171.983 1289.37 176.517 1289.09 180.322 1288.69C180.606 1281.98 180.772 1276.06 180.681 1269.35L171.447 1269.03L171.174 1280.27L160.294 1280.2C160.114 1276.11 159.881 1271.94 159.853 1267.85L171.082 1267.91L171.065 1235.44L181.557 1235.44C181.463 1246.28 181.081 1258.6 181.516 1269.33C199.23 1268.1 196.527 1257.91 196.287 1243.53C196.198 1238.17 195.924 1232.83 195.965 1227.45L186.075 1227.3L186.074 1217.32Z"/><path transform="matrix(0.333984 0 0 0.333333 1.52588e-05 0)" d="M99.8474 1229.89L132.64 1229.89L132.783 1238.42L142.534 1238.4L142.55 1249.52L132.938 1249.49L132.821 1239.12L110.371 1239.15C110.208 1242.2 110.485 1244.93 108.706 1247.2C105.981 1248.54 103.119 1248.12 99.9808 1248.05C99.9697 1254.28 99.7771 1261.57 100.001 1267.71L110.162 1267.6L110.444 1279.58L120.73 1279.6L120.776 1297.46C118.596 1297.49 112.695 1297.81 111.066 1297.04C110.629 1293.49 110.998 1291.28 109.052 1288.87C107.252 1288.46 104.968 1288.36 104.359 1286.93C102.704 1283.04 102.106 1279.71 100.231 1275.75C99.2276 1280.27 98.8388 1282.95 98.383 1287.57L63.0459 1287.55C63.0494 1294.47 62.9673 1301.6 63.094 1308.51L73.4936 1308.46L73.5039 1318.61L63.0467 1318.65C63.1739 1315.52 63.4337 1311.68 63.4029 1308.62L51.9754 1308.56C51.8563 1298.36 51.8161 1288.16 51.8548 1277.96L98.9328 1277.86C98.9979 1274.86 99.4385 1272.3 97.9467 1269.84C95.788 1268.67 95.353 1268.73 92.8613 1268.37C89.505 1265.32 90.6103 1251.42 90.6656 1246.56L99.7731 1246.56L99.8474 1229.89Z"/><path transform="matrix(0.333984 0 0 0.333333 1.52588e-05 0)" d="M214.887 575.743C217.871 575.783 221.81 575.729 224.689 576.089C227.198 588.722 230.371 583.803 242.051 584.267L242.361 593.122L251.391 593.342L251.411 605.467L261.275 605.482C261.228 620.087 261.321 634.916 261.12 649.5C258.75 649.377 253.021 648.942 250.985 649.275C250.275 635.68 251.343 620.536 250.709 606.095L241.462 605.873L241.379 595.417L214.973 595.446L214.887 575.743Z"/><path transform="matrix(0.333984 0 0 0.333333 1.52588e-05 0)" d="M111.019 1248.8L123.3 1248.7C126.823 1252.15 127.788 1253.05 131.962 1255.59L132.015 1268.4L141.143 1268.38L141.337 1279.31C143.887 1279.25 145.445 1279.27 147.984 1279.48C154.292 1284.11 147.088 1286.34 158.714 1288.9C159.169 1293.99 159.018 1301.95 159.05 1307.29C155.883 1307.43 152.821 1308 150.41 1306.2C150.63 1302.86 150.798 1300.71 148.022 1298.32C145.711 1298.16 145.407 1298.13 143.217 1297.43C141.152 1294.23 142.476 1292.57 141.724 1290.65C138.697 1282.93 130.932 1294.43 130.436 1280.32C128.135 1278.92 124.507 1279.44 121.59 1279.51C121.907 1272.54 121.69 1265.66 121.548 1258.68L111.016 1258.67L111.019 1248.8Z"/><path transform="matrix(0.333984 0 0 0.333333 1.52588e-05 0)" d="M220.528 1278.27C222.958 1278.12 224.224 1277.8 226.412 1278.86C228.004 1281.09 227.347 1285.15 227.211 1288.17L217.528 1288.2L217.494 1297.58L207.609 1297.54L207.492 1308.21L227.257 1308.1L227.266 1317C221.962 1317.17 210.585 1318.57 207.116 1314.88C206.716 1312.29 206.772 1311.46 205.457 1309.28C199.19 1306.2 197.813 1310.63 197.482 1314.69C197.369 1316.07 195.705 1316.34 194.315 1316.82C186.865 1317.29 166.745 1318.73 161.341 1314.08C160.256 1311.39 160.417 1312.57 160.896 1309.55C165.642 1306.94 190.577 1307.87 197.637 1307.9L197.537 1296.76L206.486 1296.67C206.592 1291.5 206.624 1286.33 206.582 1281.16C211.269 1280.39 215.922 1279.43 220.528 1278.27Z"/><path transform="matrix(0.333984 0 0 0.333333 1.52588e-05 0)" d="M256.82 480.759L278.326 480.713L278.228 491.345L257.158 491.484L256.715 502.479C241.398 502.674 208.148 503.908 194.178 502.236L194.362 501.813C197.99 493.642 201.419 502.684 204.432 491.309C216.27 490.172 243.497 491.186 256.822 491.27C256.903 487.874 256.824 484.183 256.82 480.759Z"/><path transform="matrix(0.333984 0 0 0.333333 1.52588e-05 0)" d="M142.735 411.897C138.957 411.772 138.701 412.38 136.073 410.569C134.848 407.009 135.509 405.944 133.33 403.964C129.138 403.188 128.542 403.789 126.195 401.254C125.074 397.109 125.982 394.682 130.018 393.249C132.469 393.525 132.535 393.638 134.538 395.209C135.341 398.7 134.318 401.115 135.652 402.728C138.709 402.826 142.731 402.17 144.567 403.58C145.013 406.524 144.583 407.741 146.412 409.114C153.844 410.552 171.553 409.536 179.905 409.271C180.075 406.118 180.428 401.868 180.112 398.835C182.522 398.814 186.098 398.47 188.096 399.457C189.424 403.645 187.865 405.054 189.74 408.013C192.026 408.613 193.157 408.797 195.509 409.07C196.24 412.532 196.079 413.933 195.946 417.449C193.744 419.68 191.812 417.218 189.033 419.643C187.435 423.503 189.521 424.688 187.558 427C184.164 427.535 185.223 427.786 182.464 426.797C181.038 424.527 180.998 423.981 180.279 421.337C177.062 419.353 149.469 420.043 144.089 420.088C143.949 417.057 144.145 414.507 142.735 411.897Z"/><path transform="matrix(0.333984 0 0 0.333333 1.52588e-05 0)" d="M183.152 141.837L193.81 141.818C193.981 152.722 194.058 163.628 194.042 174.533L182.873 174.631L182.501 185.267L172.507 185.299L172.522 195.619L138.107 195.619L138.033 185.362C148.823 184.868 161.098 185.195 171.996 185.251C172.216 181.895 172.115 177.729 172.12 174.298L183.016 174.179C183.387 164.199 183.279 151.87 183.152 141.837Z"/><path transform="matrix(0.333984 0 0 0.333333 1.52588e-05 0)" d="M169.582 326.562L179.426 326.845C180.623 350.438 178.866 376.446 180.112 398.835L169.45 398.921C169.397 375.105 169.063 350.328 169.582 326.562Z"/><path transform="matrix(0.333984 0 0 0.333333 1.52588e-05 0)" d="M102.016 1348.15C104.766 1348.12 105.252 1347.95 107.641 1349.09C111.154 1353.12 109.636 1362.9 109.398 1368.71C105.212 1368.78 97.7324 1368.26 94.757 1370.49C94.07 1376.09 103.764 1380.95 104.76 1388.85C102.648 1394.4 92.5285 1389.93 88.0218 1393.64L87.7237 1397.64C85.6933 1399.8 85.0054 1398.37 80.791 1399.76L80.626 1401.03C79.4196 1410.8 70.113 1410.02 68.665 1402.86C71.1588 1395.79 75.0382 1400.68 77.3639 1391.19L77.5405 1390.46C79.779 1389.04 82.9721 1389.57 86.0455 1389.57C87.0794 1382.45 86.0946 1376.41 87.0387 1370.02C90.0621 1366.94 89.2623 1370.43 93.8311 1367.88C95.3788 1365.27 95.0548 1362.64 95.1086 1359.5C97.5758 1358.32 98.4647 1357.91 100.64 1356.28C102.379 1353.97 102.016 1351.08 102.016 1348.15Z"/><path transform="matrix(0.333984 0 0 0.333333 1.52588e-05 0)" d="M127.556 126.012L138.482 125.911L138.684 141.656L127.36 141.763C127.16 152.516 127.174 163.273 127.402 174.026L137.828 173.907L138.033 185.362L127.371 185.653C127.227 182.127 126.986 178.234 127.024 174.741L117.037 174.744L116.871 140.974L127.573 140.983L127.556 126.012Z"/><path transform="matrix(0.333984 0 0 0.333333 1.52588e-05 0)" d="M186.117 660.64C189.763 660.565 190.521 660.079 192.215 663.141C192.166 666.082 192.354 668.357 192.584 671.278L228.849 671.283C228.943 674.5 229.599 680.746 227.983 683.212L225.778 683.534C212.066 683.924 197.557 683.671 183.774 683.624C183.726 677.18 182.528 665.186 186.117 660.64Z"/><path transform="matrix(0.333984 0 0 0.333333 1.52588e-05 0)" d="M236.006 414.19C249.388 414.124 262.771 414.161 276.153 414.3L276.229 425.339L236.527 425.288C236.299 427.569 236.295 431.654 236.213 434.083L225.513 434.008C225.311 439.257 225.896 440.201 221.578 443.491C217.227 444.065 215.677 440.036 214.642 436.341C217.158 432.983 218.555 437.323 224.644 432.971C226.487 429.838 225.825 429.216 225.864 425.018L235.476 424.776L236.006 414.19Z"/><path transform="matrix(0.333984 0 0 0.333333 1.52588e-05 0)" d="M158.34 1217.26L168.164 1217.29L168.051 1227.6L158.781 1227.64C158.091 1234.95 160.493 1264.63 157.499 1268.42L145.256 1268.36C144.965 1262.27 143.127 1253.65 147.536 1249.34L148.176 1248.71C148.444 1241.43 148.357 1234.32 148.299 1227.04L158.47 1226.75L158.34 1217.26Z"/><path transform="matrix(0.333984 0 0 0.333333 1.52588e-05 0)" d="M254.477 442.477L276.72 442.483L276.713 453.529L255.46 453.542C255.17 456.257 255.046 459.735 254.863 462.523L237.988 462.682L238.113 471.661L225.114 471.647L225.092 461.298L237.08 461.281L237.141 452.211L254.852 452.098C254.985 448.836 254.703 445.73 254.477 442.477Z"/><path transform="matrix(0.333984 0 0 0.333333 1.52588e-05 0)" d="M140.248 92.7129L150.663 92.7784L150.713 102.778L162.636 102.744L162.733 112.801C165.877 112.876 169.447 112.879 172.545 113.082L172.524 122.887L182.98 122.816C183.023 128.877 182.905 135.855 183.152 141.837L172.522 141.587C172.892 135.207 172.776 130.177 172.595 123.79C172.131 123.792 171.667 123.792 171.202 123.789C162.411 123.73 164.591 120.722 158.248 115.803C157.516 115.236 151.477 115.429 150.068 115.462L150.072 102.969L140.249 102.684L140.248 92.7129Z"/><path transform="matrix(0.333984 0 0 0.333333 1.52588e-05 0)" d="M510.792 224.26C510.633 228.252 510.576 232.247 510.621 236.242C496.579 236.273 482.126 236.473 468.119 236.238L468.114 224.928L510.792 224.26Z"/><path transform="matrix(0.333984 0 0 0.333333 1.52588e-05 0)" d="M76.0517 1297.9C79.3716 1297.7 86.6166 1297.22 90.2188 1298.48C95.6724 1300.39 95.3663 1307.54 102.411 1307.37C105.251 1307.31 107.774 1307.37 110.279 1307.31C110.317 1312.39 111.321 1325.55 108.653 1328.5C105.901 1328.2 104.009 1328.38 102.096 1326.54C101.462 1322.57 103.313 1320.18 99.5704 1317.38C97.7466 1317.92 96.6334 1318.49 94.8544 1317.93C92.2815 1315.31 92.6013 1312.21 92.282 1308.37L74.3789 1308.23C74.2209 1304.92 73.8553 1301.72 74.6574 1298.52L76.0517 1297.9Z"/><path transform="matrix(0.333984 0 0 0.333333 1.52588e-05 0)" d="M286.499 239.343L297.653 239.346C297.709 249.985 297.887 260.791 297.462 271.409L286.576 271.423L286.536 281.371L276.191 281.417L276.268 271.116L286.61 271.22C286.875 260.595 286.838 249.966 286.499 239.343Z"/><path transform="matrix(0.333984 0 0 0.333333 1.52588e-05 0)" d="M446.65 303.161C459.322 303.144 474.307 302.767 486.799 303.58L486.877 314.475L446.37 314.26C446.524 310.626 446.759 306.778 446.65 303.161Z"/><path transform="matrix(0.333984 0 0 0.333333 1.52588e-05 0)" d="M219.951 239.337L230.344 239.279C229.939 249.708 230.146 260.356 230.224 270.807L240.121 270.791L240.144 281.309L230.28 281.305L230.224 271.427L220.03 271.393C219.746 261.192 219.966 249.635 219.951 239.337Z"/><path transform="matrix(0.333984 0 0 0.333333 1.52588e-05 0)" d="M204.66 596.293L214.452 596.22C214.131 603.048 214.598 632.89 213.695 637.496L204.378 637.475L204.66 596.293Z"/><path transform="matrix(0.333984 0 0 0.333333 1.52588e-05 0)" d="M276.191 281.417C275.979 284.718 276.041 289.13 275.983 292.524C264.253 292.687 252.232 292.563 240.478 292.57C240.621 289.048 240.606 285.296 240.65 281.751C251.424 281.181 265.212 281.458 276.191 281.417Z"/><path transform="matrix(0.333984 0 0 0.333333 1.52588e-05 0)" d="M289.51 436.519L301.009 436.537L301.082 470.482L289.613 470.799C289.942 459.374 289.908 447.942 289.51 436.519Z"/><path transform="matrix(0.333984 0 0 0.333333 1.52588e-05 0)" d="M242.951 190.491L253.523 190.467L253.547 200.267L264.252 200.197C264.347 202.919 264.375 206.774 264.638 209.38L275.322 209.356L275.427 220.013L264.701 220.42C264.751 217.145 264.565 213.758 264.437 210.473L252.691 210.662C252.904 207.032 253.047 204.179 252.951 200.546L243 200.486L242.951 190.491Z"/><path transform="matrix(0.333984 0 0 0.333333 1.52588e-05 0)" d="M268.599 795.028C277.619 794.943 286.724 794.788 295.737 794.804L295.608 805.592C286.345 805.735 277.859 805.906 268.582 805.365C268.595 801.954 268.658 798.426 268.599 795.028Z"/><path transform="matrix(0.333984 0 0 0.333333 1.52588e-05 0)" d="M592.167 229.562L601.57 229.542C601.576 238.548 602.055 252.313 601.436 260.914L591.97 260.664C592.39 251.551 592.5 238.58 592.167 229.562Z"/><path transform="matrix(0.333984 0 0 0.333333 1.52588e-05 0)" d="M532.779 261.293L535.511 261.72C537.293 264.013 536.597 269.28 536.484 272.329L548.242 272.354C548.101 276.766 549.342 282.069 546.808 285.471L544.07 285.744C540.753 285.759 539.749 286.301 537.161 284.855C535.594 282.015 536.364 276.683 536.429 272.978L526.236 273.085C526.059 269.992 525.404 265.303 526.651 262.709C529.225 260.869 529.093 261.45 532.779 261.293Z"/><path transform="matrix(0.333984 0 0 0.333333 1.52588e-05 0)" d="M192.763 637.669L204.037 637.812C204.002 646.349 201.537 651.348 201.475 659.097L201.197 660.059C199.235 661.149 194.858 660.763 192.336 660.734C192.951 653.193 192.788 645.263 192.763 637.669Z"/><path transform="matrix(0.333984 0 0 0.333333 1.52588e-05 0)" d="M240.727 649.584C244.161 649.589 247.555 649.42 250.985 649.275C251.278 652.627 251.022 657.298 250.93 660.778L240.406 661.239L239.969 670.489L229.387 670.575L229.389 660.838L240.468 660.903C240.745 657.546 240.68 653.043 240.727 649.584Z"/><path transform="matrix(0.333984 0 0 0.333333 1.52588e-05 0)" d="M120.141 1307.95L144.02 1307.93L144.013 1317.15L120.251 1317.12L120.141 1307.95Z"/><path transform="matrix(0.333984 0 0 0.333333 1.52588e-05 0)" d="M557.918 251.123C560.311 251.063 561.573 251.136 563.957 251.386C570.129 254.708 563.039 259.231 575.257 260.449L575.426 273.595L566.292 273.608L566.278 261.199C563.311 261.029 560.861 261.277 558.599 259.555C557.264 257.115 557.791 254.062 557.918 251.123Z"/><path transform="matrix(0.333984 0 0 0.333333 1.52588e-05 0)" d="M521.002 203.242L531.199 203.294L530.992 213.045L521.136 213.101L520.961 224.158L510.792 224.26C510.886 220.605 510.942 216.949 510.96 213.293L520.965 213.193L521.002 203.242Z"/><path transform="matrix(0.333984 0 0 0.333333 1.52588e-05 0)" d="M275.427 220.013L286.013 219.775L286.053 239.307L275.876 239.349C275.861 232.697 275.842 226.654 275.427 220.013Z"/><path transform="matrix(0.333984 0 0 0.333333 1.52588e-05 0)" d="M230.476 220.63L240.912 220.625L240.743 239.325L230.344 239.279C230.39 233.106 230.511 226.788 230.476 220.63Z"/><path transform="matrix(0.333984 0 0 0.333333 1.52588e-05 0)" d="M168.868 1205.75C174.933 1205.46 179.949 1205.35 186.021 1205.45L186.074 1217.32C180.323 1216.96 174.598 1216.52 168.836 1216.56L168.868 1205.75Z"/><path transform="matrix(0.333984 0 0 0.333333 1.52588e-05 0)" d="M94.4004 615.017C97.3011 615.077 100.72 614.984 103.495 615.612C103.463 618.626 103.087 620.865 104.595 623.375C106.847 625.122 109.519 624.82 112.47 624.763L112.506 634.534C109.533 634.572 106.796 634.455 103.83 634.327C102.039 632.662 103.476 630.625 101.959 626.699C98.1582 623.053 99.9559 625.41 95.0467 623.24C93.6673 620.698 94.2182 618.036 94.4004 615.017Z"/><path transform="matrix(0.333984 0 0 0.333333 1.52588e-05 0)" d="M515.349 293.21L525.273 292.715C525.567 295.406 525.428 297.781 527.195 299.61C531.798 301.803 532.378 301.076 535.019 304.919C530.509 305.424 520.271 304.357 515.517 303.679L515.349 293.21Z"/><path transform="matrix(0.333984 0 0 0.333333 1.52588e-05 0)" d="M176.222 498.996L186.501 498.677C187.521 504.15 187.51 506.554 187.514 511.999L176.005 511.992L176.222 498.996Z"/><path transform="matrix(0.333984 0 0 0.333333 1.52588e-05 0)" d="M196.376 480.069C199.125 479.955 199.971 479.891 202.654 480.406L203.71 482.134C204.002 484.989 204.028 485.363 202.983 488.022C199.807 490.255 199.79 488.372 196.722 489.412C192.888 490.712 196.282 493.157 193.195 498.031C190.538 497.943 188.917 498.086 186.444 497.08C185.749 494.718 185.03 493.294 185.71 490.984C187.825 489.149 190.067 489.606 193.588 488.859C195.818 486.593 194.814 484.445 196.376 480.069Z"/><path transform="matrix(0.333984 0 0 0.333333 1.52588e-05 0)" d="M85.5261 599.472C88.4537 599.349 91.5565 599.17 94.468 599.127L94.4004 615.017L85.2717 614.995L85.5261 599.472Z"/><path transform="matrix(0.333984 0 0 0.333333 1.52588e-05 0)" d="M103.516 599.204C106.609 599.084 108.349 598.624 110.754 600.419C113.767 604.511 112.126 610.105 112.508 615.708L103.495 615.612L103.516 599.204Z"/><path transform="matrix(0.333984 0 0 0.333333 1.52588e-05 0)" d="M277.381 426.285L288.135 426.468L288.611 436.416L277.414 436.38L277.381 426.285Z"/><path transform="matrix(0.333984 0 0 0.333333 1.52588e-05 0)" d="M241.945 210.733L252.691 210.662C252.381 213.449 252.341 218.064 252.224 221.003L241.628 220.981L241.945 210.733Z"/><path transform="matrix(0.333984 0 0 0.333333 1.52588e-05 0)" d="M229.32 1296.8L229.946 1296.76C238.579 1296.3 242.194 1303.43 236.115 1307.64C228.28 1307.9 223.267 1303.6 229.32 1296.8Z"/><path transform="matrix(0.333984 0 0 0.333333 1.52588e-05 0)" d="M139.427 115.474L150.068 115.462L150.047 125.1L139.409 125.205L139.427 115.474Z"/><path transform="matrix(0.333984 0 0 0.333333 1.52588e-05 0)" d="M195.123 452.903L204.881 452.95L204.718 463.463L195.094 463.591L195.123 452.903Z"/><path transform="matrix(0.333984 0 0 0.333333 1.52588e-05 0)" d="M278.192 471.295L288.895 471.118L288.953 480.638L278.326 480.713L278.192 471.295Z"/><path transform="matrix(0.333984 0 0 0.333333 1.52588e-05 0)" d="M205.095 442.557L215.067 442.615C215.047 445.608 215.341 448.663 213.855 451.218C211.093 453.639 208.572 453.117 204.881 452.95L205.095 442.557Z"/><path transform="matrix(0.333984 0 0 0.333333 1.52588e-05 0)" d="M104.983 809.231L114.801 809.311L114.38 819.092C111.641 819.038 107.209 819.088 104.62 818.841C104.932 816.36 104.919 811.869 104.983 809.231Z"/><path transform="matrix(0.333984 0 0 0.333333 1.52588e-05 0)" d="M505.843 283.431L515.467 283.49L515.349 293.21L505.847 293.092L505.843 283.431Z"/><path transform="matrix(0.333984 0 0 0.333333 1.52588e-05 0)" d="M204.781 471.848C207.592 471.758 211.003 471.228 213.215 472.591C214.558 474.857 213.766 477.449 213.383 480.257C210.712 480.716 207.821 481.407 205.559 480.187C204.138 477.939 204.68 474.712 204.781 471.848Z"/><path transform="matrix(0.333984 0 0 0.333333 1.52588e-05 0)" d="M196.654 426.74C196.544 423.834 196.011 420.952 197.492 418.667C199.59 417.717 201.996 418.521 204.263 419.226C204.778 422.003 205.055 422.429 204.064 424.927C202.02 426.868 200.901 426.885 197.941 426.801C197.512 426.787 197.083 426.767 196.654 426.74Z"/><path transform="matrix(0.333984 0 0 0.333333 1.52588e-05 0)" d="M190.045 434.779C189.253 432.13 188.689 429.844 189.62 427.376C191.77 426.039 193.99 426.559 196.654 426.74C196.611 429.729 196.905 431.843 195.391 434.348C192.606 435.645 193.743 435.319 190.045 434.779Z"/></svg>