<?xml version="1.0" encoding="utf-8" ?><svg xmlns="http://www.w3.org/2000/svg" xmlns:xlink="http://www.w3.org/1999/xlink" width="1024" height="1024" viewBox="0 0 1024 1024"><path d="M487.673 64.9672C494.042 65.4588 505.047 65.0893 511.686 65.0737C528.352 64.9757 545.019 64.9703 561.685 65.0575C562.071 68.0494 561.956 70.8831 561.92 73.8955L579.016 73.5731L578.977 83.5067C583.211 83.344 587.135 83.2098 591.369 83.2594L591.614 72.9322C597.249 73.1995 602.885 73.4107 608.524 73.5657C608.382 81.0484 608.602 87.5365 608.938 95.0242L620.178 95.0271C619.915 99.3903 620.036 104.575 620.03 109.005L631.024 109.017L631.045 120.051C627.303 119.982 623.367 120.065 619.608 120.086C619.664 134.625 618.986 149.691 619.001 164.562C625.386 164.657 631.585 164.812 637.967 164.504C637.764 161.429 637.976 158.285 638.098 155.196C650.917 154.364 671.691 155.026 684.89 155.016C711.194 154.997 738.172 154.768 764.447 155.159L764.485 165.939L784.012 165.911L783.996 176.033C786.995 176.16 789.997 176.204 792.998 176.165L792.993 187.003C804.924 186.81 804.782 186.301 805.08 198.611C808.353 198.401 811.625 198.167 814.895 197.91C814.559 202.337 814.852 211.031 814.854 215.768C814.775 226.812 814.763 237.856 814.817 248.899L805.051 249.058C804.633 256.236 804.771 258.982 802.317 265.756C799.012 266.047 797.253 265.977 793.958 265.839C793.93 270.027 793.857 271.772 794.672 275.875C797.908 275.866 801.33 275.999 804.58 276.074L804.512 290.017L814.993 290.011C814.224 299.893 814.511 312.906 814.51 323.049C818.288 322.736 822.075 322.534 825.865 322.444C825.352 326.169 825.94 340.863 825.895 345.998L836.007 345.989L836.076 438.419C832.706 438.471 829.303 438.824 825.94 439.113L825.974 538.019C822.471 537.899 818.237 538.059 814.675 538.107C814.411 545.189 814.596 552.505 814.342 559.742C811.593 559.589 807.897 559.828 805.057 559.932L805.029 568.913L794.569 569.038C794.204 572.721 793.968 576.17 794.32 579.86C765.814 580.687 734.77 579.825 706.05 579.995L705.967 609.134L694.606 609.116C694.093 619.569 693.88 630.035 693.968 640.5C697.26 640.411 699.701 640.304 702.974 639.945C702.953 655.653 702.433 675.477 703.302 691.008L712.292 691.065C712.848 695.09 713.307 699.927 713.35 703.983C716.414 703.993 718.824 704.204 721.869 704.472C722.58 708.983 722.941 711.449 723.036 715.971L730.513 716.07C731.29 719.346 731.774 723.406 732.265 726.797C734.956 726.989 738.067 726.951 740.796 726.984C740.959 730.499 740.958 734.329 741.027 737.872C744.501 737.921 748.083 737.858 751.567 737.841C751.488 740.762 751.592 744.065 751.626 747.021L761.978 747.004C761.947 749.991 762.116 753.019 762.244 756.007L770.888 756.009L772.025 765.899L781.013 765.993L781.004 775.635C793.707 774.516 790.241 776.421 792.307 786.673C795.545 786.429 798.459 786.695 801.692 786.899C801.706 797.865 801.858 804.848 801.112 815.996L811.054 815.939L811.105 825.957L819.982 826.052C819.806 829.521 819.906 833.44 819.921 836.953C822.776 837.151 825.927 837.03 828.811 836.994C828.707 840.304 828.698 843.707 828.652 847.026L838.487 846.985L839.039 857.943L848.999 858.01C848.932 862.649 849.24 866.427 849.597 871.029L858.956 870.815L858.995 885.924L848.458 886.042C848.179 889.102 848.184 892.835 848.112 895.957L837.982 896.019C837.878 899.438 837.963 903.223 837.971 906.673C834.23 907.052 830.704 906.954 826.948 906.926L826.913 916.9L817.04 917.072C816.92 919.796 817.052 922.577 817.127 925.309C814.3 925.114 810.847 925.113 807.962 925.045C807.93 928.287 808.041 931.726 808.092 934.985L796.91 934.921L796.59 944.62L786.052 943.962L785.997 952.777C798.5 953.082 811.412 952.899 823.956 952.917C835.067 952.932 847.04 953.091 858.083 952.54C857.946 955.914 858.036 959.583 858.059 962.983L475.625 963.068L326.848 963.034C294.882 963.167 262.915 963.138 230.95 962.948C231.166 959.887 230.959 956.761 230.828 953.689C234.075 952.446 254.866 952.808 260.331 952.483C261.557 947.175 261.109 917.692 261.101 910.558L261.063 819.515L260.969 455.011C256.188 454.942 251.407 454.91 246.626 454.916C247.149 451.71 247.305 446.385 247.504 442.997C244.368 443.029 241.066 442.899 237.918 442.819C238.379 434.77 238.072 424.091 238.068 415.885L238.007 366.105C243.159 366.099 244.594 365.866 249.429 364.714C249.662 361.035 249.859 357.354 250.019 353.671L260.829 353.134C261.514 343.013 261.091 327.49 261.088 317.01L261.076 250.662L261.082 187.518C261.085 177.283 261.532 161.86 260.815 152.119C269.523 151.442 280.202 151.578 288.997 152.085L288.794 282.027C288.839 304.466 289.619 330.98 288.883 353.027L301.038 353.04L300.969 364.905C305.241 364.858 309.513 364.886 313.784 364.99L313.972 376.589C316.762 376.851 320.111 376.928 322.956 377.058C322.773 380.058 322.938 383.995 322.986 387.068L334.108 387.139L334.059 400.031L392.014 400.035L391.934 410.003L415.631 409.976L415.52 398.949L424.392 398.903C424.067 394.602 424.064 389.418 423.974 385.077C427.788 384.854 431.604 384.659 435.42 384.49C435.28 377.567 435.509 369.796 435.045 363.011L445.26 363.136C446.345 355.261 446.326 342.892 447.095 333.972L457.571 333.923L457.577 313.553C461.883 313.078 464.812 312.977 469.164 312.929C467.203 304.274 465.462 301.897 475.527 302.046C475.405 298.851 475.08 295.337 474.846 292.12L485.051 291.415L485.022 280.969L495.346 280.983C495.047 277.751 495.232 272.307 495.301 269.007L461.784 268.898C459.867 265.614 458.564 264.167 456.009 261.297L456.546 249.08L445.919 249.032C446.07 239.703 446.132 230.373 446.107 221.042C439.634 220.9 432.928 221.273 426.442 221.523L426.32 214.988L415.471 215.035C415.592 209.255 415.113 201.004 414.977 195.062L424.532 194.783C425.15 190.019 425.076 187.852 424.951 183.048L436.228 182.888C435.457 168.626 436.017 149.519 436.068 135.045C428.747 134.935 421.424 134.875 414.102 134.864C414.464 131.12 414.646 126.788 414.921 122.98L425.243 123.127C425.544 119.187 425.385 116.11 425.939 111.988L413.904 111.887C414.335 108.129 414.241 100.187 414.01 96.376C422.008 96.1904 430.01 96.2243 438.006 96.4776L437.949 83.5068L448.969 83.5059L448.946 73.5065L487.44 73.5756L487.673 64.9672ZM289.003 852.966L282.049 852.985L282.009 861.95L272.829 862.021L272.759 870.991L282.058 870.976L282.009 861.95L292.253 861.888C292.577 857.991 292.572 855.887 292.422 851.964C300.481 852.225 323.036 852.402 329.835 851.521C329.973 854.057 329.87 857.418 329.856 860.028C336.428 859.599 343.013 859.399 349.599 859.427C349.197 863.381 349.059 866.283 348.992 870.265C352.329 870.379 355.669 870.38 359.007 870.27C359.997 863.668 360.001 858.392 360.068 851.767C363.176 851.175 365.805 851.042 368.954 850.823C369.18 842.17 368.989 832.744 368.986 824.031C372.181 823.887 375.246 824.643 378.214 823.831C379.446 821.562 379.066 806.593 379.061 802.986L388.506 802.978C388.555 799.004 388.525 795.03 388.416 791.058L396.995 790.997C397.113 785.369 397.118 779.739 397.01 774.111L407.404 774.001C407.369 767.572 408.531 755.619 408.04 750.098L418.054 749.983L417.989 730.995L427.298 730.962C427.715 724.782 427.823 718.123 428.007 711.907C431.289 711.821 434.215 711.856 437.499 711.941C437.536 706.966 437.517 701.991 437.441 697.016L447.482 696.928C447.264 690.977 447.442 684.089 447.474 678.064L457.401 678.006C457.299 674.768 457.098 671.432 456.945 668.187L466.214 667.972C466.089 665.138 466.191 661.609 466.205 658.714C469.22 658.909 473.182 658.844 476.273 658.879C475.827 652.553 476.408 645.748 475.922 638.95C479.775 638.872 483.166 638.764 487.004 638.462C486.984 631.793 487.108 625.124 487.375 618.46C490.268 618.491 493.112 618.666 495.999 618.821C496.243 614.896 496.399 610.968 496.469 607.036L486.051 606.952L485.995 573.999L496.983 573.976L496.948 541.18L505.93 540.824C506.248 533.792 506.209 526.025 506.297 518.962L495.863 518.865C496.443 509.253 496.057 496.79 496.027 486.973L486.118 487.019C486.004 490.214 486.055 493.721 486.039 496.944L476.002 497.119L475.88 507.953C451.069 508.113 426.548 506.517 402.228 507.041C402.05 503.851 402.075 500.237 402.03 497.008C391.996 496.972 380.871 496.704 370.927 497.135L370.915 486.514C361.816 486.582 351.194 486.045 341.867 485.901C342.064 482.878 341.986 479.144 341.997 476.065C338.418 475.945 334.682 475.94 331.087 475.883L331.062 464.062C324.528 464.429 317.557 464.233 310.999 464.094C311.077 461.329 311.543 457.425 309.915 455.257C305.566 454.532 293.789 454.88 289 455.021L289.003 852.966ZM578.528 704.074C575.186 704.005 571.845 703.973 568.503 703.978C568.511 707.323 568.492 710.667 568.448 714.012C564.565 713.987 561.757 713.294 559.162 715.748C558.365 717.779 559.048 727.646 559.062 730.934L548.313 731.063C548.213 734.986 548.036 739.142 548.047 743.046C545.018 743.071 541.092 743.212 538.139 743.071C538.129 745.863 538.543 750.027 537.001 752.123C534.59 753.689 530.382 753.011 527.238 753.146C527 757.743 526.958 762.347 527.114 766.948L519.005 767.105C519.021 772.326 518.968 777.704 519.082 782.91L507.643 783.02C507.824 789.514 508.009 795.414 507.755 801.909L499.035 802.034C499.017 808.249 498.909 814.788 499.067 820.971L488.683 821.046C487.736 827.648 487.907 834.305 487.5 840.98C484.817 841.116 482.809 841.174 480.142 841.632C480.039 846.801 480.225 859.56 478.572 863.438C477.008 864.48 470.656 863.68 468.044 863.764C468.026 868.336 468.125 873.483 467.929 878.007L456.48 878.105L456.436 888.44C453.48 888.673 449.872 889.055 446.978 889.023C446.985 894.29 446.841 900.768 447.066 905.95C444.034 905.941 440.654 905.864 437.653 906.002C437.873 913.274 438.167 927.94 437.567 934.897L428.01 935.036C427.995 940.894 428.084 947.138 427.936 952.962C445.232 952.569 463.594 952.912 480.988 952.913L582.875 952.905C619.399 952.905 656.676 952.513 693.142 952.996C693.055 943.836 693.207 934.067 692.987 924.971C696.403 924.905 699.82 924.916 703.235 925.004C703.479 921.893 703.305 918.178 702.968 915.063L713.127 915.039C713.181 912.095 713.33 908.916 713.092 906.002C719.216 905.992 725.733 906.079 731.817 905.869L731.968 868.244L724.707 867.986C721.127 865.227 717.531 860.656 714.469 857.139L714.042 850.105L706.687 849.794L706.426 849.129C703.467 841.432 706.955 840.686 696.99 841.089C697.069 838.458 697.428 835.98 696.404 833.64C695.566 833.016 695.284 832.838 694.364 832.341C693.443 830.6 693.86 828.106 693.967 826.037C690.736 825.821 687.242 825.391 684.089 825.97L683.98 816.033L673.599 815.912C673.935 812.454 673.688 809.539 673.5 806.08L665.991 805.99L666.007 795.953C661.729 795.67 658.649 795.631 654.352 795.718C654.399 792.733 654.519 789.835 654.201 786.865C649.61 785.717 648.664 785.479 643.847 785.425C643.959 783.082 644.138 780.518 644.164 778.193C641.234 778.207 637.648 778.139 634.775 778.336C635.177 774.365 635.529 769.895 636.111 765.986L626.042 766.022L625.944 753.705C622.024 753.46 619.087 753.253 615.225 752.645C616.584 747.501 616.043 735.599 616.134 729.614L606.839 729.794C607.46 721.618 606.584 713.782 607.247 705.026L599.015 704.962C598.995 697.747 598.258 691.083 598.072 684C592.818 683.978 583.998 683.676 579.03 684.039C578.899 690.718 578.732 697.396 578.528 704.074ZM506.848 629.495L496.96 629.519C496.93 636.728 496.28 641.166 495.934 647.988L486.927 647.968C486.977 655.098 486.744 661.358 486.389 668.491C482.936 668.776 479.477 668.979 476.015 669.102L475.713 677.902L467.091 677.955L467.039 687.99L458 688.008C457.965 693.335 458.018 699.005 457.855 704.298C454.191 704.402 450.612 704.524 446.947 704.458C446.97 709.938 446.928 715.561 447.022 721.028L436.926 720.999C436.986 726.813 436.937 733.209 437.181 738.981L428.541 739.105C428.412 747.003 427.369 751.61 426.888 758.898C423.951 758.842 419.908 758.876 417.066 758.597L416.992 781.546C414.356 781.667 411.711 781.862 409.083 781.704C409.002 786.241 408.606 796.247 409.385 800.355C405.844 800.549 402.584 800.692 399.066 801.175C398.992 805.713 398.997 810.513 398.796 815.025L408.983 814.955L408.955 824.466C414.79 824.808 421.26 825.369 427.031 824.818L427.192 833.666C430.266 833.448 432.953 833.294 435.997 832.77L436.025 840.191C439.256 839.938 441.117 839.796 444.304 839.137C443.637 834.509 444.578 827.317 444.34 822.013C447.376 822.51 448.99 822.507 452.006 822.538L452.043 843.933C454.402 843.901 458.294 843.664 460.447 844.212C460.83 845.039 460.822 844.679 460.749 845.249L460.529 853.072L470.029 853.107C470.281 844.967 471.133 838.225 470.966 829.987C473.368 830.057 477.828 830.076 480.036 830.356L480.06 811.916C482.992 811.925 486.077 811.86 488.985 812.106L489.015 792.02L497.915 791.861C498.04 785.592 498.092 779.322 498.071 773.052C501.558 773.585 505.421 774.075 508.949 774.014C508.922 768.351 508.96 762.695 508.625 757.042L518.877 757.023L518.477 744.571C522.058 744.013 524.349 743.987 527.996 743.916L528.021 730.985C531.455 730.987 535.004 731.038 538.426 730.977C538.004 727.298 538.074 724.184 538.087 720.488L549.409 720.508C548.898 715.357 549.672 709.411 549.514 703.996C552.487 704.08 555.979 704.097 558.908 704.307C559.197 699.98 559.193 698.021 558.888 693.695L569.163 693.836C569.036 687.482 569.01 681.126 569.082 674.772C571.738 674.882 576.182 675.518 578.05 673.843C578.831 668.809 579.931 659.067 579.917 654.086L569.92 653.914C569.984 651.243 570.513 641.471 569.392 639.751C566.767 638.414 566.476 640.442 566.087 637.815C565.744 635.503 565.544 632.502 565.338 630.159C557.085 629.993 546.529 629.942 538.316 630.873C537.903 626.95 537.992 622.999 537.998 619.054C527.545 618.958 517.091 618.94 506.637 619C506.725 622.498 506.795 625.997 506.848 629.495ZM619.924 301.987L608.945 302.061L609.026 313.053C605.642 313.023 602.051 312.928 598.686 312.983C598.932 319.363 599.012 325.748 598.925 332.132L589.644 332.076C590.033 335.878 589.933 340.726 589.829 344.623C589.469 358.204 590.524 372.484 589.802 386.008L600.023 385.958L599.981 363.995L613.478 364.01C613.369 373.038 612.765 390.272 613.429 398.913C620.053 398.839 621.913 399.435 621.218 407.061C620.841 411.207 620.536 414.899 620.515 419.067C624.057 419.079 627.492 419.039 631.024 419.337L631.043 428.989C646.31 428.853 659.909 428.248 674.892 427.918L675.055 439.941L653.411 440.046C653.358 444.372 653.37 448.698 653.445 453.023C658.063 452.975 662.681 452.979 667.298 453.033C666.882 456.646 666.946 459.4 666.974 463.032C669.981 463.178 673.075 463.264 676.049 463.68L676.016 472.743C672.851 472.885 669.684 472.982 666.516 473.035C666.391 470.102 666.206 467.07 666.253 464.143C661.601 464.13 656.766 464.188 652.132 464.064L652.05 454.066L641.182 453.98C641.407 450.238 641.472 444.805 641.182 441.07C636.686 440.999 624.746 440.584 620.921 441.388C620.202 442.478 620.363 441.862 620.28 443.207C620.051 452.603 619.354 461.249 618.987 470.446L609.727 470.972C610.07 475.333 609.741 486.246 609.519 490.929C613.181 491.145 617.056 491.31 620.69 491.644C620.488 495.559 620.435 499.065 620.436 502.989L631.009 502.934L631.031 514.034L657.771 514.058C661.785 514.072 671.289 514.551 674.715 513.789C682.972 511.953 684.471 509.8 694.001 509.337L694.001 495.052C697.637 494.838 700.439 494.401 704.048 493.839L704.012 374.018C700.645 374.014 696.734 373.916 693.416 374.054C693.939 364.069 694.12 354.07 693.957 344.073L683.907 344.032L683.988 312.528L673.088 312.578L672.991 299.625C670.119 299.784 667.244 299.868 664.369 299.879L665.062 290.994C654.526 291.083 643.98 291.165 633.444 290.889C628.941 290.771 624.56 290.13 620.177 289.908C620.053 293.934 619.969 297.96 619.924 301.987ZM672.8 628.937C666.905 628.951 660.466 628.837 654.616 629.006L654.502 645.748L663.987 645.504C663.989 655.54 663.791 666.544 664.038 676.503L673.022 676.45C673.101 683.471 672.609 692.507 675.505 698.64L675.254 699.638C673.178 700.384 665.139 700.129 663.231 699.11C662.603 695.734 663.095 682.415 663.006 678.088L653.968 677.773C654.106 667.887 654.121 657.999 654.013 648.112C651.34 648.016 648.688 647.862 646.019 647.999L646.041 629.997L590.059 630.005C590.412 637.019 590.583 644.04 590.571 651.062L599.017 651.03C598.996 658.544 599.08 666.318 598.936 673.809C604.732 673.718 604.078 676.161 609.055 677.353C608.223 683.159 608.466 688.146 608.556 693.982L617.998 694.001L617.964 721.006C620.326 720.985 623.703 720.735 625.834 721.436C627.316 724.72 626.451 738.745 626.152 743.019C629.026 742.997 633.156 743.083 635.923 742.87C635.982 747.245 635.914 752.712 636.267 756.992L645.999 757.008C645.955 761.119 646.074 767.119 645.463 771.033C648.263 770.984 651.232 770.872 654.019 770.958L653.818 777.972C656.765 778.172 660.603 777.914 662.935 778.763C664.037 780.093 663.781 780.226 663.796 782.405C663.877 783.341 663.788 784.975 664.369 785.373C666.563 786.878 671.974 785.945 674.982 786.002L675.054 797.542L684.185 797.49C684.158 800.612 684.068 803.865 684.21 806.973L693.987 806.941C694.017 810.037 693.95 813.347 694.311 816.4C697.886 816.941 699.809 816.907 703.418 816.894C703.966 820.384 704.188 823.363 704.453 826.89L712.862 826.975C712.602 830.573 712.582 832.343 712.787 835.942C716.768 835.991 727.024 836.306 730.463 835.818C731.427 834.117 728.021 826.674 732.222 826.019C735.085 825.573 739.061 825.945 742.093 825.61L742.164 816.78C747.933 816.553 753.705 816.425 759.479 816.395C759.174 812.989 758.887 810.429 758.386 807.055C763.091 807.027 768.284 807.112 772.945 806.954L773.085 797.569L780.006 797.524C780.442 793.605 780.791 789.677 781.053 785.742C777.257 785.656 774.84 785.572 771.094 786.004L771.022 776.022L763.03 775.897C763.458 772.197 763.377 770.268 763.237 766.517C760.294 766.545 757.135 766.516 754.214 766.619L752.935 757.979C750.232 757.879 746.691 757.657 744.062 757.708C743.661 753.338 742.223 750.287 741.64 746.05L733.248 745.208C732.88 742.418 732.397 739.253 732.141 736.478C728.706 736.505 726.47 736.236 723.063 735.845C722.933 732.061 722.789 730.617 722.071 726.906C719.015 726.706 716.226 726.536 713.158 726.496C712.52 722.012 711.99 718.536 711.876 713.979C709.405 714.05 706.177 714.583 703.949 713.913C701.9 711.898 702.642 703.614 702.38 700.118C699.016 700.071 695.328 699.946 691.994 700.011L692.031 650.85C688.972 650.736 686.076 650.534 683.033 650.889C682.758 640.975 682.415 631.063 682.005 621.155L672.71 621.119C672.732 623.676 672.703 626.398 672.8 628.937ZM548.592 240.178C545.32 240.034 541.756 240.024 538.584 239.305C538.539 245.575 538.622 251.845 538.834 258.112L526.986 258.551L527.016 271.014C523.208 271.02 518.791 270.916 515.033 271.077C514.984 274.202 514.773 278.996 515 281.976C511.551 281.706 509.554 281.759 506.088 281.899L506.036 288.961L497.142 289.051C495.218 326.534 496.915 370.425 496.962 408.367C500.264 408.235 503.568 408.183 506.873 408.21C506.939 434.07 507.896 459.685 508.59 485.526C508.691 489.293 508.982 493.196 508.86 496.945C511.97 496.837 515.169 496.672 518.272 496.758C518.062 504.855 518.235 511.943 518.48 520.032C525.634 519.995 533.926 520.15 540.989 519.815L541.025 511.515C544.959 511.739 574.665 512.139 578.063 511.632L578.044 521.009C589.844 520.905 600.262 523.437 609.726 523.243C605.071 506.598 609.545 512.087 589.995 511.964L590.014 501.858L579.483 501.961C579.436 499.458 579.461 496.442 579.246 493.99L567.858 493.85C568.61 489.7 568.401 487.174 568.112 482.976C565.193 482.883 561.913 482.863 559.034 482.57C559.004 479.581 558.927 476.475 558.964 473.497C554.355 473.218 551.584 473.063 547.02 473.372L546.945 464.405L536.398 464.042C536.769 452.367 537.249 441.375 536.973 429.648C533.337 429.424 529.944 429.191 526.323 428.806C526.629 418.561 527.142 407.146 527.079 396.965L548.98 396.947L548.84 377.83C548.647 375.401 548.244 375.659 549.368 374.296C552.015 373.302 554.942 374.088 558.06 373.989C558.002 358.669 557.276 336.382 558.116 321.453C562.253 321.313 565.776 321.316 569.917 321.421C569.924 314.179 569.989 307.753 569.437 300.537C572.909 300.387 576.379 300.184 579.845 299.928C579.554 296.581 579.308 293.298 578.793 289.976L590.577 289.984C590.451 286.944 590.374 283.699 590.16 280.683L601.017 280.876L600.984 268.55C607.351 268.548 613.761 268.067 619.793 268.075L619.808 258.005C627.025 258.051 634.804 257.957 641.974 258.209L641.964 250.001C637.907 249.875 633.996 249.671 629.943 250.022L629.879 238.989L619.71 239.055C619.661 242.615 619.587 245.379 619.946 248.926C608.889 249.889 601.192 249.953 590.023 249.932L589.996 259.33C586.116 259.185 582.235 259.108 578.352 259.1C578.228 262.652 578.046 266.343 577.999 269.883C575.081 269.796 571.9 269.766 569.01 269.599L569.024 280.122C565.704 280.153 562.383 280.159 559.063 280.138C559.125 283.089 559.095 287.233 559.483 290.058L548.383 290.132C548.447 299.472 548.622 309.044 548.526 318.366L537.979 319.722C538.074 316.936 538.256 313.863 538.149 311.101C531.924 311.113 524.299 311.331 518.189 311.08C518.158 314.805 518.641 330.666 516.875 332.523C513.89 333.226 510.124 332.96 506.964 332.902C507.016 327.279 506.989 321.352 507.185 315.755C507.37 310.448 508.175 305.993 508.032 300.488L516.212 301.112C516.098 294.545 516.111 287.719 515.901 281.19C519.014 281.161 522.295 281.078 525.392 281.128C526.272 286.946 526.67 295.052 527.025 301.067C530.463 301.033 534.002 300.955 537.43 300.987C536.783 295.941 536.929 286.79 537.012 281.458C540.536 281.606 545.519 281.961 548.934 281.81C548.934 278.277 549.086 273.395 548.556 270.033L557.424 270.071C557.455 266.573 557.563 262.802 557.512 259.33C561.062 259.314 564.86 259.363 568.384 259.235C568.392 255.876 568.459 252.351 568.403 249.009L579.879 249.09L580.039 238.025C576.422 237.931 572.668 237.888 569.067 237.726C569.226 234.318 569.323 231.524 569.237 228.115C566.275 228.141 562.462 228.074 559.573 228.301L559.491 218.489C555.518 218.188 551.536 218.016 547.552 217.974C547.781 224.88 547.859 233.45 548.592 240.178ZM792.306 257.989C791.896 251.79 792.435 246.932 792.361 240.905C788.976 240.949 785.403 240.935 782.037 241.052L782.029 230.505C776.844 230.118 773.03 230.143 767.875 230.225L755.65 230.542L755.964 241.037C764.53 241.022 773.605 240.863 782.125 241.143C781.939 244.861 781.839 248.584 781.826 252.307C772.608 252.639 764.801 251.917 756.032 252.001L756.005 242.032L746.074 241.958C746.577 235.069 745.99 227.014 745.984 219.929C758.276 219.985 770.06 219.408 782.107 219.358L782.378 209.061L769.769 209.024C769.705 205.735 769.559 202.075 769.654 198.817C762.306 198.389 752.71 197.81 745.492 198.07C745.529 201.019 745.443 207.391 745.819 210.059C742.815 210.119 738.986 210.307 736.049 210.229L735.96 220.986C732.72 221.081 729.569 221.08 726.365 221.558C725.748 226.274 726.59 227.239 726.506 231.54C726.336 240.307 727.018 249.213 726.973 257.892L734.545 258.03C734.768 261.866 734.835 265.274 734.851 269.12C742.379 267.977 752.526 267.416 760.186 267.109C767.996 266.796 774.111 267.388 782.054 265.946L781.946 257.992L792.306 257.989ZM289.89 409.973L301.044 410.013L300.943 422.064C304.317 422.207 308.462 421.149 310.58 422.844C311.6 424.874 311.269 428.355 311.412 430.994L289.592 430.982C290.003 434.483 290.072 439.381 290.228 442.997L322.045 442.936L322.025 453.455C328.036 453.321 334.049 453.333 340.06 453.489L340.01 442.967L351.998 443.01C353.055 445.842 352.565 460.286 352.486 463.869L341.665 464.031C341.606 467.68 341.525 471.328 341.423 474.976C344.384 474.976 368.918 475.456 370.564 474.918C371.226 471.398 371.027 467.241 370.989 463.608L381.016 463.424L381.012 453.824C381.015 440.229 380.656 424.468 381.28 411.054C375.398 410.897 369.022 410.999 363.101 410.988C362.94 421.454 363.021 432.101 363.002 442.581C359.579 442.602 355.305 442.499 351.998 443.01C351.361 440.498 351.912 415.916 351.949 411.056L335.023 410.974L335.022 420.403C330.814 420.244 327.259 420.255 323.044 420.357C323.068 413.601 323.017 406.845 322.892 400.09C319.077 399.938 315.259 399.85 311.441 399.828C311.256 392.486 311.951 384.866 311.734 377.125L289.937 377.069L290.007 397.625C290.132 401.618 289.966 405.953 289.89 409.973ZM250.449 441C254.475 441 276.663 441.245 278.626 440.435C279.272 437.493 279.095 434.977 279.035 431.991L258.923 431.944C259.212 427.84 259.471 425.063 259.158 420.99L274.125 421.012L279.073 420.978L279.044 411.499C273.914 411.05 266.218 410.671 261.018 411.037L261.004 399.952C266.81 399.951 273.325 400.075 279.068 399.853L279.034 389.045C272.25 388.981 267.854 389.337 261.112 389.72L261.01 378.907C270.188 379.232 270.42 378.412 278.61 377.411C279.204 373.438 279.046 370.116 278.989 366.097C269.55 365.815 260.226 366.103 250.805 365.982C249.121 371.486 249.722 432.319 250.449 441ZM476.214 397.939C475.836 390.98 476.589 345.447 475.396 344.12C471.199 343.427 462.415 344.064 457.516 343.926C456.891 350.843 456.983 358.02 456.838 364.99C453.185 365.049 449.624 365.005 446.011 365.546C445.997 372.954 445.804 381.156 446.019 388.498C442.503 388.545 438.541 388.684 435.066 388.577C435.23 396.056 435.354 403.536 435.438 411.016L426.359 411.057C426.221 414.942 426.071 418.164 426.335 422.035C432.475 421.863 439.991 421.73 446.052 421.258C445.989 424.601 445.884 427.964 445.981 431.304C442.204 432.042 439.591 431.995 435.748 432.065C435.886 439.355 435.977 446.645 436.024 453.936C432.28 453.918 428.401 453.95 424.672 453.829C425.327 447.845 425.098 438.305 425.109 432.003L413.046 431.941L413.006 421.553C406.003 421.525 399 421.559 391.998 421.653C391.848 439.87 391.946 458.088 392.29 476.303C388.801 475.792 384.711 475.973 381.145 476.018C381.178 478.891 381.268 481.942 381.233 484.798L381.737 485.645C386.465 486.183 407.695 485.869 413.066 485.535L413.035 496.554C429.142 497.233 448.805 496.978 465.029 496.512L465.054 485.977L474.993 485.909L475.078 476.047L486.022 476.007C486.126 472.362 486.256 468.719 486.412 465.076C490.054 465.309 493.565 465.149 497.21 465.047L497.086 464.295C496.189 458.598 496.93 447.77 495.708 443.788C492.657 443.694 489.192 444.355 486.608 443.696C485.405 441.927 485.847 403.602 485.951 398.002L476.214 397.939ZM746.535 361.981L757.078 362.079C757.015 365.101 756.769 368.267 757.373 371.191C757.727 371.414 758.244 371.794 758.605 371.896C771.705 371.944 784.284 373.025 797.047 373.044L797.01 362.979C805.713 362.458 814.43 362.201 823.148 362.209C822.345 356.362 821.882 353.175 821.681 347.182C818.768 347.175 816.798 347.118 813.869 346.855C813.965 344.222 814.545 334.383 813.534 332.746L813.14 332.812C802.896 333.096 792.477 333.765 782.347 333.97C770.442 334.21 758.489 333.744 746.507 334.151L746.535 361.981ZM779.464 809.054L779.503 816.986L770.188 817.155C770.131 820.973 770.126 823.183 770.554 826.947L752.573 827.056C752.441 829.96 752.203 833.439 752.229 836.288C747.985 836.013 745.475 835.887 741.261 836.132C741.18 839.635 741.364 842.851 741.538 846.346C737.791 846.03 735.843 846.257 732.064 846.602C732.058 852.209 731.975 857.997 732.141 863.587L740.958 863.898L749.022 863.941L748.977 855.506C752.493 855.668 756.582 855.958 760.054 855.982C759.957 851.794 759.734 848.086 759.415 843.905C762.632 843.858 766.912 843.913 770.019 843.602C769.978 840.925 770.006 837.761 769.867 835.128L779.941 834.984L779.906 826.122C782.827 826.119 786.087 826.176 788.98 826.061L789.053 808.853L779.464 809.054ZM831.3 873.903C828.827 873.837 824.884 873.83 822.518 873.578L822.471 884.985C819.875 884.994 816.846 884.928 814.289 885.074C813.304 887.859 812.327 890.547 811.505 893.387C809.208 893.378 807.598 893.105 805.661 894.233C803.773 896.554 804.505 899.888 804.668 903.06C800.704 903.167 796.201 903.184 792.288 903.479C791.941 906.669 791.625 909.876 791.161 913.05L783.013 912.834C782.979 915.729 782.858 919.113 783 921.955L774.03 921.979L774.05 933.082C770.41 933.161 766.686 933.183 763.068 933.525C762.926 936.84 762.836 938.81 762.304 942.101C756.195 941.647 750.018 942.003 743.904 941.916C730.668 941.728 716.736 942.296 703.579 941.907C703.875 945.968 703.966 948.904 703.918 952.972L715.125 952.836C728.913 952.299 754.304 952.012 767.927 952.82C768.274 949.978 768.56 947.912 768.543 945.018C772.439 944.868 775.053 944.61 778.927 944.087C778.87 940.567 778.904 936.4 778.659 932.944L788.402 933.401C788.175 930.269 788.04 927.131 787.997 923.992L798.09 923.956L798 914.882L808.538 914.958C808.53 911.198 808.559 909.658 807.887 905.992L819.075 905.966L818.984 895.943L830.471 895.98L830.497 886.4C834.399 886.966 836.88 886.909 840.853 886.889C840.402 880.396 840.485 874.226 840.506 867.722C838.305 867.746 833.475 867.903 831.529 867.664L831.3 873.903ZM316.02 907.985L316.019 899.066L305.697 898.98C305.37 896.242 305.022 893.76 304.974 890.994L290.882 891.065C291.32 894.7 291.839 898.722 292.119 902.353C295.085 902.14 297.006 902.06 299.936 901.356C300.038 904.285 300.077 907.113 300.44 910.023L313.348 909.916C313.275 913.753 313.275 915.893 314.094 919.768C316.319 919.25 318.063 918.56 320.184 919.181L321.018 919.995C320.93 920.963 320.831 921.82 320.699 922.784C323.152 924.597 333.79 923.669 338.083 923.94L338.061 932.486C345.388 932.125 355.688 931.565 362.784 932.71C362.894 935.476 362.908 938.245 362.828 941.013C372.631 940.847 381.489 942.072 391.444 941.969C391.403 945.914 391.254 948.607 390.862 952.534C399.2 952.511 407.538 952.592 415.875 952.778L417.469 952.718C419.03 950.47 417.414 945.056 417.092 942.028C414.229 941.643 402.344 941.314 401.284 940.896C399.897 939.512 399.712 938.892 399.722 936.953C399.745 935.191 399.799 933.429 399.882 931.669C390.682 932.13 380.351 931.958 371.063 931.995C371.105 929.057 371.074 925.95 371.346 923.04L341.048 922.952C341.181 919.53 342.012 914.927 337.127 914.509C334.477 914.282 330.483 915.142 327.769 915.579C327.197 915.67 326.625 915.767 326.055 915.873L326.018 908.002L316.02 907.985ZM735.64 323.008C757.512 323.011 781.609 323.511 803.308 322.943C803.371 315.37 804.099 307.415 804.045 300.169C800.555 300.082 795.935 299.84 792.552 300.052C792.465 294.225 791.688 283.003 793.77 277.928L771.051 277.973L771.027 287.712C759.947 288.343 747.295 287.86 736.059 287.999L735.991 277.88C731.83 278.105 727.566 277.927 723.595 278.215C712.514 278.99 701.394 279.016 690.308 279.723C687.698 279.889 685.09 280.029 682.474 279.969C682.356 283.823 682.176 287.817 682.127 291.658C690.349 291.549 696.815 291.6 705.022 291.973C704.818 302.135 705.193 312.712 704.88 322.722C707.91 322.601 712.097 322.557 714.98 322.044C714.812 332.964 717.366 367.089 714.983 374.072L725.583 374.038C724.987 410.869 725.162 445.295 725.536 482.004C754.911 481.996 784.755 482.287 814.077 481.975L814.025 460.588L788.375 460.586C774.495 460.571 759.921 460.342 746.098 460.665L746.023 449.608C743.092 449.532 738.693 449.294 735.884 449.442C736.231 421.104 736.009 392.374 736.008 364.007C732.489 363.968 728.781 363.867 725.28 363.915C725.213 358.48 725.091 352.83 725.253 347.409C725.389 342.87 726.075 338.244 726.206 333.67C729.409 333.654 732.611 333.576 735.81 333.436C735.753 330.063 735.609 326.35 735.64 323.008ZM725.041 176.834C721.722 176.853 718.191 176.934 714.899 176.787C714.67 183.5 714.923 191.173 715.01 197.963L704.51 198.006C704.103 215 703.909 231.998 703.93 248.997L716.011 248.97C716.002 243.894 715.545 211.23 716.578 209.016L717.558 208.667L725.356 208.931C725.155 204.762 725.434 201.172 725.39 197.131C728.869 197.126 732.475 197.07 735.941 197.122L735.964 186.952L778.999 187.038L778.908 176.53C769.902 176.95 763.62 177.371 754.615 176.304L754.481 165.993C744.666 165.915 734.851 165.91 725.036 165.979L725.041 176.834ZM388.846 836.873C385.729 836.999 381.841 837.051 378.797 837.328C378.928 840.832 378.908 843.415 378.758 846.92C385.683 846.897 392.608 846.929 399.532 847.015C399.357 850.187 399.057 853.978 399.078 857.106L410.03 857.095L410.002 864.075C415.22 863.777 422.042 863.21 427.094 863.901L426.432 871.882C430.141 871.954 434.264 871.948 437.93 872.177L437.929 877.852C441.07 877.617 444.949 877.429 448.013 877.042C448.012 875.199 447.771 869.477 448.515 868.236L449.019 868.039C451.036 867.996 453.374 868.008 455.358 867.867C455.142 863.927 455.175 860.605 455.246 856.65C451.758 856.852 448.706 856.79 445.331 856.914C445.173 853.935 444.964 850.917 445.017 847.939L436.075 848.014L435.979 842.086C433.855 842.005 426.891 841.041 426.614 844.102C426.538 844.936 426.375 845.379 426.12 846.16C423.892 847.542 421.921 847.076 419.124 846.943C419.573 844.619 420.038 841.787 420.587 839.531C422.11 838.983 424.044 838.226 425.564 837.842C424.593 835.914 424.093 834.298 422.302 833.256C418.681 832.687 414.045 835.552 408.316 836.597C408.163 833.345 407.988 830.181 408.019 826.923L390.123 827.01C389.56 830.44 389.348 833.585 388.846 836.873ZM290.035 891.945C290.054 889.134 290.252 883.532 289.77 881.024C288.995 880.683 289.337 880.692 288.775 880.771L282.001 881.092C281.96 883.808 281.714 889.034 282.226 891.458C283.111 892.01 282.701 891.896 283.38 892.002L290.035 891.945ZM641.099 278.996L673.077 278.907L673.042 269.02C664.43 268.926 649.833 268.359 641.651 269.164C641.038 272.935 641.092 275.142 641.099 278.996ZM548.249 523.969L548.352 535.001C551.572 534.815 554.837 534.582 558.06 534.552L558.02 557.777C555 557.786 551.917 557.756 548.904 557.869L548.45 558.482C548.366 561.416 548.214 564.558 548.197 567.472L568.309 567.445C568.05 562.917 568.983 524.045 567.581 522.709L567.208 522.775C562.234 523.051 552.552 524.134 548.249 523.969ZM660.274 248.758C661.996 249.508 679.961 248.976 683.502 248.932C683.753 235.321 683.894 221.708 683.926 208.094C683.946 202.994 684.227 191.436 683.483 186.759C686.828 186.703 689.25 186.734 692.583 186.959C692.696 175.102 693.267 177.218 704.098 176.201C703.973 172.719 703.921 169.503 703.416 166.049C689.753 165.977 676.09 166.026 662.428 166.195C657.716 166.217 646.584 166.537 642.531 166.047L642.532 176.994L630.01 176.979L630.021 185.992L609.991 185.983L609.983 209.994C606.316 209.983 602.308 209.891 598.677 210.063L598.556 218.983L629.527 217.922C629.694 221.389 630.001 225.517 629.809 228.924C633.862 228.828 637.916 228.768 641.969 228.742L642 238.034L660.341 238.124C659.999 241.773 660.17 245.102 660.274 248.758ZM792.977 240.95C795.522 240.998 800.532 241.243 802.833 240.794L803.058 240.072C802.992 230.361 804.151 219.103 803.956 210.577C799.729 209.891 797.294 209.877 792.962 209.821L792.977 240.95ZM389.086 857.151C385.798 857.128 382.51 857.141 379.222 857.191C378.872 861.483 378.972 865.648 379.007 869.947C381.485 869.986 386.468 870.201 388.716 869.815L389.086 857.151ZM781.145 188.048C781.401 191.51 781.498 194.539 781.554 198.014C784.858 198.15 788.683 198.397 791.944 198.387L792.204 188.04L781.145 188.048ZM359.024 879.97L359.088 889.42L368.381 889.982C369.45 888.622 369.02 882.957 368.963 880.851C371.532 881.023 374.428 881.125 376.936 881.573C377.23 877.872 377.592 874.053 377.653 870.35C374.764 870.19 371.945 870.012 369.048 869.989C369.041 873.166 368.945 876.879 369.085 880.005L359.024 879.97ZM289.008 952.501L356.261 952.973C356.168 949.659 356.033 946.255 356.027 942.947C347.013 943.054 337.997 943.004 328.984 942.798C329.584 939.403 329.805 936.401 330.093 932.971C322.983 932.819 315.946 932.92 308.955 931.603C309.024 928.648 309.008 924.852 309.236 921.974C304.873 921.932 297.999 921.649 293.832 921.943C293.675 919.565 293.918 915.568 292.86 913.734C291.501 912.692 290.422 912.941 288.667 912.968C288.891 920.249 289.304 927.747 289.459 934.981C289.576 940.398 289.003 946.798 289.008 952.501ZM740.99 901.015C745.18 901.018 755.562 901.275 759.26 900.886C758.676 895.265 758.79 891.424 751.647 891.796C748.206 891.975 744.409 891.981 740.937 892.009L740.99 901.015ZM741.219 873.861C741.208 875.545 740.668 881.909 742.015 882.422C748.183 882.285 753.664 883.23 759.997 883.205C759.746 879.935 759.612 876.644 758.847 873.462L758.375 873.119C753.167 874.344 746.794 873.542 741.219 873.861ZM599.444 238.956C599.669 235.598 599.936 232.232 599.988 228.868C596.926 228.846 592.103 228.964 589.263 228.435C589.02 232.074 588.913 235.352 588.853 239.001L599.444 238.956ZM350.421 880.03C347.857 880.003 343.394 880.066 341.024 879.793L340.847 894.997C342.881 895.019 347.925 895.263 349.549 894.683L349.727 894.177L350.421 880.03ZM786.381 418.833C786.374 412.103 785.976 400.098 786.45 393.659L778.051 393.011L777.986 383.385C767.427 383.103 756.865 382.97 746.302 382.987C746.848 392.79 747.068 400.088 747.005 409.875C747.027 419.555 747.145 428.367 747.478 438.042L814.316 437.979C814.114 433.998 814.004 429.069 813.181 425.238C816.92 425.022 820.666 424.932 824.411 424.968C823.351 411.976 824.026 388.046 824.007 374.051C821.016 374.025 817.007 373.884 814.105 374.114C813.783 377.099 814.021 380.405 814.126 383.435C810.937 383.546 807.095 383.586 803.969 383.89C803.981 395.838 803.869 408.021 804.023 419.949C797.308 419.995 793.071 419.99 786.381 418.833ZM502.085 257.041C504.731 256.986 504.563 257.448 506.032 256.109C507.003 253.53 506.306 250.414 506.45 247.339C513.577 247.348 520.619 247.148 527.683 247.133L527.499 235.522C530.813 235.486 534.128 235.425 537.442 235.34C537.411 227.642 537.877 213.755 537.512 206.668C541.906 206.344 546.432 205.921 550.825 205.961C550.797 202.785 550.872 199.723 550.43 196.58L560.021 195.921C558.562 189.167 559.044 168.504 559.336 161.044C554.012 160.757 550.125 160.692 544.862 159.671C545.11 162.866 545.511 166.718 545.448 169.862C542.281 169.91 539.063 169.989 535.901 169.993C535.947 174.234 536.076 178.753 535.953 182.97L525.062 182.949C524.921 185.278 524.82 187.693 524.542 190.003C520.547 189.933 516.553 189.839 512.559 189.722C513.604 178.33 511.775 163.962 512.008 152.024L500.973 152.261C501.091 143.254 500.837 134.009 501.008 125.113C496.774 125.096 494.217 125.122 490.045 125.61C490.066 121.91 490.275 116.01 489.838 112.512L489.207 112.144L488.78 112.281C483.658 112.474 478.038 112.573 472.982 112.91L473.072 123.004L457.181 122.993C457.149 126.596 457.046 130.42 457.106 134.002C453.645 133.938 450.425 133.889 446.965 133.994L446.979 193.981L437.589 194.113C437.644 198.033 437.799 202.389 437.602 206.263C443.56 204.959 450.77 204.731 457.03 203.888C457.04 212.52 456.993 221.216 457.108 229.841L467.056 229.994L467.003 218.977C475.912 219.008 487.325 219.254 496.051 218.647L495.781 230.206C486.928 230.172 476.88 229.992 468.057 230.55L468.071 257.001L502.085 257.041ZM587.804 397.004C582.136 396.474 565.139 398.045 557.904 398.004C557.883 401.926 557.917 405.584 557.515 409.501C551.07 409.538 544.388 409.663 537.972 409.477C537.919 412.877 537.774 416.713 537.908 420.07L548.572 420.013C548.019 432.804 548.404 446.788 547.683 458.986C551.28 458.819 555.566 458.728 559.096 458.381L559.141 470.677C569.322 471.023 588.338 469.963 598.433 468.915C598.438 465.72 598.516 462.243 598.435 459.075L607.996 458.904C607.795 444.889 607.533 432.396 608.426 418.4L598.948 418.538C599.015 411.119 599.019 403.7 598.961 396.28C594.397 396.317 592.262 396.425 587.804 397.004ZM721.504 493.185L714.993 493.795L714.882 533.517L705.013 533.551L704.967 516.831C701.629 516.876 698.291 516.825 694.957 516.679C695.282 521.871 695.648 525.919 696.285 531.078C706.217 535.111 705.033 536.546 704.885 547.053C708.158 547.069 711.744 547.159 714.988 547.072L714.907 558.026C733.661 558.066 752.034 557.739 770.755 556.988C774.251 556.848 778.716 557.671 781.967 556.86L783.264 558.364L783.851 558.076C784.215 555.196 784.09 552.22 784.052 549.311C789.971 549.033 796.675 549.038 802.391 547.854C802.757 543.673 803.083 540.257 803.026 536.076L770.991 536.181C759.994 536.243 746.225 535.807 735.506 536.288L734.922 524.278C740.482 522.968 750.916 525.068 757.537 524.872C767.694 524.573 777.621 525.19 787.868 524.231C796.248 523.446 805.3 524.224 813.77 523.923C813.931 516.79 813.995 509.654 813.961 502.52L755.003 502.975C748.959 503.058 741.806 504.12 736.028 503.967C736.037 507.806 735.923 512.509 736.129 516.278C733.257 516.456 728.743 516.61 726.03 517.02C725.961 509.243 725.23 501.526 724.895 493.726C723.998 492.845 722.839 493.077 721.504 493.185ZM643.268 547.956C643.114 550.781 642.938 553.552 642.947 556.385C625.744 555.786 605.096 555.543 588.016 555.877C587.98 560.051 587.875 564.4 587.912 568.557C584.699 568.296 581.224 567.932 578.033 567.935C578.027 570.52 578.187 575.025 577.59 577.369C574.199 579.683 553.154 577.853 547.106 577.828C547.603 574.742 547.509 573.066 547.445 569.993L529.024 569.997L529.063 555.986L507.871 555.976C507.841 559.644 507.508 574.763 507.951 577.36C504.494 577.522 501.038 577.716 497.584 577.943C498.189 585.165 498.311 589.997 496.711 597.03L528.106 596.982C528.042 599.69 527.57 603.295 528.562 605.571C529.942 606.275 529.716 606.064 531.432 606.015C548.462 606.018 566.024 605.788 583.006 606.037L583.034 616.032C600.032 615.941 615.805 617.134 633.033 616.994L633.004 606.989C639.126 606.914 648.364 606.323 654.029 606.69L654.027 597.082C667.36 596.969 680.694 596.947 694.028 597.015C693.904 587.72 693.889 578.424 693.984 569.129L683.762 569.051C684.019 562.009 683.918 555.038 683.864 547.993C670.332 547.901 656.8 547.888 643.268 547.956Z"/><path d="M503.949 738.192C505.23 737.945 504.778 737.968 506.055 738.137C506.561 739.325 506.358 743.037 506.536 744.978C503.486 745.078 500.223 745.041 497.153 745.059L497.053 753.012L487.952 753.012C487.996 758.445 487.846 764.058 487.813 769.514C484.599 769.574 481.312 769.55 478.091 769.561C478.089 774.428 478.126 779.296 478.202 784.163C475.437 784.053 472.128 783.601 469.695 784.69C467.943 787.976 468.299 799.915 468.611 803.833C465.507 804.461 463.525 804.623 460.381 804.886C460.382 805.224 460.383 805.562 460.384 805.899C460.841 816.818 456.996 811.598 459.819 823.046C457.731 823.034 453.918 823.283 452.387 822.012C452.541 817.888 453.157 808.635 452.483 804.965L460.131 804.986C460.09 799.056 460.235 790.722 459.572 785.072C465.167 784.857 466.732 784.903 471.953 782.801L471.976 769.643C474.308 769.788 475.768 769.688 478.109 769.53L477.978 759.67C475.633 759.595 474.332 759.794 472.018 760.077L471.974 749.682C476.362 750.134 482.413 749.993 486.938 750.015C487.127 747.04 487.065 743.997 487.052 741.01C488.437 741.051 493.568 741.235 494.56 740.87C498.949 739.253 499.18 738.769 503.949 738.192Z"/><path d="M530.781 681.977C533.298 682.02 535.88 681.932 538.402 681.882C538.443 685.685 538.37 689.828 538.938 693.555L531.079 693.054C530.735 696.983 530.247 701.029 529.826 704.962L521.388 704.92C521.336 708.54 521.114 712.378 520.967 716.013L513.124 715.956C512.966 720.251 512.705 723.126 512.141 727.396C510.813 728.568 507.496 728.244 505.976 727.298C504.435 724.047 506.039 719.208 506.814 715.461C515.951 716.81 513.045 711.478 513.02 703.968L521.945 703.932C522.104 700.273 522.03 696.673 521.989 693.012L529.964 693.081C530.301 689.384 530.573 685.683 530.781 681.977Z"/><path d="M556.988 655.298C559.891 655.604 565.911 655.457 569.04 655.472L569.026 662.436C567.437 662.593 557.713 665.349 556.728 665.91L556.411 667.984C556.537 669.569 556.771 670.664 556.261 672.165C554.211 673.714 551.433 673.118 548.61 673.003C548.881 670.299 548.87 666.226 548.936 663.392L556.928 663.588L556.988 655.298Z"/><path d="M453.841 732.276L455.29 732.228L456.016 732.96C455.539 739.248 460.17 737.805 465.058 737.528C464.923 740.171 465.247 743.504 463.86 745.386C462.216 746.399 460.394 746.063 458.409 745.979L457.457 745.704C457.073 744.728 456.697 743.749 456.328 742.767C453.921 740.465 450.291 740.986 447.018 741.054L447.044 732.37C449.31 732.358 451.576 732.327 453.841 732.276Z"/><path d="M538.895 672.958C541.493 673.041 544.24 672.972 546.85 672.951C546.493 675.505 546.317 679.275 546.121 681.944C544.923 682.377 540.38 682.025 538.795 681.968L538.895 672.958Z"/><path d="M689.077 699.461C689.33 704.707 688.187 705.108 687.658 710.051C687.354 712.886 687.462 716.615 687.539 719.51L676.068 719.627C674.255 719.666 672.274 719.952 670.803 719.047C669.918 717.653 670.422 713.104 670.406 711.042L675.998 710.863L676.047 699.997C678.434 700.02 680.831 699.847 683.216 699.716C684.345 699.559 687.768 699.515 689.077 699.461Z"/><path d="M673.132 729.11C679.563 729.261 686.522 729.11 692.994 729.085C693.031 732.147 693.189 735.418 692.803 738.431C686.354 738.755 679.897 738.921 673.44 738.93C673.47 735.37 673.536 732.652 673.132 729.11Z"/><path d="M694.354 737.737L702.1 738.515L702.025 746.947L709.013 746.92C708.895 749.985 708.376 751.588 710.232 753.675C711.893 753.881 712.38 753.792 713.613 754.928C714.442 756.663 714.078 759.407 713.996 761.444C709.05 759.879 708.047 759.643 703.011 759.03C702.957 754.471 702.811 751.618 702.286 747.102L694.399 746.798C694.207 744.094 693.772 740.274 694.354 737.737Z"/><path d="M728.687 774.039L729.284 774.03L730.244 774.028C732.003 774.013 733.013 773.724 734.409 774.749C735.399 776.335 735.083 779.19 735.067 781.204L745.054 780.991C745.081 784.329 745.172 787.721 744.95 791.048L736.004 791.111L735.905 782.999L727.679 783.005C727.931 779.756 728.193 777.256 728.687 774.039Z"/><path d="M753.424 790.855L753.811 790.972C754.512 793.121 754.487 797.578 754.577 800.056L747.011 800.13C746.664 797.184 746.45 794.007 746.202 791.036C748.692 791.072 750.947 790.968 753.424 790.855Z"/><path d="M716.046 767.179C719.333 767.175 722.621 767.136 725.908 767.061C725.948 769.14 725.672 771.246 725.467 773.323C722.156 774.122 719.407 773.983 716.01 773.996L716.046 767.179Z"/><path d="M472.14 143.214C476.568 142.711 485.574 143.019 490.84 142.741C490.706 146.787 490.685 149.938 490.856 153.975L478.125 153.959L457.042 153.918L456.997 143.9C462.053 143.925 467.107 143.697 472.14 143.214Z"/><path d="M465.048 164.682C468.934 164.847 474.051 164.654 478.031 164.623C478.062 167.655 478.652 182.938 477.377 184.654C472.958 185.054 468.508 184.982 464.104 184.437C463.66 178.415 465.187 171.796 465.048 164.682Z"/><path d="M452.177 431.727L457.058 431.484L457.082 453.896L452.316 453.983C450.568 453.995 448.405 454.203 446.903 453.494C445.486 450.101 445.978 436.487 445.997 431.963L452.177 431.727Z"/><path d="M321.314 404.805L321.997 405.257C322.185 408.033 322.318 408.966 321.743 411.736L321.066 411.825C321.457 409.558 320.961 407.382 321.314 404.805Z"/></svg>