<?xml version="1.0" encoding="utf-8" ?><svg xmlns="http://www.w3.org/2000/svg" xmlns:xlink="http://www.w3.org/1999/xlink" width="1024" height="1024" viewBox="0 0 1024 1024"><path d="M429.141 215.934L627.996 215.957C627.959 221.897 627.79 226.058 627.252 231.977C630.646 232.009 634.04 232.081 637.433 232.191C637.645 237.802 637.678 243.417 637.532 249.029L649.735 248.916C649.515 257.4 649.642 267.441 649.609 276.026C651.568 275.993 657.857 275.606 659.048 276.545L658.423 279.063C659.578 283.1 663.77 295.024 665.864 298.229C668.812 299.615 699.365 299.037 704.955 299.018C704.787 284.02 706.669 268.274 706.534 253.25L719.992 253.468L719.851 243.48L835.525 243.441C835.603 247.587 835.895 251.675 835.948 255.908C840.973 255.35 845.576 255.484 850.61 255.527C850.669 270.257 851.798 283.849 851.983 298.529L868.559 298.521L869.028 312.252C872.91 311.78 877.008 310.813 880.564 312.2C882.904 314.875 882.085 322.486 882.192 326.796C886.507 326.97 891.194 326.942 895.542 327.003L896.648 765.607C892.237 765.717 887.727 765.921 883.332 765.625C883.546 769.603 884.683 775.44 885.2 779.754L868.499 779.985C868.602 784.272 869.174 787.712 869.805 791.927L615.625 791.99L299.793 791.981L200.729 791.972L172.362 791.938C166.967 791.938 160.246 792.135 154.957 791.641C155.516 777.927 154.076 779.925 141.12 779.755L141.403 765.888C137.591 765.845 133.78 765.859 129.969 765.931L129.892 326.849L141.335 327.005C141.408 322.044 141.394 317.082 141.291 312.121C147.288 312.069 152.933 312.042 158.933 312.245C158.889 307.825 158.793 303.405 158.645 298.987C164.806 299.057 167.206 298.824 173.044 297.455C173.349 297.384 182.638 298.043 184.005 298.053C183.614 291.709 184.1 282.908 183.967 276.069C188.244 275.981 192.731 276.041 197.028 276.03L197.126 261.128C201.566 260.988 206.117 261.024 210.567 261.048C242.982 261.217 275.457 260.739 307.866 261.133C308.026 266.274 307.934 271.404 307.882 276.547C311.403 276.481 314.924 276.443 318.446 276.433C318.106 283.481 318.24 291.936 318.451 298.994L388.903 298.992C388.983 291.3 389.012 283.608 388.991 275.916C394.389 275.906 399.109 276.515 404.413 277.215C404.246 268.105 403.933 258.189 409.896 249.677C410.857 248.306 416.011 248.943 418.061 249.031C418.108 245.422 417.055 234.309 418.033 232.426C420.483 230.319 425.845 230.936 429.297 230.973C429.019 225.988 429.488 221.233 429.141 215.934ZM713.692 476.906C716.989 476.877 720.454 476.9 723.734 476.761C722.787 490.626 725.746 494.806 725.531 506.969C728.901 507.037 732.14 507.08 735.503 507.34L735.698 560.958C735.767 567.678 735.56 580.547 736.349 586.734L736.5 587.99L726.022 587.831C725.996 597.167 726.134 605.554 727.325 614.809C727.795 618.461 726.937 623.31 727.14 627.151L716.466 627.09C716.451 634.432 716.292 639.767 717.157 647.048L702.49 646.976C702.2 656.428 701.241 667.674 701.475 677.012C696.471 676.996 690.998 676.865 686.034 677.035C685.609 681.112 684.843 687.031 684.732 691.068C681.043 690.94 676.639 690.9 673.044 690.444C672.937 694.635 672.902 698.828 672.94 703.02C667.224 702.812 661.707 702.951 655.995 703.057L655.751 717.736C652.717 717.848 649.487 718.026 646.472 718C646.414 720.062 646.756 723.742 645.68 724.908C643.568 725.221 643.436 724.88 642.113 726.044C641.758 728.067 642.051 728.782 640.846 729.727C635.993 730.258 622.033 729.858 616.185 729.976C616.01 734.635 615.948 739.298 615.998 743.96C607.042 743.98 597.441 743.819 588.54 744.056L588.495 752.973L469.963 752.977C470.17 749.193 470.217 746.921 470.016 743.147C459.576 743.2 448.443 743.434 438.06 743.249L438.036 730.013C431.567 730.065 425.897 730.091 419.585 728.419C417.247 727.8 414.363 727.908 411.932 728.004C412.071 724.081 412.136 719.823 412.48 715.941C407.458 715.91 402.438 715.849 397.417 715.759L397.424 704.073C391.59 704.053 386.484 704.034 380.65 703.604C382.609 702.857 385.615 702.72 386.788 701.621C385.978 700.135 384.298 700.159 382.72 699.935L382.96 688.201C378.583 688.228 374.11 688.436 369.799 688.436C370.737 683.21 370.257 678.964 370.84 673.971C368.088 673.984 360.591 674.405 358.803 673.047C358.864 670.043 359.49 663.05 358.788 660.771C356.545 658.987 356.132 661.306 355.982 657.626C355.832 653.952 356.001 649.783 356.068 646.099L344.017 645.946C344.56 638.466 343.823 630.846 344.315 623.09C340.938 623.069 337.235 623.117 333.89 622.932C334.427 610.764 333.956 597.445 334.046 585.169C330.578 585.144 326.349 585.003 322.96 585.307C323.2 558.751 323.233 532.194 323.059 505.638C326.735 505.804 330.415 505.881 334.094 505.869C333.982 495.389 334.386 483.323 333.973 473.088L344.872 472.997C344.634 469.713 344.624 468.275 344.812 464.988L220.455 464.968C199.172 464.966 177.195 465.244 155.962 464.934L155.966 581.375L155.977 695.176C155.979 712.899 156.689 735.835 155.907 753.008L170.007 753.011C169.986 758.036 169.903 761.504 170.791 766.458C181.955 765.497 201.705 766.014 213.36 766.038L283.477 766.343C321.492 766.829 359.65 766.301 397.662 766.064C410.188 765.986 422.745 766.391 435.286 766.377L713.421 766.322L806.552 766.334C821.738 766.338 840.602 765.871 855.522 766.465C855.57 762.385 855.721 757.861 855.531 753.82C859.771 753.85 864.671 754.03 868.821 753.497C870.318 751.653 868.29 741.958 868.845 739.343C871.109 728.663 870.224 718.523 870.221 707.598L870.24 656.243L870.091 465.168L762.927 464.946C751.109 464.906 723.488 465.656 712.856 463.947C713.313 468.502 713.533 472.326 713.692 476.906ZM589.963 365.002L547.056 364.923C534.105 364.779 520.359 364.37 507.428 364.73C494.963 365.225 482.479 364.852 470.022 365.032L470.014 377.99C460.328 377.943 450.642 377.949 440.955 378.009C440.996 382.422 441.173 387.569 441.031 391.925C437.123 391.94 433.261 391.95 429.368 392.303C423.934 392.796 420.044 393.85 414.571 393.552C414.309 398.6 413.912 404.11 413.898 409.129C400.642 408.339 401.079 407.058 400.93 420.108C397.123 419.944 393.992 419.868 390.19 419.965C389.932 424.945 389.923 429.039 389.991 433.988L377.123 433.989C377.078 440.912 376.949 447.968 377.208 454.873L364.201 455.004C364.109 466.2 364.744 479.21 364.433 489.954C359.387 489.672 355.954 489.907 351.036 489.941L351.057 603.59C355.743 603.49 359.255 603.503 363.923 603.797C363.927 613.945 363.553 623.976 363.527 633.974C367.614 633.978 371.972 634.062 376.034 633.96C375.643 643.277 375.02 650.762 376.218 660.021C380.245 660.058 385.644 659.955 389.542 660.355C389.33 669.882 392.443 665.452 394.236 673.827C397.201 673.753 401.065 673.549 403.956 673.642C403.896 677.86 403.843 680.96 403.357 685.126C406.482 685.105 410.077 685.182 413.127 684.829L413.008 696.419C417.783 696.487 422.793 696.47 427.536 696.829L427.216 703.951C430.08 703.952 438.052 703.617 440.464 704.273C443.789 707.691 439.812 712.142 441.554 716.233C443.891 717.918 465.688 716.942 470.609 717.155C470.364 721.645 470.082 726.059 470.099 730.56C479.001 731.062 490.814 730.485 500.054 730.466L555.75 730.546C566.983 730.435 578.218 730.567 589.445 730.942C589.442 728.859 589.102 719.134 590.214 718.428C593.614 716.27 608.47 716.019 612.374 716.116C612.4 712.927 612.341 711.663 612.998 708.504L613.19 707.562C613.232 707.373 613.275 707.184 613.317 706.995C617.753 706.833 622.89 706.285 627.042 707.522L627.005 698.937L639.491 698.922C640.379 694.271 640.528 692.304 640.643 687.565C646.463 687.079 651.044 687.016 656.871 686.989L656.816 675.462L667.299 675.513C666.884 671.193 666.95 666.381 666.91 662.004C670.915 662.057 679.452 661.957 683.016 662.428L683.007 636.067C685.751 636.134 691.836 636.737 693.758 635.212C696.825 628.253 693.261 616.06 694.453 608.813C694.849 606.407 705.428 606.982 707.467 607.03C706.375 602.932 707.372 599.054 706.94 595.147C705.957 586.267 707.255 577.386 706.972 568.654C706.239 546.132 706.837 523.696 706.866 501.172C706.866 498.657 706.742 495.942 706.931 493.45C703.892 493.389 699.596 493.461 696.777 492.728C695.992 491.851 696.563 464.559 696.581 460.541C692.107 460.52 687.494 460.56 683.034 460.472L683.052 437.009L669.552 436.503C669.51 431.397 669.462 427.678 668.79 422.602C665.375 422.504 661.8 422.344 658.399 422.426C658.343 418.095 658.159 412.911 658.317 408.624C653.139 408.938 648.565 408.915 643.4 408.883C643.342 405.297 643.026 399.894 643.186 396.493C639.115 396.47 634.851 396.376 630.798 396.438L631.379 390.976C626.33 390.925 620.57 390.733 615.58 390.937C616.025 386.068 616.073 382.782 616.019 377.876C607.821 377.858 597.788 377.578 589.743 377.901C589.934 373.604 590.007 369.303 589.963 365.002ZM169.423 339.763L155.829 340.033C155.279 372.662 157.084 408.783 155.825 441.015L289.58 441.022L332.602 441.021C341.949 441.021 351.609 441.23 360.909 440.633L360.983 420.272C364.772 421.163 369.126 421.002 373.062 420.976C373.444 416.451 373.383 411.615 373.419 407.052C377.527 406.998 380.008 406.976 384.029 406.367L383.949 395.295C392.711 394.477 395.583 397.315 398.568 388.566C399.276 388.278 399.983 387.986 400.688 387.69C401.21 385.058 401.533 380.337 403.036 379.13C406.2 378.869 409.698 379.001 412.896 379.042C413.093 374.944 413.444 370.14 413.351 366.093C417.987 366.047 420.797 365.469 425.266 365.172C430.519 364.823 436.666 364.981 441.985 365.022C441.96 360.967 441.845 356.521 442.018 352.502L470.83 352.518C470.875 348.988 471.05 344.393 470.752 340.983L547.586 341.137C560.832 341.118 575.003 340.783 588.137 341.023C587.529 345.108 587.812 348.217 588.005 352.351C597.578 352.143 606.406 351.857 615.967 352.525C616.027 356.088 616.042 359.751 616.153 363.303L624.335 363.561C627.973 368.907 631.462 367.611 637.477 367.366C637.578 370.8 637.616 374.614 637.937 377.998C642.668 378.072 651.818 378.007 656.121 378.642C657.091 383.66 656.864 386.44 657.265 391.264C662.79 391.072 668.319 390.999 673.847 391.046C671.81 391.428 667.573 392.02 665.957 392.952L665.461 394.03C666.612 395.65 668.808 395.264 670.8 395.309C671.203 398.608 671.025 403.256 670.994 406.692C675.315 406.729 679.693 406.823 684.004 406.625L684.002 422.676C688.676 422.661 693.35 422.715 698.022 422.837C698.015 428.506 698.17 435.439 697.893 441.007L746.434 441.036L868.909 441.041C868.603 436.762 869.195 432.52 869.134 428.251C868.713 398.993 869.874 369.137 868.968 339.949L853.762 339.808C854.624 335.193 854.33 329.658 854.268 324.894C762.141 324.274 670.009 324.532 577.886 325.668L389.581 325.661C379.221 325.707 369.485 324.951 359.257 324.915L243.875 325.065C219.204 325.068 194.258 324.598 169.645 325.026C169.335 330.336 168.988 334.425 169.423 339.763ZM637.483 275.056C633.599 274.999 627.772 274.734 624.039 274.98L623.934 249.08L613.854 248.798C614.474 243.558 614.051 238.786 614.103 233.572L522.031 233.079C508.625 233.068 493.138 232.732 479.858 233.235C467.238 233.551 454.659 233.309 442.055 233.443C442.127 238.8 442.515 243.148 443.008 248.449C438.265 248.222 434.289 248.133 429.544 248.209C428.784 254.233 428.96 266.977 428.859 273.474L419.039 273.728C419.08 276.222 419.376 281.647 418.743 283.759L416.851 284.202C416.379 285.986 416.54 296.507 416.537 299.013L573.75 299.052L637.401 299.022C637.49 291.034 637.517 283.045 637.483 275.056ZM736.272 267.253C734.599 267.399 734.097 267.128 733.07 268.007C732.82 273.56 732.444 279.489 732.388 285.019C758.204 283.921 789.248 284.784 815.428 284.905C817.161 284.929 818.986 285.195 820.409 284.486C820.542 278.695 820.576 272.903 820.511 267.111C793.229 267.424 763.004 266.337 736.272 267.253ZM212.033 281.336C211.659 287.298 211.808 292.181 211.957 298.141C217.826 298.295 268.044 299.015 269.38 298.028L269.396 297.554C269.546 292.761 269.145 290.008 268.545 285.264C268.493 284.853 269.606 282.574 269.879 282.009L269.577 281.235C252.95 280.984 236.418 281.495 219.805 281.354C217.254 281.332 214.566 281.129 212.033 281.336Z"/><path d="M495.432 379.066C516.07 378.592 539.113 379.109 560.072 378.981C560.296 383.326 560.403 387.675 560.393 392.026L588.872 392.007C588.813 396.066 588.84 401.573 589.668 405.489C600.992 405.635 608.665 407.218 619.745 407.688C619.736 412.961 619.792 415.957 619.377 421.376L630.973 421.488C631.295 425.752 631.277 429.708 631.286 433.971C634.263 434.354 637.322 434.377 640.33 434.476C640.148 436.575 640.097 438.926 640.001 441.051C642.721 441 646.848 440.817 649.496 441.223C653.384 441.819 651.38 447.208 653.038 449.931L655.317 450.467C656.488 451.748 656.087 455.664 656.135 457.916C657.533 460.262 656.415 457.228 658.65 458.947C658.726 460.464 658.691 460.586 659.123 462.019C660.448 463.133 661.492 462.971 663.286 463.104L664.046 463.156C664.858 464.524 663.932 465.78 663.422 468.049L663.932 468.833C665.391 468.986 666.016 468.935 667.291 469.691C667.973 471.697 667.828 483.088 667.84 485.988C671.899 486.008 675.958 486.005 680.017 485.98C679.955 489.749 679.543 497.836 680.287 501.022C680.441 501.123 681.787 501.993 681.922 502.146C683.577 504.011 682.762 514.364 682.705 517.008L691.479 517.253C691.822 538.241 691.235 561.351 691.303 582.678C688.409 582.942 684.488 582.949 681.505 583.035L681.472 609.95C678.25 609.9 673.896 609.691 670.814 610.142C669.461 613.345 669.991 631.186 670.016 635.839C665.335 635.903 660.654 635.997 655.974 636.119L655.856 653.789C650.796 654.011 645.208 653.91 640.105 653.922C640.111 654.664 640.167 657.554 639.886 657.976C636.501 663.048 631.09 666.919 627.249 671.677C626.895 672.115 627.659 673.002 626.247 674.904C623.747 675.364 621.547 675.303 619.013 675.343C618.931 677.635 618.583 680.267 618.337 682.575L618.646 685.172C618.906 686.709 618.992 688.898 619.107 690.497L590.072 690.434L590.145 700.984C582.002 701.572 571.141 702.189 563.172 701.971C563.548 706.568 562.93 710.117 563.495 715.214C542.406 715.133 517.927 714.785 497.041 715.46L496.947 702.28C491.083 702.008 476.61 701.928 471.015 702.428L471.026 688.794C460.394 689.568 449.106 688.605 438.385 688.929C438.736 685.02 438.854 680.977 439.02 677.046L426.884 676.851C427.062 675.323 427.844 669.706 427.084 669.266C423.537 667.212 425.883 666.843 424.888 663.058C421.221 660.91 414.594 665.572 413.195 659.82C411.566 653.12 406.449 651.222 402.272 646.701C401.153 645.49 403.286 637.756 401.66 635.547C398.183 633.326 392.782 633.653 388.755 633.992C388.775 625.177 388.512 615.878 388.454 606.989C384.354 607.012 380.042 606.869 375.926 606.798C376.44 599.155 376.107 588.518 376.079 580.647C373.232 580.723 369.446 580.502 366.527 580.413C367.229 574.942 366.832 566.446 366.961 560.779C367.314 545.182 366.321 528.973 367.08 513.483C370.701 513.37 374.465 513.459 378.099 513.496C377.925 503.107 378.047 492.303 378.027 481.884C381.376 482.191 386.531 482.074 390.015 482.099C390.045 479.121 389.656 470.73 390.454 468.423C395.554 466.594 391.918 466.558 394.204 463.907C395.866 463.598 396.137 463.601 397.734 462.92C398.047 461.904 398.04 461.722 398.046 460.688L398.047 459.739C400.101 458.461 401.344 460.819 403.762 459.228C403.485 456.52 402.056 452.911 401.258 450.167C400.335 449.407 399.556 448.765 398.92 448.242L399.107 447.593C402.721 446.462 403.664 446.323 407.423 445.945C408.586 439.446 410.04 440.096 415.982 438.845C416.178 435.62 416.075 432.288 416.039 429.052C418.835 428.922 421.545 428.658 424.328 428.4L424.27 422.014C427.153 422.032 434.879 420.411 438.197 419.879C438.064 416.013 438.413 409.967 438.476 405.883C445.623 406.246 457.419 405.907 464.986 405.949C464.755 401.141 464.551 396.333 464.375 391.523C474.713 391.637 484.907 391.962 495.318 392.018C495.442 387.786 495.347 383.361 495.432 379.066ZM494.978 447.943C491.574 447.915 474.608 447.394 472.714 448.51C472.545 450.039 472.521 450.802 472.508 452.304C470.851 453.601 463.836 452.71 463.016 452.97C460.634 453.724 464.627 457.485 457.942 457.933C457.016 459.404 457.438 462.632 457.488 464.573C455.225 464.736 452.825 464.96 450.57 465.016L450.538 476.713L444.247 476.458C444.267 480.634 444.358 484.809 444.522 488.982C439.735 488.659 436.858 488.741 432.032 488.983L432.04 513.738C428.177 513.735 423.896 513.664 420.065 513.895C420.009 529.776 420.054 545.657 420.2 561.537C428.599 561.485 436.998 561.49 445.397 561.554C444.625 550.924 444.966 536.761 444.918 525.75C444.89 520.489 444.751 515.23 444.501 509.975L456.492 510.054C456.799 506.223 457.405 493.44 458.345 490.718C459.706 490.042 460.051 490.116 461.553 489.965C464.656 487.119 461.651 485.976 466.888 486.077C469.146 486.12 471.686 486.188 473.977 486.284L473.928 476.086L484.142 476.058C484.233 473.242 484.383 470.832 484.1 468.015C492.411 468.177 493.478 464.019 502.625 465.08C502.456 462.35 501.563 452.884 502.486 451.037C516.092 448.582 514.253 450.207 527.384 451.141C532.337 451.493 547.998 451.084 553.196 450.818C553.035 445.605 552.957 441.265 553.135 436.025L512.866 435.896C508.104 435.923 499.521 435.729 495.001 436.163C495.08 440.056 495.236 444.07 494.978 447.943ZM584.126 661.042C584.171 657.167 584.341 652.727 584.26 648.891C591.642 648.67 599.028 648.543 606.414 648.508C606.598 644.681 606.825 640.77 605.91 637.012L615.098 637.013C614.88 631.691 614.355 628.859 617.688 624.409C620.68 620.417 619.987 617.534 620.003 612.846C623.506 613.098 628.638 613.677 631.954 613.446C631.923 607.283 631.168 606.31 634.433 601.177C634.452 598.438 634.398 595.314 634.557 592.611C637.947 592.19 641.717 591.636 645.085 591.332C644.301 572.291 645.033 554.05 644.944 535.002L630.129 535.025C629.83 539.38 630.073 543.546 630.178 547.903C630.5 561.294 630.925 574.65 630.506 588.042C626.789 588.089 622.88 588.069 619.193 588.372C619.161 592.272 620.134 600.812 618.021 603.058C614.652 604.645 609.9 604.071 606.001 603.974L606.053 613.526C603.688 613.618 601.268 613.645 598.933 613.981C598.682 616.545 599.113 616.727 597.762 618.291C595.86 618.741 594.525 618.657 592.557 618.683L592.641 626.971C589.132 626.729 583.812 626.977 581.015 626.563C581.016 629.283 580.955 632.264 581.08 634.96L567.697 635.116C567.648 639.016 567.52 643.179 567.586 647.057C563.924 646.942 559.813 647.923 556.768 647.682C547.242 646.927 536.878 647.313 527.511 646.567C527.452 651.366 527.441 656.244 527.326 661.034L538.125 661.049L584.126 661.042Z"/><path fill="#727367" d="M618.646 685.172C616.659 683.553 614.827 680.128 617.224 678.214C617.443 680.187 617.511 680.789 618.337 682.575L618.646 685.172Z"/><path d="M191.799 352.749C193.787 353.219 213.03 353.005 216.403 353.004L284.439 353.076L285.099 413.02C254.259 413.531 222.369 413.137 191.488 413.136L191.451 372.89C191.449 368.544 191.181 356.294 191.799 352.749ZM211.514 392.944C220.628 392.963 230.127 393.156 239.2 392.83C249.035 392.475 256.346 391.291 266.274 392.793C266.715 386.711 266.272 380.162 266.467 374.032L211.502 373.971L211.514 392.944Z"/><path fill="#A2AA9F" d="M671.281 693.412L671.781 694.053C672.13 696.894 672.255 700.015 670.781 702.542C668.778 699.957 670.466 696.414 671.281 693.412Z"/></svg>