<?xml version="1.0" encoding="utf-8" ?><svg xmlns="http://www.w3.org/2000/svg" xmlns:xlink="http://www.w3.org/1999/xlink" width="1024" height="1024" viewBox="0 0 1024 1024"><path d="M161.986 225.047L192.9 225.033L192.985 672.3C201.679 671.967 211.498 672.183 220.293 672.17L273.92 672.271C321.346 672.514 368.773 672.498 416.199 672.223C415.868 681.812 415.993 693.375 416.198 702.944C437.399 703.341 458.725 702.694 479.995 703.064C480.396 683.39 480.124 662.843 480.096 643.112L480.084 551.838L480.047 256.9L447.034 256.735C447.143 246.184 447.142 235.633 447.031 225.083C458.296 225.015 469.562 225.003 480.828 225.048C480.898 235.426 481.113 246.182 480.837 256.528C501.567 256.426 522.298 256.462 543.028 256.637C542.686 266.588 542.927 278.419 542.908 288.495C533.089 288.76 521.873 288.742 512.067 288.558L512.116 570.809L512.08 655.262C512.056 668.591 511.387 690.329 512.424 702.943L575.181 703.022C575.643 694.295 575.282 681.51 575.323 672.392C582.875 671.748 597.176 672.095 605.046 672.106L659.535 672.191L830.003 672.236L829.964 225.121C839.869 224.77 851.942 225.041 861.989 225.029C862.062 235.707 862.02 246.385 861.863 257.062L924.988 257.08L924.859 625.57L924.721 756.147C924.668 780.018 924.074 807.33 924.883 830.959L575.455 831.028C575.241 837.504 574.83 855.162 575.497 861.037C560.831 861.318 545.393 861.047 530.629 861.033L448.375 861.032L414.872 861.118L414.948 830.893L98.6605 831.003C99.6996 815.552 98.9611 791.352 98.959 775.404L98.4471 652.764L98.4775 257.028L162.002 256.997C161.898 246.347 161.893 235.696 161.986 225.047ZM861.934 765.992L606.905 766.011L606.96 797.956L635.446 797.924L804.129 797.946C833.37 797.951 863.216 797.668 892.425 798.016L892.443 479.142L892.462 354.015C892.465 332.491 892.152 310.067 892.527 288.605L861.975 288.555C861.447 300.27 861.88 313.327 861.898 325.184L861.919 397.283L861.963 652.632C861.986 689.796 862.638 728.976 861.934 765.992ZM194.648 735.154L356.875 735.134C375.996 735.115 395.882 735.381 414.94 734.993C414.951 724.729 414.804 714.015 415.039 703.786C393.607 703.428 371.596 703.649 350.128 703.635L250.843 703.757C232.251 703.808 213.136 703.632 194.587 704.001C194.59 713.978 194.896 725.345 194.648 735.154ZM543.164 766.378C553.736 766.34 564.474 766.402 575.03 766.219C575.054 755.901 574.932 745.081 575.138 734.804C583.764 735.467 596.819 735.127 605.699 735.129L659.453 735.132L830.035 735.168C830.039 731.139 830.278 706.7 829.867 704.106L829.333 703.85L575.116 703.952C575.116 713.035 574.702 726.23 575.291 734.988L542.963 734.954C542.928 739.984 542.509 762.681 543.164 766.378ZM480.035 766.998C480.188 756.323 480.221 745.647 480.134 734.971C469.499 734.932 458.565 734.761 447.955 734.992L447.95 766.952C458.644 767.121 469.341 767.136 480.035 766.998ZM415.549 829.524C457.764 828.881 500.868 830.369 543.008 829.462L542.998 798.005L464.748 797.911C448.556 797.918 431.435 797.661 415.298 798.042C414.903 808.534 414.986 819.039 415.549 829.524ZM160.676 288.783L131.47 288.957L131.515 797.97L383.006 797.936C392.669 797.933 405.527 798.261 414.928 797.426C414.834 786.945 415.047 776.461 414.968 766.003L245.061 765.981C217.694 765.986 189.4 766.383 162.126 765.978C161.649 721.201 162.683 290.314 161.368 288.75L160.676 288.783Z"/><path d="M575.415 192.057L770.023 192.068C778.785 192.076 824.611 191.076 829.153 192.579C829.779 193.629 829.679 193.191 829.695 194.376C830.115 203.241 830.12 215.428 829.809 224.352C802.902 223.395 772.249 224.16 745.076 224.167L575.607 224.408C575.756 235.254 575.73 246.102 575.53 256.948C568.92 256.879 548.175 257.372 543.028 256.637C542.922 246.093 542.91 235.548 542.991 225.004L574.996 224.979C575.075 214.627 574.836 202.247 575.415 192.057Z"/><path d="M192.147 192.033L360.616 192.053L414.734 192.059C425.245 192.063 437.321 192.375 447.647 191.78C447.288 202.468 448.052 213.608 447.383 224.442C439.923 223.838 429.829 224.091 422.185 224.094L381.2 224.097L250.555 224.106L210.102 224.129C204.171 224.146 197.837 224.517 192.005 224.298C192.176 213.65 192.052 202.727 192.147 192.033Z"/><path d="M607.36 289.072C628.035 288.698 650.008 289.042 670.792 289.036L783.013 289.054L782.908 321.474L718.625 321.628L606.67 321.852C606.77 332.46 606.781 341.917 606.599 352.573C596.107 352.736 585.614 352.743 575.123 352.596C575.007 342.193 575.058 331.788 575.275 321.387C584.111 320.633 597.8 321.058 607.056 321.007C607.175 315.229 606.51 293.063 607.36 289.072Z"/><path d="M239.976 289.07C258.503 288.505 280.198 289.021 299.043 289.021L415.043 289.017L415.027 321.283C423.834 320.654 438.621 321.031 447.902 321.014C447.177 327.208 448.632 346.915 447.272 352.433L446.414 352.762C436.172 352.733 424.89 352.472 414.729 352.867C415.098 342.763 414.94 331.919 415.003 321.748C409.853 321.367 401.343 321.617 396.007 321.609L360.072 321.569L240.153 321.852C239.823 311.347 240.077 299.704 239.976 289.07Z"/><path d="M743.042 576.773C755.984 576.186 769.894 576.69 783.028 576.504L782.977 608.455C727.327 609.318 669.58 608.536 613.75 608.636C600.884 608.779 588.018 608.796 575.151 608.688L575.09 577.007C590.483 576.122 613.546 576.846 629.522 576.853L743.042 576.773Z"/><path d="M414.487 384.799L414.62 384.856C415.357 386.285 415.093 411.784 415.107 416.046C425.302 416.047 437.857 415.683 447.846 416.293C447.899 426.827 447.869 437.361 447.754 447.895C437.086 448.176 425.443 447.965 414.696 447.995C415.244 438.338 415.024 426.319 415.088 416.43C407.051 415.564 387.457 416.094 378.78 416.094L307.25 416.106C284.877 415.952 262.504 416.066 240.134 416.446C239.986 405.95 240.078 395.271 240.068 384.761C259.369 385.176 279.839 384.813 299.248 384.841L414.487 384.799Z"/><path d="M575.026 480.586C598.445 480.021 623.609 480.4 647.094 480.397L783.017 480.491C783.026 488.289 783.223 502.38 782.77 510.725C782.507 510.996 782.243 511.266 781.98 511.536C713.012 512.094 644.04 512.122 575.071 511.618C575.149 501.274 575.134 490.93 575.026 480.586Z"/><path d="M239.948 577.014C259.601 576.215 283.148 576.863 303.255 576.866L416.852 576.877C416.291 585.476 416.634 599.236 416.604 608.221C414.052 608.666 402.538 608.481 399.548 608.472L365.533 608.412L240.042 608.627C240.135 598.089 240.104 587.551 239.948 577.014Z"/><path d="M239.958 480.591C260.384 480.176 281.732 480.399 302.204 480.393L416.801 480.522C417 490.947 416.916 501.376 416.548 511.796C376.814 512.498 336.815 511.56 297.052 511.954C278.14 512.142 258.872 512.145 239.979 511.835C240.306 501.711 240.034 490.776 239.958 480.591Z"/><path d="M778.578 384.777C780.154 384.702 781.933 384.398 782.901 385.271C783.61 392.827 783.082 408.316 783.047 416.444L668.995 416.141C650.223 416.138 629.731 415.739 611.07 416.327C609.315 416.366 609.189 416.458 607.468 415.909C606.607 414.069 607.257 389.748 606.726 384.964C624.016 384.548 642.654 384.888 660.028 384.895L778.578 384.777Z"/><path d="M575.243 416.051C585.039 415.743 596.999 416.057 606.946 416.076C606.718 426.164 607.593 437.945 606.761 447.845C596.462 448.21 585.778 447.735 575.329 448.053C574.68 441.646 574.971 422.851 575.243 416.051Z"/></svg>