<?xml version="1.0" encoding="utf-8" ?><svg xmlns="http://www.w3.org/2000/svg" xmlns:xlink="http://www.w3.org/1999/xlink" width="1024" height="1024" viewBox="0 0 1024 1024"><path fill="#010101" d="M236.999 194.209C242.308 195.262 254.44 194.853 260.29 194.81C269.882 194.675 279.475 194.808 289.059 195.208C289.007 198.395 288.771 201.788 289.378 204.878C291.73 206.546 305.505 206.072 308.991 205.963L308.87 217.005L320.985 216.908C320.858 220.357 321.009 224.577 321.046 228.087C324.796 228.314 327.787 228.477 331.53 228.384C331.621 234.982 331.207 242.595 331.002 249.276C333.957 249.176 337.614 249.325 340.625 249.37C340.81 264.282 340.67 279.764 342.447 294.529C358.469 294.035 376.294 294.378 392.424 294.382C392.759 287.164 393.317 280.226 392.507 272.99L417.1 272.988C417.092 280.025 416.949 287.377 417.465 294.363C431.72 293.642 447.094 293.879 461.371 293.936L516.698 293.985C565.474 293.648 614.252 293.821 663.025 294.505C662.978 288.565 662.678 278.456 663.604 272.917C671.839 273.109 680.441 272.977 688.706 272.963C689.139 280.025 689.179 287.106 688.826 294.172C700.041 294.926 719.964 294.381 731.877 294.498C731.467 291.05 731.809 283.746 731.877 279.932C731.998 273.425 731.982 266.916 731.832 260.41C735.809 260.161 738.08 260.028 742.017 260.319C741.883 253.296 741.984 246.056 742.003 239.015L752.999 239.079L753.036 216.978L764.031 216.974C764.036 213.338 764.406 210.237 764.785 206.627C768.096 207.029 772.672 206.925 776.117 206.944C776.384 202.691 776.447 199.241 776.075 195.019L819.005 195.093C825.368 195.139 834.231 195.875 840.221 195.074C839.955 198.926 840.087 202.91 840.146 206.782C844.759 206.801 849.372 206.856 853.985 206.949C853.988 210.299 853.846 213.658 853.734 217.006L864.162 217.092C864.273 224.46 864.799 231.754 864.886 239.046L875.003 238.975C874.726 249.239 874.807 261.403 876.047 271.464C879.89 271.358 883.925 271.393 887.785 271.366C887.767 275.576 887.681 279.787 887.528 283.995C895.41 283.991 902.776 283.625 910.51 285.126C910.115 288.616 910.047 291.42 909.965 294.94C912.249 294.946 917.796 294.68 919.522 295.606C920.884 302.019 919.853 311.459 920.637 318.946L909.492 319.073C909.251 323.308 909.095 327.548 909.024 331.789C901.907 332.229 894.144 331.85 886.68 332.246C886.555 336.125 886.545 340.119 886.486 344.01L875.995 343.951L875.996 374.464L864.079 374.456C863.807 380.832 863.862 391.849 864.223 398.058C860.809 398.251 857.244 398.165 853.811 398.142C853.712 402.135 853.493 406.124 853.154 410.104L840.356 410.03C840.144 413.91 839.936 418.224 840.375 422.069C819.427 422.118 796.873 422.559 776.038 422.03C776.174 418.469 776.045 414.633 775.99 411.045C772.021 410.944 768.051 410.982 764.085 411.156L763.993 399.189L753 399.007C752.9 392.782 752.907 386.555 753.02 380.331C748.905 379.947 745.557 380.12 741.478 380.541C742.234 373.661 741.959 362.848 741.957 355.625C738.932 355.854 734.666 355.804 731.545 355.861C731.792 348.082 731.591 339.802 731.524 331.98L689.103 331.985C688.247 347.945 688.484 364.555 688.472 380.602L688.396 451.251C687.963 528.826 688.014 606.404 688.547 683.979L697.908 683.878C697.855 689.818 698.013 695.856 697.968 701.859L706.86 701.771L707.09 717.937C710.903 717.783 714.239 717.815 718.06 717.893C718.19 723.295 718.392 728.696 718.666 734.093C722.38 734.104 724.291 734.099 727.947 733.581L728.532 748.013L738.013 747.771C738.027 753.018 738.063 757.743 738.366 762.995L748.998 763.208L748.94 778.053L759.121 777.975C759.062 783.002 759.424 788.913 759.609 793.998C763.502 793.508 765.822 793.692 769.773 793.885L770.074 808.958L779.994 808.956C779.824 814.997 780.018 821.942 780.045 828.052C791.681 828.147 803.319 828.114 814.954 827.952C815.188 834.513 814.993 842.093 814.97 848.731C775.335 849.395 734.371 848.883 694.662 848.854L607.771 849.45C599.739 849.484 592.259 848.893 583.73 849.033C584.108 842.497 584.007 834.649 584.077 828.007C590.52 828.013 597.239 827.9 603.652 828.285C603.927 822.768 604.255 816.135 605.176 810.74L614.456 810.995C614.636 802.815 614.512 794.242 614.514 786.032L624.08 785.989C624.398 778.353 624.545 770.712 624.52 763.07L634.991 763.068C634.876 755.38 634.894 747.69 635.048 740.002C638.455 740.232 641.698 740.358 645.045 741.052C645.069 732.736 645.043 724.421 644.967 716.105C648.178 715.903 651.77 715.934 655.016 715.897C655.052 709.839 655.054 703.782 655.022 697.725C651.703 697.828 646.939 697.592 643.478 697.53C618.24 696.056 585.042 696.993 559.221 697.06L417.405 697.452C415.844 703.264 416.502 716.105 416.515 722.486C416.557 743.658 416.17 764.812 417.593 785.939C418.055 792.797 416.837 800.39 417.057 807.307C417.247 814.227 417.321 821.195 417.446 828.124C428.125 827.527 444.069 827.988 455.119 828.1C454.657 834.78 455.149 842.01 454.661 849.158C442.233 848.237 425.87 849.567 413.299 849.675C402.887 849.765 392.887 849.162 382.499 849.002C377.225 848.921 363.716 849.652 359.16 848.308C358.491 846.624 359.163 831.034 359.308 828.109C370.39 827.881 381.783 828.121 392.96 827.959L392.993 691.025L355.296 690.959C355.076 697.894 354.993 704.833 355.046 711.772L345.244 711.951C345.231 718.592 345.179 725.232 345.089 731.872L336.027 731.972C335.891 737.856 335.97 744.055 335.958 749.966L325.794 749.996C325.94 755.991 325.577 761.922 325.955 767.955C322.614 767.929 319.273 767.952 315.933 768.024L315.995 787.327C312.688 787.291 309.38 787.283 306.073 787.303C306.194 793.333 306.105 799.664 306.112 805.718C302.969 805.881 299.676 805.932 296.518 806.027L296.503 825.858C293.805 825.88 289.962 825.77 287.428 826.395L287.619 827.141C290.79 828.654 303.652 828.073 308.047 828.034C307.957 834.997 307.917 841.96 307.927 848.924L220.855 848.886C206.273 848.903 189.895 848.565 175.427 849.108C176.35 843.46 176.086 834.222 176.106 828.187C182.093 828.483 189.317 828.396 195.405 828.487L195.356 815.942C198.843 815.881 202.472 815.93 205.973 815.927L206.611 796.999C209.664 797.215 213.869 797.145 217.013 797.182C217.027 790.783 217.038 784.637 217.32 778.243C220.167 778.165 223.146 778.192 226.006 778.178C226.025 772.158 225.983 766.152 226.305 760.14C229.38 759.932 233.388 760.04 236.544 760.04L236.596 741.211L245.421 741.166C245.703 734.217 246.275 728.168 246.389 721.035L255.321 721.013C256.151 715.116 256.014 710.865 256.013 704.931L264.472 704.974C265.133 699.879 265.182 693.384 265.364 688.154C268.087 688.013 269.747 688.155 272.42 688.366C272.649 681.912 272.914 675.459 273.214 669.007C268.175 668.905 263.135 668.915 258.096 669.035C258.027 665.731 258.89 661.577 256.841 659.3C254.401 658.225 250.742 658.815 248.003 659.063C247.997 655.025 247.903 650.924 247.848 646.881L238.161 647.228C237.497 636.68 237.023 636.612 226.475 636.856L226.383 626.106L216.262 626.277C215.981 622.508 215.387 618.806 214.837 615.069C211.608 615.125 208.188 615.018 204.944 614.967C205.397 605.206 205.053 591.943 204.961 582.028L215.057 582.078L215.014 573.138C229.657 573.322 245.046 572.953 259.75 572.87L319.059 572.806L319.127 583.042L329.16 582.955C329.555 586.447 330.074 589.249 330.742 592.704C332.87 592.925 335.959 592.902 338.167 592.953C338.393 589.754 338.435 588.728 338.149 585.508L344.981 585.426L345.1 577.012C348.768 577.041 352.437 576.983 356.103 576.839C356.099 573.225 356.062 569.612 355.992 565.999L365.191 565.935L365.024 554.941L375.346 554.978L375.281 543.867L385.031 543.948C385.056 540.235 385.098 536.777 385.299 533.072L392.731 532.947C393.566 521.844 393.051 503.269 393.06 491.584L393.097 415.489L393.036 356.314C393.031 353.197 393.207 334.245 392.625 332.267C385.9 331.79 377.365 331.951 370.536 331.971C361.147 331.999 350.619 331.834 341.287 332.358C341.515 343.022 341.053 355.727 340.964 366.581L330.915 366.878C330.812 373.944 330.785 381.011 330.832 388.078C327.132 387.913 323.8 388 320.048 387.663C320.164 391.459 320.285 394.666 320.051 398.45C316.23 398.811 312.875 398.89 309.03 398.976C308.995 402.653 309.006 406.329 309.062 410.005L289.91 410.013C289.895 414.023 289.926 418.034 290.001 422.044C272.566 422.672 254.539 421.401 237.065 422.493L236.998 411.336C233.23 410.955 221.475 411.01 217.109 410.938L217 399.947C213.512 399.957 209.698 399.774 206.197 399.643C206.414 395.772 206.407 391.891 206.175 388.02L194.804 387.946C195.195 381.625 195.007 373.477 195.017 367.013L183.803 366.959C184.197 359.848 183.988 351.015 183.998 343.774C181.053 343.994 176.171 343.835 173.078 343.824C173.4 320.041 173.064 295.389 173.032 271.55C176.473 271.568 179.912 271.669 183.347 271.854C183.581 264.218 183.657 256.578 183.578 248.939C187.067 249.048 190.886 248.954 194.404 248.935C194.289 242.051 195 235.082 194.957 227.954C198.097 228.094 201.802 227.996 204.992 227.986C205.031 224.429 205.014 220.871 204.94 217.315C208.263 216.944 213.517 217.054 216.995 217.024L217.095 205.705C223.356 206.151 230.644 205.956 236.96 205.887C237.028 201.995 237.041 198.102 236.999 194.209ZM417.849 504.908L426.212 505.159L426.628 493.963L436.017 494.022L436.047 483.025C439.136 483.193 442.92 483.495 445.952 483.492L446.004 473.346L456.527 473.434C457.091 469.308 456.969 466.836 456.86 462.637C460.388 462.745 463.552 462.853 467.076 462.709L466.981 451.993L477.328 451.95C477.211 448.761 477.158 445.179 476.924 442.03C480.408 442.043 483.982 442.014 487.457 442.089C487.573 438.646 487.647 435.413 488.031 431.984C491.649 432.056 495.268 432.09 498.887 432.087L498.837 421.164C502.166 421.147 505.495 421.089 508.823 420.99C508.861 417.509 508.855 414.027 508.806 410.546C512.639 410.774 515.149 410.785 518.991 410.648L519.073 400.001L529.955 399.944C530.248 396.395 530.524 393.709 530.344 390.147C533.834 389.958 537.013 389.864 540.459 389.236C540.596 385.814 540.697 383.194 541.163 379.795L551.535 379.912L551.59 369.929C554.475 369.985 557.742 370.119 560.591 370.071C560.713 366.373 560.859 362.675 561.029 358.978C567.199 359.003 573.519 359.115 579.68 358.8C583.502 358.605 588.314 357.566 592.04 357.544C593.78 357.534 597.47 358.868 599.87 358.924C608.891 359.136 617.946 358.88 626.975 358.953C632.731 358.999 638.204 360.064 643.835 360.107C643.787 363.836 643.832 367.565 643.969 371.291C647.497 371.126 650.307 371.17 653.846 371.28C654.081 386.774 653.314 397.159 652.916 412.009L643.064 412.063C642.717 415.726 642.465 419.397 642.306 423.072L632.638 422.999C632.065 427.244 631.975 429.326 631.987 433.631C628.794 433.678 625.233 433.808 622.074 433.739L622.025 443.765C618.894 443.948 615.756 444.026 612.619 443.997L612.502 454.959L602.99 454.963L602.953 463.42L593.963 463.478C593.941 466.806 593.819 470.738 594.007 474.005L584.991 474.033C584.649 478.173 584.486 481.383 584.455 485.532C580.424 485.221 578.164 485.259 574.101 485.449L574.03 494.606C571.042 494.752 567.678 494.984 564.717 494.98L564.554 504.623L554.992 504.656C554.891 508.093 554.672 512.154 554.804 515.532C551.17 515.04 547.628 515.074 543.964 515.018L544.08 526.051C540.754 526.104 537.877 526.183 534.556 525.917C534.314 529.431 533.952 533.393 533.988 536.876C530.509 537.025 526.938 536.981 523.448 536.982C522.936 542.709 522.738 548.08 523.163 553.831C526.421 553.915 529.68 553.96 532.939 553.968L533.006 569.112L542.915 568.764C542.712 573.684 542.911 579.189 542.985 584.154L553.409 584.065C553.781 589.738 554.118 594.306 553.932 599.999L563.954 599.978C563.98 605.443 563.887 611.416 564.139 616.838C567.555 617.006 570.975 617.106 574.395 617.136C573.848 622.47 574.052 628.645 574.416 633.999L584.437 634.011C584.334 639.68 584.365 645.35 584.531 651.017L594.982 650.994C594.543 655.393 594.953 662.01 595.14 666.572C599.551 665.961 614.097 666.344 619.223 666.431C633.539 666.671 649.2 666.069 663.338 667.055C664.477 652.669 664.073 637.234 664.08 622.74L664.091 554.249L663.091 331.981L417.472 332.14C417.316 344.337 417.057 356.905 417.487 369.073C418.595 400.485 415.119 431.595 417.556 462.963C418.078 469.683 417.128 477.192 417.492 483.966C417.516 490.753 417.977 498.252 417.849 504.908ZM563.992 384.036L553.544 384.008L553.537 392.902C549.843 392.689 546.051 392.855 542.343 392.95C542.187 396.359 541.966 399.93 541.988 403.328L530.578 403.615C530.334 407.153 530.043 410.981 529.976 414.52C527.012 414.589 523.081 414.782 520.192 414.653C520.189 417.038 520.069 421.806 520.297 423.974L510.516 424.051C510.302 427.671 510.023 431.329 510.087 434.95L500.035 435.026C500.037 438.415 499.985 441.945 500.046 445.32C496.568 445.224 492.75 445.033 489.309 445.221C489.032 449.151 488.939 451.964 489.003 455.897C485.685 456.113 482.365 456.301 479.044 456.462C478.984 459.717 478.831 463.454 478.913 466.666C475.323 466.866 471.727 466.963 468.131 466.957L468.079 476.991L457.763 477.015L457.99 487.018L448.132 487.14L448.027 497.824L438.219 497.774C437.931 500.9 437.484 504.707 437.434 507.788L426.687 508.003C426.705 511.433 426.666 515.051 426.789 518.463L417.037 518.395L416.919 528.571C413.748 528.662 410.15 528.868 407.04 528.608C407.005 532.115 406.88 536.04 406.97 539.51C404.199 539.558 400.092 539.741 397.418 539.585L397.129 548.817C394.089 548.826 389.512 548.969 386.609 548.717C386.323 552.051 385.94 555.556 385.94 558.891C382.45 558.784 379.522 558.733 376.039 558.865L376.568 570.104C373.899 570.075 370.502 569.748 368.147 570.703C366.151 573.141 367.135 578.379 367.352 581.925L357.504 581.997C357.377 585.672 357.293 589.348 357.249 593.025L348.019 592.98C348.358 596.915 348.965 602.17 349.055 606.02C352.306 606.009 355.827 606.064 359.051 605.956L359.474 616.845C363.283 616.992 367.065 617.162 370.88 617.151L371.014 627.958C377.41 628.015 390.41 628.419 396.06 627.462L396.085 617.004L406.89 617.045C407.082 613.248 407.041 609.637 407.017 605.836C410.813 606.031 414.614 606.108 418.415 606.066C418.41 602.747 418.456 599.297 418.39 595.993L428.425 596.062C428.404 592.459 428.457 588.584 428.345 585.007L437.971 585.253C438.066 581.845 438.314 577.386 438.05 574.089C441.017 574.071 443.986 574.018 446.95 574.132C446.933 571.441 447.006 567.782 446.799 565.194C450.014 565.078 453.231 565.04 456.448 565.081C456.419 561.342 456.471 557.245 456.199 553.552C459.282 553.739 462.366 553.909 465.451 554.064C465.457 550.912 465.42 547.631 465.501 544.494C468.826 544.624 472.145 544.724 475.462 544.991C475.373 541.699 475.335 538.807 475.426 535.518L485.043 535.331C485.023 531.914 485.053 528.373 484.977 524.97C488.244 524.967 491.816 525.032 495.053 524.913C494.878 522.183 494.212 518.494 494.977 516.215C497.366 514.059 500.393 514.849 503.922 515.015C503.904 511.825 503.976 508.095 503.829 504.954C507.355 504.944 510.39 504.968 513.904 504.62C514.415 500.706 514.421 499.157 514.303 495.187C517.286 495.203 520.56 495.285 523.519 495.192C523.555 491.527 523.539 487.739 523.635 484.087L533.232 483.937C533.221 479.912 533.216 476.087 533.004 472.068L543.604 472.552C543.883 468.618 543.923 465.957 543.842 462.008L553.295 461.994C553.358 458.815 553.512 455.197 553.359 452.07L563.047 452.084L563.03 441.469C566.284 441.67 570.249 442.016 573.447 442.019C573.445 438.502 573.408 434.929 573.452 431.417C576.971 431.503 580.491 431.554 584.011 431.572L584.07 421.5C588.216 421.161 590.731 421.307 594.926 421.538C594.965 419.032 594.618 413.313 595.417 411.543C597.29 409.805 599.534 410.299 602.131 410.395L603.955 410.47L603.853 399.963L613.298 400.26C613.488 396.615 613.658 393.284 613.635 389.635L622.084 389.309C622.09 386.274 622.112 383.709 622.315 380.672C625.706 379.955 628.018 379.732 631.459 379.401C631.375 377.025 631.342 374.367 631.117 372.024L563.506 372.01C563.96 376.417 563.988 379.578 563.992 384.036ZM730.886 318.495C731.219 314.67 731.457 311.788 731.419 307.967L480.649 307.827C454.435 308.013 428.22 307.999 402.007 307.784C378.796 307.818 355.795 308.216 332.539 307.736C320.068 308.027 307.593 308.123 295.118 308.023C294.987 311.649 294.943 315.278 294.988 318.907L695.625 318.443L730.886 318.495ZM216.407 354.87L206.51 355.191L206.532 376.025C210.367 375.855 212.789 375.786 216.594 376.052C215.755 378.086 215.981 384.957 215.97 387.571L226.403 388.057L226.423 376.861C223.319 376.492 219.747 376.297 216.594 376.052C217.736 372.003 216.728 359.47 216.407 354.87ZM316.426 698.976L293.428 699.064L293.413 713.016L283.01 713.001C282.989 718.326 282.855 724.103 283.113 729.387C279.564 729.34 276.795 729.344 273.263 729.587C272.341 736.735 273.555 742.769 272.451 749.899C269.702 749.998 266.958 750.031 264.234 750.383C264.105 756.228 264.221 761.519 264.388 767.354C261.266 767.271 258.088 767.145 254.97 767.185C254.829 773.14 254.597 779.145 254.852 785.092C251.248 784.917 248.518 784.902 244.909 785.002L244.911 803.022C241.461 802.907 238.553 802.863 235.107 802.971C235.1 809.132 235.162 815.424 235.08 821.572L224.978 821.648L224.96 828.042L236.75 828.07C243.086 828.08 249.606 828.01 255.925 828.115L256.014 821.582C259.563 821.812 262.778 822.034 266.333 822.014C266.415 815.804 266.322 808.845 267.027 802.729C270.262 803.179 272.752 803.078 276.009 803.037C276.135 797.118 276.306 791.201 276.522 785.284C279.916 785.597 282.94 785.822 286.344 785.964C285.553 779.735 286.675 772.529 285.966 766.015L294.979 766.044C295.209 760.552 295.31 752.973 295.846 747.653C298.886 747.736 303.108 747.735 306.027 748.07L306.237 729.02C309.565 729.594 312.617 729.494 315.988 729.503C316.049 723.003 316.494 716.306 316.52 710.009L325.902 710.006C326.068 704.295 326.086 698.582 325.955 692.87L316.338 692.987C316.349 694.934 316.317 697.044 316.426 698.976ZM775.916 387.531C776.018 391.09 776.031 395.417 776.322 398.901C778.376 399.143 784.266 400.073 785.851 399.433L786.04 398.125C786.099 395.47 786.481 391.685 785.565 389.362C783.004 387.069 780.099 387.859 776.271 387.971C775.677 379.879 775.169 371.782 774.749 363.68C771.359 363.935 768.392 364.021 764.989 364.075L765.168 259.871L776.717 260.135C776.818 253.171 776.792 245.923 777.39 239.003L787.037 239.063C787.028 235.653 787.119 231.498 786.93 228.157C789.945 228.176 794.141 228.316 797.05 228.118C797.114 224.554 797.279 220.493 797.175 216.973C792.145 217.057 786.99 217.081 781.974 217.26C779.321 217.455 777.527 217.237 777.407 220.945C777.334 223.177 777.499 225.605 777.539 227.859L765.38 228.019C764.987 235.962 765.06 241.979 765.402 249.982L754.745 250.012C755.106 273.702 756.108 297.763 755.319 321.522C754.861 335.306 752.61 351.057 753.478 365.098C756.644 365.087 760.85 365.192 763.929 365.006L764.025 387.349C768.463 387.191 771.479 387.259 775.916 387.531ZM218.092 583.901C218.018 590.871 217.941 597.052 218.355 604.002C222.778 604.045 239.645 604.4 243.408 603.555C248.749 603.386 294.933 603.192 296.13 602.21C296.577 599.506 297.976 585.251 297.857 583.156C290.427 583.416 282.524 583.269 275.054 583.248C256.069 583.644 237.081 583.862 218.092 583.901ZM290.59 644.68C289.969 648.896 290.12 651.726 290.213 656.003C292.877 656.007 295.819 655.483 298.216 656.425C300.355 658.825 299.673 664.74 300.031 668.977C306.242 669.002 322.828 669.477 328.223 668.82C328.907 668.097 328.759 668.44 328.926 667.949L328.506 659.014C324.849 658.958 320.649 658.787 317.055 659.118L316.812 649.47C308.885 648.707 306.397 651.449 306.512 641.837L308.021 640.63C304.998 637.663 302.511 641.19 299.059 639.435C297.924 637.27 298.392 633.194 298.984 630.875C291.687 628.178 286.83 627.593 279.026 626.876C278.99 632.876 278.889 638.854 279.175 644.848L290.59 644.68ZM896.96 318.058C897.025 310.824 896.917 303.183 897.11 296.009L839.034 295.983L839.005 307.029C835.045 307.025 830.977 307.071 827.028 306.965L827.015 318.039L884.375 318.044L896.96 318.058ZM634.033 817.967C633.974 821.26 633.999 825.176 633.684 828.4C638.735 827.654 654.987 828.144 660.967 828.203C677.019 828.358 693.072 828.402 709.125 828.335C721.922 828.251 735.689 827.971 748.425 828.37C748.423 822.93 748.358 817.359 748.426 811.932C745.342 811.965 741.243 811.899 738.256 812.201C738.088 807.814 738.003 803.425 738 799.036C734.844 798.912 731.165 798.679 728.052 798.692L727.986 783.152L717.883 782.898C718.014 777.911 717.973 772.921 717.76 767.937L707.499 767.947L707.489 752.655L697.49 752.533C697.254 746.919 696.443 743.226 695.945 738.007L684.95 737.923C685.068 731.042 685.09 723.839 685.395 716.99L674.994 717C674.972 726.896 674.805 737.18 674.991 747.045C671.399 747.095 667.747 747.112 664.162 747.214C663.755 753.156 663.676 766.347 664.009 772.372L654.001 772.519C654.014 779.62 653.847 787.802 654.202 794.812C650.762 794.799 647.323 794.858 643.885 794.988C643.874 802.321 643.394 811.003 643.644 818.081L634.033 817.967ZM825.027 283.925L836.105 283.986L836.023 273.78C829.427 273.958 822.829 274.031 816.23 273.997C815.942 278.303 816.093 281.786 815.976 285.97L805.728 285.979C805.695 299.842 807.014 318.876 806.1 331.913L817.219 332.039C817.192 335.986 817.112 339.793 817.431 343.735C824.031 343.508 830.749 344 837.359 344.047C837.416 340.816 837.381 336.756 837.69 333.616L837.891 332.523C835.749 331.23 829.137 332.175 826.474 332.455C825.999 328.26 826.053 325.336 826.102 321.079C822.931 320.97 819.017 320.737 815.909 320.878C816.032 312.588 816.057 304.297 815.984 296.006L825.024 296.002L825.027 283.925ZM273.96 294.036C270.931 294.108 266.904 294.09 264.013 294.499C264.055 297.979 263.943 315.91 264.622 317.816C267.345 320.025 268.28 316.974 271.415 318.081C274.234 320.823 273.176 326.356 272.882 329.985L293.002 330.09C293.039 327.067 293.118 323.999 292.993 320.981C288.834 321.352 286.291 321.247 282.079 321.068C282.07 317.392 281.551 295.404 282.82 293.778C287.11 295.157 295.9 294.867 301.031 295.159L301.059 283.96C292.058 284.033 283.057 284.046 274.055 283.999L273.96 294.036ZM496.337 568.275L495.295 568.728C494.702 571.334 495.052 574.79 495.091 577.566C491.87 577.368 488.646 577.213 485.421 577.101L485.488 586.005C482.705 585.961 478.476 586.011 475.866 585.644L475.768 596.192L465.948 596.067L466.056 606.441L455.56 606.429L455.562 617.971L446.035 617.978L446.009 627.048L436.56 627.138L436.466 639.992L426.716 639.927C426.736 642.914 426.686 646.237 426.821 649.19C423.53 649.078 420.738 648.922 417.452 649.227C416.844 656.25 417.015 659.892 418.17 666.843C440.873 667.451 464.952 667.073 487.75 667.065L567.019 667.005L566.982 654.131C562.71 653.996 558.095 653.942 553.857 653.687C554.212 648.78 554.208 643.925 554.257 639.009C550.771 639.006 546.929 638.923 543.476 639.035C543.981 633.36 543.93 628.724 543.905 623.037L533.556 623.014C533.69 617.554 533.946 611.66 533.886 606.232L522.944 605.821C523.151 601.21 523.114 597.091 523.056 592.49L513.298 593.104C513.477 587.514 513.636 581.538 514.353 576.004C510.717 575.983 507 575.919 503.371 575.957L503.466 568.068L496.337 568.275ZM195.434 353.305C199.261 353.486 203.085 353.732 206.904 354.044L206.905 296.579C206.906 285.949 207.326 272.435 206.39 262.141C202.723 261.958 199.049 261.911 195.378 262.002C194.497 274.444 195.25 291.663 195.445 304.5C195.688 320.426 194.955 337.619 195.434 353.305ZM226.946 228.068C223.579 228.048 219.967 227.961 216.624 228.041L216.543 237.976L227.063 237.947L226.946 228.068ZM217.071 262.198C217.086 259.111 217.294 242.013 216.686 239.756L216.173 239.857L206.473 240.084C206.354 243.851 205.62 258.089 206.912 260.937L208.05 261.08C211.188 261.351 213.986 261.525 217.071 262.198Z"/></svg>